<svg id="Layer_1" data-name="Layer 1" xmlns="http://www.w3.org/2000/svg" viewBox="0 0 180 360"><defs><style>.cls-1{fill:#fdd9be;}.cls-2{fill:#ef3d3a;}.cls-3{fill:#191919;}.cls-4{fill:#fff;}</style></defs><title>Artboard 21</title><rect class="cls-1" x="67" y="268" width="12" height="60"/><rect class="cls-1" x="103" y="268" width="12" height="60"/><path class="cls-2" d="M79,172V160H43v24H55v84h72V184h12V160H103v12Zm24,48v12H91V220H79V196H91v12h12Z"/><rect class="cls-3" x="67" y="100" width="12" height="12"/><rect class="cls-3" x="31" y="112" width="12" height="36"/><rect class="cls-3" x="139" y="112" width="12" height="36"/><polygon class="cls-3" points="139 64 139 52 127 52 127 40 55 40 55 52 43 52 43 64 31 64 31 76 31 88 31 100 43 100 43 88 55 88 55 76 67 76 67 88 79 88 79 100 103 100 103 112 115 112 115 100 127 100 139 100 151 100 151 88 151 76 151 64 139 64"/><rect class="cls-4" x="79" y="124" width="24" height="12"/><path class="cls-1" d="M127,100H115v12H103V100H79v12H67V100H79V88H67V76H55V88H43v12H31v12H43v36H79v24h24V148h36V112h12V100H127Zm-24,36H79V124h24Z"/><rect class="cls-1" x="43" y="184" width="12" height="84"/><rect class="cls-1" x="127" y="184" width="12" height="84"/><polygon class="cls-3" points="55 328 55 340 79 340 79 328 67 328 55 328"/><polygon class="cls-3" points="103 340 127 340 127 328 115 328 103 328 103 340"/><polygon class="cls-3" points="91 196 79 196 79 208 79 220 91 220 91 232 103 232 103 220 103 208 91 208 91 196"/></svg>