<svg id="Layer_1" data-name="Layer 1" xmlns="http://www.w3.org/2000/svg" viewBox="0 0 180 360"><defs><style>.cls-1{fill:#fdd9be;}.cls-2{fill:#191919;}.cls-3{fill:#925122;}.cls-4{fill:#fff;}.cls-5{fill:#74913b;}</style></defs><title>Artboard 18</title><polygon class="cls-1" points="79 86 103 86 127 86 139 86 139 74 127 74 55 74 43 74 43 86 55 86 79 86"/><polygon class="cls-2" points="55 110 79 110 79 98 103 98 103 110 127 110 127 98 139 98 139 86 127 86 103 86 79 86 55 86 43 86 43 98 55 98 55 110"/><polygon class="cls-3" points="139 62 139 50 127 50 127 38 127 26 103 26 103 38 55 38 55 50 43 50 43 62 31 62 31 74 31 98 43 98 43 86 43 74 55 74 127 74 139 74 139 86 139 98 151 98 151 74 151 62 139 62"/><rect class="cls-4" x="79" y="122" width="24" height="12"/><path class="cls-1" d="M127,98v12H103V98H79v12H55V98H31v12H43v36H79v24h24V146h36V110h12V98H127Zm-24,36H79V122h24Z"/><polygon class="cls-1" points="55 182 43 182 43 266 55 266 55 242 55 182"/><path class="cls-5" d="M79,170V158H43v24H55v60h72V182h12V158H103v12Zm24,48H79V194h24Z"/><polygon class="cls-1" points="127 242 127 266 139 266 139 182 127 182 127 242"/><polygon class="cls-3" points="55 242 55 266 55 314 79 314 79 254 103 254 103 314 127 314 127 266 127 242 55 242"/><polygon class="cls-2" points="55 326 43 326 43 338 79 338 79 326 79 314 55 314 55 326"/><polygon class="cls-2" points="103 326 103 338 139 338 139 326 127 326 127 314 103 314 103 326"/><rect class="cls-2" x="79" y="194" width="24" height="24"/></svg>