<svg id="Layer_1" data-name="Layer 1" xmlns="http://www.w3.org/2000/svg" viewBox="0 0 180 360"><defs><style>.cls-1{fill:#fdd9be;}.cls-2{fill:#191919;}.cls-3{fill:#fbac1e;}.cls-4{fill:#ec6723;}.cls-5{fill:#925122;}.cls-6{fill:#fff;}</style></defs><title>Artboard 20</title><path class="cls-1" d="M121,61H49V73H37V85H49v24h72V85h12V73H121ZM73,97H61V85H73Zm36,0H97V85h12Z"/><rect class="cls-2" x="61" y="85" width="12" height="12"/><path class="cls-3" d="M133,61V49H121V37H49V49H37V61H25V97H37v48h96V97h12V61ZM97,133H73V121H97Zm36-48H121v24H49V85H37V73H49V61h72V73h12Z"/><rect class="cls-2" x="97" y="85" width="12" height="12"/><rect class="cls-1" x="25" y="97" width="12" height="12"/><rect class="cls-1" x="133" y="97" width="12" height="12"/><polygon class="cls-1" points="49 181 37 181 37 265 49 265 49 241 49 181"/><polygon class="cls-4" points="109 169 109 180 61 180 61 169 61 168 61 157 49 157 37 157 37 181 49 181 49 241 61 241 73 241 97 241 109 241 121 241 121 181 133 181 133 157 121 157 109 157 109 168 109 169"/><polygon class="cls-1" points="121 241 121 265 133 265 133 181 121 181 121 241"/><polygon class="cls-2" points="109 241 97 241 73 241 61 241 49 241 49 265 49 325 73 325 73 253 97 253 97 325 121 325 121 265 121 241 109 241"/><polygon class="cls-5" points="37 325 37 337 73 337 73 325 49 325 37 325"/><polygon class="cls-5" points="97 337 133 337 133 325 121 325 97 325 97 337"/><polygon class="cls-1" points="73 157 73 168 97 168 97 157 97 145 73 145 73 157"/><polygon class="cls-2" points="73 168 73 157 61 157 61 168 61 169 61 180 109 180 109 169 109 168 109 157 97 157 97 168 73 168"/><rect class="cls-6" x="73" y="121" width="24" height="12"/></svg>