<svg id="Layer_1" data-name="Layer 1" xmlns="http://www.w3.org/2000/svg" viewBox="0 0 180 360"><defs><style>.cls-1{fill:#fdd9be;}.cls-2{fill:#191919;}.cls-3{fill:#fbac1e;}.cls-4{fill:#fff;}.cls-5{fill:#25bac7;}</style></defs><title>Artboard 30</title><rect class="cls-1" x="97" y="324" width="12" height="12"/><rect class="cls-1" x="61" y="324" width="12" height="12"/><path class="cls-1" d="M133,96H121V84H109V96H37v12H25v12H37v36H73v24H97V156h36V120h12V108H133ZM61,120V108H73v12Zm36,24H73V132H97Zm12-24H97V108h12Z"/><rect class="cls-2" x="97" y="108" width="12" height="12"/><polygon class="cls-3" points="133 156 97 156 97 168 109 168 121 168 133 168 133 180 145 180 145 120 133 120 133 156"/><polygon class="cls-3" points="49 168 61 168 73 168 73 156 37 156 37 120 25 120 25 180 37 180 37 168 49 168"/><rect class="cls-2" x="61" y="108" width="12" height="12"/><rect class="cls-4" x="73" y="132" width="24" height="12"/><polygon class="cls-5" points="121 168 109 168 97 168 97 180 73 180 73 168 61 168 49 168 37 168 37 180 37 192 49 192 49 252 121 252 121 192 133 192 133 180 133 168 121 168"/><polygon class="cls-1" points="121 252 121 276 133 276 133 192 121 192 121 252"/><polygon class="cls-1" points="49 192 37 192 37 276 49 276 49 252 49 192"/><polygon class="cls-2" points="97 348 121 348 121 336 109 336 97 336 97 348"/><polygon class="cls-2" points="49 336 49 348 73 348 73 336 61 336 49 336"/><polygon class="cls-3" points="133 72 133 60 121 60 121 48 49 48 49 60 37 60 37 72 25 72 25 84 25 96 25 108 37 108 37 96 49 96 109 96 109 84 121 84 121 96 133 96 133 108 145 108 145 96 145 84 145 72 133 72"/><polygon class="cls-2" points="49 252 49 276 61 276 61 324 73 324 73 276 97 276 97 324 109 324 109 276 121 276 121 252 49 252"/></svg>