<?xml version="1.0" encoding="utf-8"?>
<!-- Generator: Adobe Illustrator 22.0.1, SVG Export Plug-In . SVG Version: 6.00 Build 0)  -->
<svg version="1.1" xmlns="http://www.w3.org/2000/svg" xmlns:xlink="http://www.w3.org/1999/xlink" x="0px" y="0px"
	 viewBox="0 0 200.8 432.7" style="enable-background:new 0 0 200.8 432.7;" xml:space="preserve">
<style type="text/css">
	.st0{fill:url(#SVGID_1_);}
	.st1{fill:#392349;}
	.st2{fill:#2C1612;}
	.st3{fill:#7B3828;}
	.st4{fill:#5C2365;}
	.st5{fill:#4F2359;}
	.st6{fill:#AF9872;}
	.st7{fill:#683729;}
</style>
<g id="Layer_14">
</g>
<g id="Layer_12">
</g>
<g id="Layer_13">
	<linearGradient id="SVGID_1_" gradientUnits="userSpaceOnUse" x1="97.4736" y1="412.9539" x2="97.4736" y2="313.7632">
		<stop  offset="1.374058e-03" style="stop-color:#FFFFFF;stop-opacity:0"/>
		<stop  offset="1" style="stop-color:#3D3D3D;stop-opacity:0.3"/>
	</linearGradient>
	<path class="st0" d="M11.1,327.3l77,12.6l95.7-26.1c0,0-5.8,14.6-4.9,37.5c0.9,22.9,5,61.6,5,61.6H13.1c0,0,0.6-26.5,0.6-49.6
		S11.1,327.3,11.1,327.3z"/>
</g>
<g id="Layer_4">
	<path class="st1" d="M11.1,327.3c0,0,5.4-4,14.7,0c9.3,4,21.7,7,24.1,6.8c2.4-0.1,3.7,1.7,3.7,1.7s5.8-1.3,6.6,0s28.2,14.7,28,15.4
		c-0.3,0.7-33.2-8.3-42.9-11.4C35.5,336.7,11.1,327.3,11.1,327.3z"/>
</g>
<g id="Layer_7">
	<path class="st2" d="M68.4,175.8c0,0,4.9-16.9,10.8-16.7s11.4,2.9,11.9,3.6c0.5,0.7,4.7,7.8,4.7,7.8L68.4,175.8z"/>
</g>
<g id="Layer_9">
	<path class="st3" d="M53.3,168.9c0,0,2.9-7.3,2.9-8.7c0-1.4,1.7-13.1,2.2-17.5c0.6-4.4,2.9-63.8,5.2-73.6s9.3-36.4,15.9-42.1
		s9.7-8.2,15.6-8.1c6,0.2,22.6,2.9,30.3,38.1s4.6,95,4.6,95s3.5,7.9,4.4,10.4c0.9,2.6-12.8,2.7-12.8,2.7s4.4-45.9,2-72.5
		S114.8,24.3,96.5,23c-18.3-1.3-25.4,52-26.2,57.7c-0.7,5.7-8.4,67.2-6.6,70.8c1.8,3.7,4.2,4.6,3.8,11.9c-0.4,7.3-0.5,9.9-0.5,9.9
		L56.2,177L53.3,168.9z"/>
</g>
<g id="Layer_10">
	<path class="st2" d="M63.7,152.9c0,0-1.4,4.3-5.1,7.9c-3.7,3.6-4.1,9.5-4.1,9.5l12.5-0.4c0,0-0.9-10.1-2.1-12.3
		C63.7,155.3,63.7,152.9,63.7,152.9z"/>
	<path class="st2" d="M129.9,152.3c0,0-2.2,5.3-3.7,6.2s-1.9,5.2-1.9,5.2h11.4c0,0-4.1-7.3-4.6-8.5
		C130.6,154.1,129.9,152.3,129.9,152.3z"/>
</g>
<g id="Layer_2">
	<path class="st4" d="M24.6,172.2c0,0,26-3.1,33.6-3.4c7.5-0.3,8.6,0,13.4,0c4.8,0,79.8-5.8,81.5-5.8s10.6,1.5,13.2,1.5
		c2.6,0,3.4-1,4.7-0.9c1.3,0.1,2.9-0.1,3.2-0.3c0.3-0.2,0.1-1.3,0.9-0.8s1.4,0.8,1.4,1.3c0,0.5,0.1,14.4,0.6,22.7s1.3,9.9,0.8,13.2
		c-0.5,3.3-0.5,8.8-0.6,14.4c-0.1,5.6-0.1,8.7,0.1,14.3c0.2,5.6,0,10.7,0.1,12.7c0.1,2,1.4,16.3,1.5,22.3s-0.5,17.4-0.5,18.3
		s0.2,5.8,0.5,9c0.3,3.1,0.6,6.6,1,8.7s0.8,6,1.4,7.8c0.6,1.8,3,5.5,2.3,6.6s-36.4,11.5-53.4,18.6s-40.5,16.2-41.4,19.3
		c0,0-17.2-7.1-20.4-9.1s-6.6-4.9-9.1-5.7c-2.5-0.8-7.6-0.1-7.6-0.1s-15.4-33.3-15.4-40.4s0-35.2-0.3-45c-0.3-9.8-10.9-65.9-9.2-68
		s4-5.9,4-5.9L24.6,172.2z"/>
</g>
<g id="Layer_3">
	<path class="st5" d="M16.6,171.6l9.3,0.6l6.9,5.2c0,0-4.3,2.5-4.4,6c-0.1,3.5,9.8,62.1,10,67.4c0.2,5.3,0.2,45.3,0.5,47.3
		s15.7,38.6,15.7,38.6s-5.2,1.5-9,0c-3.8-1.5-12.5-5.5-15.3-5.5s-4.2-0.4-5.1-0.7c-0.9-0.4-9.9-2.9-12.9-2.2c-3,0.7,0.1-5.3,0-5.9
		c-0.1-0.6,3.4-15.5,3.4-19.9s1.3-16.2,1.3-19.3s-0.4-29.7-0.4-34.6s3.3-20,2-27.2s-0.9-13.4-0.9-17.2c0-3.8,1.2-8.4,0.9-13.9
		c-0.3-5.5-0.4-6.7-1.2-9.3C16.5,178.4,15,173,16.6,171.6z"/>
</g>
<g id="Layer_11">
	<polygon class="st6" points="26.2,171.6 31.1,169.4 36.3,169.4 37.4,169.7 37.4,170.8 35.8,171.1 27.2,172.3 	"/>
	<path class="st6" d="M37.4,169.7l0.9,0.5v-0.8c0,0,0.8-1.2,4.1-1.2c3.3,0,6.1,0,6.1,0s0.6,1.6,0.3,1.6c-0.3,0-3.8,1.3-5.7,1
		c-1.9-0.2-4.7-0.2-4.7-0.2l-1,0.1"/>
</g>
<g id="Layer_5">
	<path class="st7" d="M79.2,159c0,0,19.1-1.4,29.4-1.3c0,0,19.5-1.7,22.7-0.8c3.3,0.8,20.2,28.5,19.7,34.2
		c-0.5,5.7-10.8,8.6-28.4,8.1s-28.2-33-31.7-36.1C87.5,159.9,79.2,159,79.2,159z"/>
</g>
<g id="Layer_6">
	<path class="st7" d="M21.8,169.4c0,0,5.2,1.2,6.3,1.6c1.1,0.4,3,1.3,3,1.3s0,0-2.1,0.5s-2.5,0.7-2.5,0.7S6,171,6.2,170
		c0.2-1,8.6,0.6,10.3,0.5C18.1,170.4,18.6,169.5,21.8,169.4z"/>
	<path class="st2" d="M165.8,164.7c0,0,4.2-2.7,4.6-2.7s1.6,0.1,2.1,0c0.5-0.1,4.4-2.2,5.1-2c0.7,0.3,1.1,0.1,1.3,0.5
		c0.1,0.5-3.4,3.4-3.4,3.4L165.8,164.7z"/>
	<path class="st6" d="M127.5,186.6c2.4-2.7,9.8,4.7,7.8,7C133.3,195.8,124.9,189.5,127.5,186.6z"/>
</g>
<g id="Layer_8">
	<path class="st3" d="M91.2,197.7c0,0-17.1-13.5-15.9-26.2s3.2-9.7,5-13.1s-5.9-33.5-5.1-48.9S75,68,78.4,54.1
		c3.4-13.9,11.9-37,27.4-37.3c15.5-0.3,30.1,28.4,33.9,51.3c3.9,22.9,4.9,22.2,5,27.4c0.2,5.2,5.4,52.3,5.9,56.8
		c0.5,4.5,1.3,10.4,3.2,13.9c1.8,3.5,6.1,13.1,6.4,16c0.3,2.9,0,5.5,0,5.5s-18.7-12.9-18.8-21.5c-0.2-8.6,3-12.9,3.2-15.8
		s-8.2-73.9-13.3-86.2s-8.1-40-29.2-42s-19,83.4-16.1,113.3s1.8,30.9,2.4,33.6c0.5,2.7,4.9,15.6,4.4,20.5
		C92.2,194.4,91.2,197.7,91.2,197.7z"/>
</g>
</svg>
