<?xml version="1.0" encoding="utf-8"?>
<!-- Generator: Adobe Illustrator 22.0.1, SVG Export Plug-In . SVG Version: 6.00 Build 0)  -->
<svg version="1.1" id="Layer_1" xmlns="http://www.w3.org/2000/svg" xmlns:xlink="http://www.w3.org/1999/xlink" x="0px" y="0px"
	 viewBox="0 0 200.8 432.7" style="enable-background:new 0 0 200.8 432.7;" xml:space="preserve">
<style type="text/css">
	.st0{fill:#7B3828;}
	.st1{fill:#683729;}
	.st2{fill:url(#SVGID_1_);}
	.st3{fill:#392349;}
	.st4{fill:#5C2365;}
	.st5{fill:#4F2359;}
	.st6{fill:#AF9872;}
	.st7{fill:#2C1612;}
</style>
<g id="Layer_9">
	<path class="st0" d="M53.3,168.9c0,0,2.9-7.3,2.9-8.7s1.7-13.1,2.2-17.5c0.6-4.4,2.9-63.8,5.2-73.6S72.9,32.7,79.5,27
		s9.7-8.2,15.6-8.1c6,0.2,22.6,2.9,30.3,38.1s4.6,95,4.6,95s3.5,7.9,4.4,10.4c0.9,2.6-12.8,2.7-12.8,2.7s4.4-45.9,2-72.5
		S114.8,24.3,96.5,23S71.1,75,70.3,80.7c-0.7,5.7-8.4,67.2-6.6,70.8c1.8,3.7,4.2,4.6,3.8,11.9c-0.4,7.3-0.5,9.9-0.5,9.9L56.2,177
		L53.3,168.9z"/>
</g>
<g id="Layer_5">
	<path class="st1" d="M73,170.4c0,0,19.1,1,29.4,1c0,0,19.5,1.3,22.7,0.6c3.3-0.6,20.2-21,19.7-25.2c-0.5-4.2-10.8-6.3-28.4-6
		c-17.6,0.4-28.2,24.3-31.7,26.6C81.3,169.7,73,170.4,73,170.4z"/>
</g>
<g id="Layer_14">
</g>
<g id="Layer_12">
</g>
<g id="Layer_13">
	
		<linearGradient id="SVGID_1_" gradientUnits="userSpaceOnUse" x1="97.5" y1="19.1" x2="97.5" y2="118.2" gradientTransform="matrix(1 0 0 -1 0 432)">
		<stop  offset="1.374058e-03" style="stop-color:#FFFFFF;stop-opacity:0"/>
		<stop  offset="1" style="stop-color:#3D3D3D;stop-opacity:0.3"/>
	</linearGradient>
	<path class="st2" d="M11.1,327.3l77,12.6l95.7-26.1c0,0-5.8,14.6-4.9,37.5c0.9,22.9,5,61.6,5,61.6H13.1c0,0,0.6-26.5,0.6-49.6
		S11.1,327.3,11.1,327.3z"/>
</g>
<g id="Layer_4">
	<path class="st3" d="M11.1,327.3c0,0,5.4-4,14.7,0s21.7,7,24.1,6.8c2.4-0.1,3.7,1.7,3.7,1.7s5.8-1.3,6.6,0s28.2,14.7,28,15.4
		c-0.3,0.7-33.2-8.3-42.9-11.4C35.5,336.7,11.1,327.3,11.1,327.3z"/>
</g>
<g id="Layer_2_1_">
	<path class="st4" d="M24.6,172.2c0,0,26-3.1,33.6-3.4c7.5-0.3,8.6,0,13.4,0s79.8-5.8,81.5-5.8s10.6,1.5,13.2,1.5
		c2.6,0,3.4-1,4.7-0.9s2.9-0.1,3.2-0.3s0.1-1.3,0.9-0.8s1.4,0.8,1.4,1.3s0.1,14.4,0.6,22.7s1.3,9.9,0.8,13.2s-0.5,8.8-0.6,14.4
		c-0.1,5.6-0.1,8.7,0.1,14.3c0.2,5.6,0,10.7,0.1,12.7s1.4,16.3,1.5,22.3s-0.5,17.4-0.5,18.3s0.2,5.8,0.5,9c0.3,3.1,0.6,6.6,1,8.7
		s0.8,6,1.4,7.8c0.6,1.8,3,5.5,2.3,6.6s-36.4,11.5-53.4,18.6s-40.5,16.2-41.4,19.3c0,0-17.2-7.1-20.4-9.1s-6.6-4.9-9.1-5.7
		c-2.5-0.8-7.6-0.1-7.6-0.1s-15.4-33.3-15.4-40.4s0-35.2-0.3-45c-0.3-9.8-10.9-65.9-9.2-68s4-5.9,4-5.9L24.6,172.2z"/>
</g>
<g id="Layer_3">
	<path class="st5" d="M16.6,171.6l9.3,0.6l6.9,5.2c0,0-4.3,2.5-4.4,6s9.8,62.1,10,67.4c0.2,5.3,0.2,45.3,0.5,47.3
		s15.7,38.6,15.7,38.6s-5.2,1.5-9,0s-12.5-5.5-15.3-5.5s-4.2-0.4-5.1-0.7c-0.9-0.4-9.9-2.9-12.9-2.2c-3,0.7,0.1-5.3,0-5.9
		s3.4-15.5,3.4-19.9s1.3-16.2,1.3-19.3s-0.4-29.7-0.4-34.6s3.3-20,2-27.2s-0.9-13.4-0.9-17.2s1.2-8.4,0.9-13.9
		c-0.3-5.5-0.4-6.7-1.2-9.3C16.5,178.4,15,173,16.6,171.6z"/>
</g>
<g id="Layer_11">
	<polygon class="st6" points="26.2,171.6 31.1,169.4 36.3,169.4 37.4,169.7 37.4,170.8 35.8,171.1 27.2,172.3 	"/>
	<path class="st6" d="M37.4,169.7l0.9,0.5v-0.8c0,0,0.8-1.2,4.1-1.2s6.1,0,6.1,0s0.6,1.6,0.3,1.6s-3.8,1.3-5.7,1
		c-1.9-0.2-4.7-0.2-4.7-0.2l-1,0.1"/>
</g>
<path class="st1" d="M21.8,169.4c0,0,5.2,1.2,6.3,1.6c1.1,0.4,3,1.3,3,1.3s0,0-2.1,0.5s-2.5,0.7-2.5,0.7S6,171,6.2,170
	s8.6,0.6,10.3,0.5C18.1,170.4,18.6,169.5,21.8,169.4z"/>
<path class="st7" d="M165.8,164.7c0,0,4.2-2.7,4.6-2.7s1.6,0.1,2.1,0s4.4-2.2,5.1-2c0.7,0.3,1.1,0.1,1.3,0.5
	c0.1,0.5-3.4,3.4-3.4,3.4L165.8,164.7z"/>
<path class="st6" d="M127.3,188.3c1.2-1.4,4.9,2.3,3.9,3.5C130.2,192.9,126,189.8,127.3,188.3z"/>
<g id="Layer_8">
	<path class="st0" d="M91.2,197.7c0,0-17.1-13.5-15.9-26.2s3.2-9.7,5-13.1s-5.9-33.5-5.1-48.9S75,68,78.4,54.1s11.9-37,27.4-37.3
		s30.1,28.4,33.9,51.3c3.9,22.9,4.9,22.2,5,27.4c0.2,5.2,5.4,52.3,5.9,56.8s1.3,10.4,3.2,13.9c1.8,3.5,6.1,13.1,6.4,16
		c0.3,2.9,0,5.5,0,5.5s-18.7-12.9-18.8-21.5c-0.2-8.6,3-12.9,3.2-15.8s-8.2-73.9-13.3-86.2s-8.1-40-29.2-42s-19,83.4-16.1,113.3
		s1.8,30.9,2.4,33.6c0.5,2.7,4.9,15.6,4.4,20.5C92.2,194.4,91.2,197.7,91.2,197.7z"/>
</g>
<path class="st6" d="M122.8,145c0.7-2.3,7.5-0.8,7,1.2C129.2,148,122.1,147.4,122.8,145z"/>
</svg>
