<?xml version="1.0" encoding="utf-8"?>
<!-- Generator: Adobe Illustrator 22.0.1, SVG Export Plug-In . SVG Version: 6.00 Build 0)  -->
<svg version="1.1" xmlns="http://www.w3.org/2000/svg" xmlns:xlink="http://www.w3.org/1999/xlink" x="0px" y="0px"
	 viewBox="0 0 333.6 221.3" style="enable-background:new 0 0 333.6 221.3;" xml:space="preserve">
<style type="text/css">
	.st0{fill:#E6E7E8;}
	.st1{fill:#F2C281;}
	.st2{fill:#B1814B;}
	.st3{fill:none;stroke:#78655A;stroke-width:2;stroke-miterlimit:10;}
	.st4{fill:#9D835A;}
	.st5{fill:none;stroke:#78655A;stroke-width:3;stroke-miterlimit:10;}
	.st6{fill:#FFFFFF;}
	.st7{fill:#0F0C0A;}
	.st8{fill:#DD2126;}
	.st9{fill:#D09740;}
	.st10{fill:#0D2F1A;}
</style>
<g id="Layer_4">
	<path class="st0" d="M149.2,117.7c0,0-2.9-3.8-4.7-3.4c-1.8,0.4-2.9,3.4-2.9,3.4s-3.5-1.6-5.9-1.2c-2.3,0.4-5.5,1.2-5.5,1.2
		s-2.5-0.3-3.6-1.2c-1.2-0.9-7.2-6.8-9.9-6.4c-2.7,0.4-6.8,0.3-6.5,5.9c0.3,5.6,6.4,11.2,11.3,11.1l-0.7,4.3c0,0-21,4.5-18.2,13.8
		c2.7,9.3,20.5-1.7,20.5-1.7l1.3,0.9c0,0-12.2,18.1-3.5,21.1c8.7,3,14.3-14.6,14.3-14.6l1.4-1.2c0,0-0.4,7.7,1.6,11.5
		c2,3.8,5.1,4.2,6.3,4s7.6-1.7,5.7-8.7c-1.8-7-4.6-10.8-4.6-10.8s2.2-2.1,3.3-4.6c1-2.5,1.6-6.1,1.6-6.1s2.4-0.3,3.1-1.4
		c0.7-1.2,1.4-4.6,1.4-4.6L149.2,117.7z"/>
</g>
<g id="Layer_5">
	<g>
		<path class="st1" d="M203.9,116.3c1.4,0,10.4,7,10.4,7s1.9,2.6,3.3,1.9c1.5-0.6,3.7-0.6,4.1-0.3c0.5,0.3,1.2,1.6,1.7,1.7
			c0.5,0.1,3-0.7,3.6-0.7c0.6-0.1,1.4,0.7,1.8,1.3c0.3,0.6,2,0.4,3.7,0.6c1.7,0.2,3.5,4.9,3.8,6.6c0.3,1.7-1.9,1.6-1.9,1.6
			s0,2.2-0.6,3.2c-0.5,1-2.8,1-3.2,1.4c-0.4,0.3,0.2,2,0.1,2.7s-1,0.6-1.2,1.9s2.2,4.3,2.3,4.9c0.1,0.6-0.9,1.2-1.1,2.6
			c-0.1,1.3,3.1,7.5,2.8,8.1s-3.1,0.7-3.2,2s2.8,4.5,3.1,5.9c0.2,1.4-1.9,3.8-1.8,4.4c0.1,0.6,1.2,2.8,1.2,2.8s3.9,0.9,4.2,1.6
			c0.4,0.7-1,3.3-1,3.3l1.1,1.9c0,0,3.6,0.4,4.1,1.4s-1.2,3.2-1.2,3.2l0.7,2.3c0,0,2.5,0.3,3,1.1s-1.4,3.9-1.4,3.9s0.9,1.4,1.4,2.2
			c0.4,0.8,4.7,1.6,5,2c0.2,0.5-0.5,2-0.5,2s1,1.9,1.3,2.2c0.4,0.3,1.2,0.3,1.2,0.3s0.2,1.3,0.3,1.6s-1.8,3-1.8,3s2.6,2.2,2.8,2.7
			c0.2,0.5-4.1,7-5.9,7.3c-1.7,0.3-6.7-1.6-8.3-2.9c-1.6-1.2-23.3-43.3-23.4-43.6c-0.1-0.4,0.2-0.9,0.2-1.3c0-0.4-0.9-2.3-1.2-2.5
			c-0.4-0.2-0.4,0.1-0.8,0.1c-0.4,0.1-0.4-0.6-0.6-0.8c-0.1-0.3-2.1,1-3.3,1.2c-1.1,0.2-3.8-8.8-5.5-8c-1.7,0.8-2.4-0.8-3.1-2
			c-0.7-1.2-1.3-4.2-2.9-3.9c-1.6,0.3-5-4.4-5.6-4.9c-0.5-0.5-3.2,1.3-4.3,1.6c-1.2,0.4-3.9-0.8-5.3-4.7s2.1-2.1,1.5-3.8
			s-0.2-2.3,0.3-2.8s2.7-1,2.7-1s-1.4-2.5,0.8-3.3c2.3-0.8,2.7-1.3,2.9-2c0.3-0.7-0.3-0.7-0.4-1.3c-0.1-0.5,0.9-11.8,0.9-11.8
			C191.8,119.5,202.5,116.3,203.9,116.3z M196.1,123.1c-1.9,2.3-3.1,12-0.9,13.3c2.2,1.3,19-3.7,19.5-5.9c0.5-2.2-10.2-9.5-12.1-9.6
			C200.6,120.8,197.4,121.4,196.1,123.1z"/>
		<path class="st2" d="M214.7,164.3c0,0-2.1-11.2-1.2-11.3s33,60.2,33.7,61.8c0.7,1.6,0.7,1.6,0.7,1.6l-1.7,1.2l-3.7-0.7
			L214.7,164.3z"/>
	</g>
	<ellipse transform="matrix(0.269 -0.9631 0.9631 0.269 11.4708 264.4632)" class="st3" cx="180" cy="124.7" rx="6.8" ry="25.8"/>
	<path class="st1" d="M190.8,120.1l-0.5,6l4.3,0.7c0,0,0.9-3.9,2.6-4.6S190.8,120.1,190.8,120.1z"/>
</g>
<g id="Layer_6">
	<path class="st4" d="M322.8,18.6c10.2,21-12.9,56.4-51.7,79.1s-78.5,24.1-88.7,3.1c-10.2-21,12.9-56.4,51.7-79.1
		S312.6-2.4,322.8,18.6z M188.7,90.4c-3.1,0.6-5.1,3.8-4.6,7.2c0.5,3.4,3.5,5.6,6.5,5.1c3.1-0.6,5.1-3.8,4.6-7.2
		C194.7,92.1,191.8,89.8,188.7,90.4z"/>
	
		<ellipse transform="matrix(0.4465 -0.8948 0.8948 0.4465 5.3406 225.0252)" class="st3" cx="184.6" cy="108.2" rx="13.8" ry="4.2"/>
	<path class="st4" d="M181.1,97.5l2.9-0.6c0,0,0.3,4.2,3.4,5.3l-2.7,2.5c0,0-0.9-1.5-2.1-3.4C181.8,99.8,181.1,97.8,181.1,97.5z"/>
</g>
<g id="Layer_3">
	<g>
		<ellipse class="st5" cx="49.8" cy="151.3" rx="7.8" ry="6.6"/>
		
			<ellipse transform="matrix(0.2498 -0.9683 0.9683 0.2498 -109.5317 169.4279)" class="st5" cx="54.6" cy="155.4" rx="4.4" ry="5.3"/>
		<ellipse transform="matrix(0.5 -0.866 0.866 0.5 -86.6631 164.9725)" class="st5" cx="99.5" cy="157.5" rx="7" ry="2.4"/>
		<circle class="st3" cx="96.3" cy="164.5" r="5.1"/>
		<circle class="st3" cx="103.5" cy="149.9" r="5.1"/>
		<ellipse transform="matrix(0.5637 -0.826 0.826 0.5637 -28.9649 179.5582)" class="st3" cx="155.5" cy="117.2" rx="6" ry="2.4"/>
		<path class="st6" d="M148.2,115.8c0,0-2.9-3.8-4.7-3.4s-2.9,3.4-2.9,3.4s-3.5-1.6-5.9-1.2s-5.5,1.2-5.5,1.2s-2.5-0.3-3.6-1.2
			s-7.2-6.8-9.9-6.4c-2.7,0.4-6.8,0.3-6.5,5.9c0.3,5.6,6.4,11.2,11.3,11.1l-0.7,4.3c0,0-21,4.5-18.2,13.8s20.5-1.7,20.5-1.7l1.3,0.9
			c0,0-12.2,18.1-3.5,21.1c8.7,3,14.3-14.6,14.3-14.6l1.4-1.2c0,0-0.4,7.7,1.6,11.5c2,3.8,5.1,4.2,6.3,4s7.6-1.7,5.7-8.7
			c-1.8-7-4.6-10.8-4.6-10.8s2.2-2.1,3.3-4.6c1-2.5,1.6-6.1,1.6-6.1s2.4-0.3,3.1-1.4c0.7-1.2,1.4-4.6,1.4-4.6L148.2,115.8z"/>
		<path class="st7" d="M167.5,96.9c0,10.1-8.5,18.2-19,18.2c-10,0-18.1-7.3-19-16.6c-1.1,0.5-2.5,0.9-4.1,0.9
			c-7.4,0.1-9.3-11.3-8.7-14.5c0.5-3.1,3.1-8.7,10-8.3c6.9,0.4,7.4,8.3,7.4,8.3c3-3.3,7.3-5.6,12.1-6.1c0,0-6.1-3-5.6-8.9
			c0.5-5.9,6.5-10.9,13.3-7.8c6.8,3.1,10.5,10.4,8.6,14.6c-1.9,4-7.2,3.1-7.7,3C162.3,82.2,167.5,89,167.5,96.9z"/>
		<path class="st8" d="M68,129.4c0,0-4.8,2.7-9.4,8.4S53.4,148,53.4,148s1.4,1.7,2.9,2.5c1.5,0.8,4.1,1.4,4.4,2
			c0.3,0.6-0.8,3.7-1,4.5c-0.2,0.8-0.4,2.9-0.4,2.9s-2.2,0.4-3.8,0.6c-1.5,0.2-4.5,1.2-4.5,1.2s-2.8,4-0.8,12.1
			c2,8.1,5.8,10.4,6.3,10.4s7.2-3.6,7.2-3.6s5.7,8,13.5,7.8c7.7-0.1,11.4-2.9,13.2-4.1c1.8-1.2,4.9-5.3,4.9-8.2
			c0.1-2.9-0.4-8.7-0.9-11.5c-0.5-2.8-1.2-4.3-1.2-4.3s7-8.2,7-12.1c0-4-2.9-9.1-6.8-11.3c-4-2.2-6.7-3.6-10.6-3.2s-8.5,3.2-8.5,3.2
			s-2.1-3.7-3.4-4.8C69.7,130.9,68,129.4,68,129.4z"/>
		<path class="st9" d="M15.3,118.6c0,0-0.4-1.3-1.9-1.1s-1.8,0.3-1.8,1.1s0,52.3,0,52.3s1.3,1.1,1.8,0.8c0.6-0.2,1.8-1.2,1.8-1.2
			s3.7,3.8,9,3.7c5.3-0.1,11.4-5.6,11.4-7.4c0,0,4.1-0.4,4.9-2.5s1.8-9,1.5-12.6c-0.3-3.7-1.7-14.3-2.8-15.7
			c-1.2-1.4,1.2-6.6,1.2-9.3s1.6-17.5-11.4-17S15.3,118.6,15.3,118.6z"/>
		<path class="st7" d="M124.9,131.5c0,0,1.2-1.7,3-2.3c1.8-0.6,3.3-0.8,3.3-0.8S129.9,131.5,124.9,131.5z"/>
		<path class="st7" d="M129.3,137c0,0,0.4-2,1.8-3.3c1.4-1.3,2.7-2.1,2.7-2.1S133.8,134.9,129.3,137z"/>
		<path class="st7" d="M134.3,140.4c0,0,0.1-2.1,1.4-3.5c1.2-1.5,2.4-2.4,2.4-2.4S138.6,137.8,134.3,140.4z"/>
	</g>
</g>
<g id="Layer_7">
	<g>
		<path class="st10" d="M230.8,59.3l-0.1,0.1c-0.4-0.4-1.6-1-2.1-0.8c-0.3,0.1-0.6,0.3-0.9,0.5l-0.6,0.4l3.8,5.9
			c0.1,0.2,0.3,0.3,0.6,0.3c0.2,0,0.7-0.3,0.9-0.4l0.1,0.1l-3.1,2l-0.1-0.1c0.2-0.1,0.7-0.5,0.8-0.6c0.2-0.2,0.1-0.5,0-0.7l-3.9-5.9
			l-0.6,0.4c-0.2,0.1-0.6,0.4-0.8,0.6c-0.4,0.3-0.3,1.7-0.1,2.2l-0.1,0.1l-1.1-1.7l6.2-4L230.8,59.3z"/>
		<path class="st10" d="M242.6,58.9l-2.9,1.9l-0.1-0.1c0.2-0.1,0.6-0.4,0.7-0.6c0.2-0.2,0.1-0.5,0-0.7l-1.8-2.8l-3.7,2.4l1.8,2.7
			c0.1,0.2,0.3,0.3,0.6,0.3c0.2,0,0.6-0.2,0.8-0.3l0.1,0.1l-2.9,1.9l-0.1-0.1c0.2-0.1,0.5-0.4,0.6-0.5c0.2-0.2,0.1-0.5,0-0.7
			l-3.5-5.4c-0.1-0.2-0.3-0.3-0.6-0.3c-0.2,0-0.6,0.2-0.8,0.3l-0.1-0.1l2.9-1.9l0.1,0.1c-0.2,0.1-0.5,0.4-0.6,0.6
			c-0.2,0.2-0.1,0.5,0,0.7l1.6,2.4l3.7-2.4l-1.6-2.4c-0.1-0.2-0.3-0.3-0.6-0.3c-0.2,0-0.6,0.2-0.8,0.3l-0.1-0.1l2.9-1.9l0.1,0.1
			c-0.2,0.1-0.5,0.4-0.6,0.6c-0.2,0.2-0.1,0.5,0,0.7l3.5,5.4c0.1,0.2,0.3,0.3,0.6,0.3c0.2,0,0.6-0.2,0.8-0.3L242.6,58.9z"/>
		<path class="st10" d="M248.7,52.2l1.1,2l-5.7,3.7l-0.1-0.1c0.2-0.1,0.6-0.5,0.7-0.6c0.2-0.2,0.1-0.5,0-0.7l-3.5-5.4
			c-0.1-0.2-0.3-0.4-0.6-0.3c-0.2,0-0.7,0.2-0.9,0.3l-0.1-0.1l5.3-3.5l1,1.5l-0.2,0.1c-0.4-0.4-1.4-0.9-1.8-0.6
			c-0.3,0.1-0.5,0.3-0.9,0.5l-1.4,0.9l2,3l1-0.6c0.6-0.4,0.6-0.7,0.6-0.9c0.1-0.2-0.2-0.8-0.3-1.1l0.2-0.1l1.8,2.8l-0.2,0.1
			c-0.2-0.3-0.7-0.7-0.9-0.8c-0.2-0.1-0.5-0.1-1,0.2l-1,0.6l1.5,2.3c0.5,0.8,0.8,0.8,1.8,0.1c0.7-0.5,1.6-1,1.6-1.4
			c0.1-0.5-0.1-1.6-0.2-2L248.7,52.2z"/>
	</g>
	<g>
		<path class="st10" d="M228.2,83.4c0.7,5.1-0.3,11.3-7,15.5c-8.7,5.4-18.2,3.4-23.9-5.7c-5.5-8.8-3.1-19.6,5.7-25.2
			c2.4-1.5,6-2.2,8.1-1.9l0-3l1.8-1.1l6.8,10.4l-1.1,0.7c-4.7-3.9-10.5-6.5-16.2-3c-4.5,2.8-6.2,9.8-0.1,19.4
			c4.8,7.7,12.9,9.9,18.7,6.3c5.4-3.4,6.2-7.6,5.6-12.4L228.2,83.4z"/>
	</g>
	<g>
		<path class="st10" d="M245,83.4l-5.7,3.6l-0.2-0.4c0.6-0.4,1.7-1.4,1.4-1.8c-0.1-0.1-0.2-0.2-0.3-0.3l-2.8-1.9l-4.4,2.8
			c0.1,1,0.3,1.7,0.4,2.3c0.1,0.4,0.2,0.8,0.4,1.1c0.4,0.6,2,0,2.6-0.4l0.2,0.4l-5,3.2l-0.2-0.4c0.3-0.2,0.8-0.7,1.1-1.1
			c0.3-0.5,0.3-1.2,0.2-2c-0.5-3.7-1.3-8.2-2-12.2l0.7-0.4c4.6,3.1,9,6.2,10.7,7.4c0.4,0.2,0.7,0.4,1.3,0.3c0.4,0,1-0.3,1.4-0.5
			L245,83.4z M236.8,82.2l-5-3.4l1,5.9L236.8,82.2z"/>
		<path class="st10" d="M257.3,72.3c1,1.6,0.8,3-0.8,4c-1.4,0.9-2.7,0.4-4.2-1.3c-1-1.2-2.3-2.6-4.4-1.3l-1.4,0.9l2.7,4.2
			c0.2,0.4,0.6,0.6,1.1,0.5c0.3-0.1,1.1-0.5,1.4-0.7l0.2,0.4l-5.6,3.6l-0.2-0.4c0.3-0.2,1-0.8,1.2-1c0.3-0.4,0.3-0.8,0-1.2l-5.5-8.6
			c-0.2-0.4-0.6-0.6-1.1-0.5c-0.4,0.1-1.1,0.4-1.4,0.6l-0.2-0.4l6.3-4c1.8-1.2,4.3-1.7,5.5,0.1c1.2,1.8-0.4,3.9-1.5,5l0.1,0.2
			c0.9-0.5,2.7-1,3.8,0c0.9,0.7,1.5,1.5,2.2,2.2c0.7,0.6,1.1,0.4,1.4,0.2c0.5-0.3,0.6-1.1-0.1-2.2l-0.2-0.2l0.5-0.3L257.3,72.3z
			 M248.8,69c-1.2-1.9-2.8-1.7-4.1-0.8l-1.6,1l3.1,4.9l1.1-0.7C248.9,72.4,250,70.9,248.8,69z"/>
		<path class="st10" d="M269.3,59.8c1.1,1.7,1.5,3.6,1,5.6c-0.5,1.8-1.6,3.3-3.5,4.5c-1.6,1-3.5,1.4-5.3,1.2c-1.8-0.3-3.5-1.2-4.6-3
			c-1.2-1.8-1.5-3.6-1-5.5c0.5-1.9,1.7-3.5,3.5-4.6c1.7-1.1,3.6-1.5,5.7-1.2C266.6,57.1,268.2,58.2,269.3,59.8z M267.1,61.2
			c-1.7-2.7-4.6-4.7-7.6-2.8c-2.6,1.6-2.8,4.7-0.6,8.1c1.9,3,4.8,4.6,7.6,2.8C269.3,67.6,269.1,64.3,267.1,61.2z"/>
		<path class="st10" d="M283.8,54.1l1.8,3.4L275.3,64l-0.2-0.4c0.3-0.2,1-0.8,1.2-1c0.3-0.4,0.3-0.8,0-1.2l-5.4-8.5
			c-0.2-0.4-0.5-0.6-1.1-0.5c-0.4,0.1-1.2,0.3-1.5,0.5l-0.2-0.4l5.6-3.6l0.2,0.4c-0.3,0.2-0.9,0.8-1.2,1.1c-0.4,0.4-0.3,0.8,0,1.2
			l5.1,8c0.9,1.4,1.2,1.4,3.1,0.2c1-0.7,2.2-1.5,2.4-2.1c0.2-0.8,0.3-2.7,0.1-3.4L283.8,54.1z"/>
		<path class="st10" d="M293.3,52.6l-5.7,3.6l-0.2-0.4c0.3-0.2,1-0.8,1.2-1c0.3-0.4,0.3-0.8,0-1.2l-5.5-8.6
			c-0.2-0.4-0.5-0.6-1.1-0.4c-0.4,0.1-1.2,0.3-1.5,0.5l-0.2-0.4l5.7-3.6l0.2,0.4c-0.3,0.2-0.9,0.7-1.2,1.1c-0.4,0.4-0.3,0.8,0,1.2
			l5.5,8.6c0.2,0.4,0.5,0.5,1.1,0.4c0.3-0.1,1.1-0.4,1.5-0.6L293.3,52.6z"/>
		<path class="st10" d="M302.2,31.4c-0.3,0.2-1.2,1.1-1.4,1.5c-0.3,0.6,0.1,1.5,0.8,2.6l5.4,8.5l-0.7,0.4l-14.1-4.3l3.9,6.1
			c0.8,1.3,1.5,1.8,2.1,1.9c0.5,0,1.9-0.5,2.2-0.6l0.2,0.4l-5.4,3.4l-0.2-0.4c0.3-0.2,1.3-1.3,1.4-1.5c0.3-0.6,0-1.4-0.9-2.7
			l-3.7-5.9c-0.3-0.5-0.9-0.9-1.4-1c-0.6,0-1.9,0.2-2.4,0.5l-0.2-0.4l3.7-2.4l13.1,4l-3.6-5.7c-0.8-1.2-1.5-1.9-2-1.9
			c-0.5,0-1.7,0.4-2.2,0.7l-0.2-0.4L302,31L302.2,31.4z"/>
		<path class="st10" d="M319.6,31.3l1.8,3.4l-10.7,6.8l-0.2-0.4c0.3-0.2,1.1-0.8,1.3-1.1c0.3-0.4,0.3-0.8,0-1.2l-5.4-8.5
			c-0.2-0.4-0.5-0.6-1.1-0.5c-0.4,0.1-1.3,0.4-1.6,0.6l-0.2-0.4l9.9-6.3l1.6,2.6l-0.5,0.3c-0.7-0.6-2.4-1.2-3.2-0.8
			c-0.5,0.2-1,0.5-1.5,0.9l-2.1,1.4l3.1,4.8l1.6-1c1-0.6,1.1-1.1,1.2-1.5c0.1-0.4-0.2-1.4-0.4-1.9l0.5-0.3l3,4.7l-0.5,0.3
			c-0.3-0.5-1.2-1.2-1.6-1.3c-0.4-0.1-0.9-0.2-1.8,0.4l-1.6,1l2.3,3.7c0.9,1.4,1.3,1.3,3.1,0.1c1.3-0.8,2.5-1.6,2.7-2.3
			c0.2-0.9,0.1-2.6,0-3.3L319.6,31.3z"/>
	</g>
</g>
</svg>
