<?xml version="1.0" encoding="utf-8"?>
<!-- Generator: Adobe Illustrator 22.0.1, SVG Export Plug-In . SVG Version: 6.00 Build 0)  -->
<svg version="1.1" xmlns="http://www.w3.org/2000/svg" xmlns:xlink="http://www.w3.org/1999/xlink" x="0px" y="0px"
	 viewBox="0 0 360 360" style="enable-background:new 0 0 360 360;" xml:space="preserve">
<style type="text/css">
	.st0{fill:#364F42;}
	.st1{fill:#CDC583;}
	.st2{fill:none;stroke:#CDC583;stroke-miterlimit:10;}
	.st3{font-family:'YuKyo_Yoko-Bold-83pv-RKSJ-H';}
	.st4{font-size:20.1554px;}
	.st5{font-size:20.1011px;}
	.st6{font-size:16.1294px;}
</style>
<g id="Layer_1">
	<path class="st0" d="M60.9,343.3c0,0,3.5-321.3,3.8-323.9c0.2-2.6,229.2-9.7,231.1,0.2c3.2,17,17.4,312.2,9.7,321.7
		C297.8,350.8,60.9,343.3,60.9,343.3z"/>
</g>
<g id="Layer_2">
	<path class="st1" d="M129.8,62.8c1.8-0.2,3.4-0.3,4.8-0.4c1.3-0.1,1.6-0.3,2-0.5c0.4,0.1,0.9,0.3,1.5,0.7c0.7,0.4,1.1,0.8,1.1,1.1
		c0,0.2-0.1,0.5-0.3,0.7c-0.2,0.2-0.3,0.6-0.5,1c-0.4,1.1-0.7,2.2-1.1,3.3c0.4,0.3,0.7,0.6,0.7,0.9c0,0.4-0.3,0.8-1.2,0.8
		c-2.4,0.1-4.6,0.2-6.7,0.4l0.2,6.3c0.1,2.2-0.4,3.1-1.1,3.2c-0.6,0-1.3-0.9-1.3-3.1l-0.2-6.2c-1.6,0.2-3.3,0.3-4.9,0.5
		c0,0.8-0.5,1.2-1,1.2c-0.5,0-1-0.4-1.4-1.4c0-0.7-0.2-1.7-0.5-3.3c-0.5-2.5-0.7-3.1-1-3.7c-0.1-0.2-0.2-0.5-0.2-0.7
		c0-0.2,0.1-0.3,0.3-0.3c0.3,0,1.1,0.1,1.9,0.5c2.2-0.3,4.4-0.5,6.6-0.8l-0.1-1.9c0-1.4-0.3-2.5-0.5-3.1c-0.1-0.1-0.1-0.2-0.1-0.3
		c0-0.2,0.1-0.3,0.5-0.3c0.6,0.1,1.6,0.3,2.2,0.6c0.6,0.2,0.7,0.5,0.7,0.7c0,0.2-0.1,0.4-0.2,0.7c-0.2,0.4-0.3,0.8-0.2,2.1
		L129.8,62.8z M127.4,64.9c-2.2,0.3-3.9,0.5-5.6,0.7l0.6,4.1c1.7-0.2,3.4-0.4,5.1-0.6L127.4,64.9z M129.9,68.9
		c1.7-0.1,3.3-0.3,5-0.4c0.4-1.5,0.6-3,0.8-4.2c-1.9,0.1-3.8,0.2-5.8,0.4L129.9,68.9z"/>
	<path class="st1" d="M161.6,72.9c-1.6,0.2-3.5,0.4-5.4,0.7c-0.2,0-0.3,0-0.6-0.2c-0.7-0.6-1-0.9-1-1.1s0.1-0.3,0.5-0.3
		c0.7-0.1,1.3-0.1,1.9-0.2c-0.1-0.7-0.2-1.3-0.3-2c-1.2,0.2-2.5,0.4-3.8,0.7c-0.3,0-0.4,0-0.7-0.2c-0.8-0.7-1-0.9-1-1.1
		c0-0.2,0.1-0.3,0.5-0.3c1.6-0.3,3.2-0.5,4.7-0.7l-0.1-0.4c-0.2-0.7-0.2-1-0.4-1.3c-0.1-0.1-0.1-0.2-0.1-0.2c-0.3,0-0.4,0-0.7-0.2
		c-0.5-0.5-1-1-1-1.1c0-0.1,0.1-0.2,0.4-0.2c2.2-0.2,6.5-0.7,9.6-1.1c-0.2,0-0.4-0.3-0.4-0.6l0-0.2c0-0.3,0.1-0.6,0.2-1
		c-1.3,0.1-2.5,0.2-3.8,0.4l0.1,0.8c0,0.6-0.3,1-0.7,1c-0.4,0-0.8-0.2-1-0.8c-0.1-0.3-0.2-0.5-0.3-0.8c-1.3,0.2-2.7,0.4-4.1,0.7
		c-0.3,0-0.4,0-0.7-0.2c-0.5-0.6-1-1.1-1-1.3c0-0.2,0.1-0.3,0.4-0.3c1.8-0.2,3.3-0.4,4.8-0.6c-0.1-0.2-0.1-0.3-0.2-0.5
		c-0.2-0.6-0.3-0.8-0.6-1.1c-0.3-0.3-0.3-0.4-0.3-0.5c0-0.1,0.3-0.3,0.5-0.3c0.6,0,1.2,0,1.8,0.2c0.6,0.2,0.8,0.4,0.8,0.7
		c0,0.2,0,0.4,0,0.5c0,0.1,0,0.3,0.1,0.8c0.3,0,0.5-0.1,0.8-0.1c1.2-0.1,2.4-0.2,3.5-0.4c0.1-0.7,0.1-1,0.1-1.2
		c0-0.2-0.1-0.5-0.2-0.8c-0.1-0.2-0.2-0.4-0.2-0.5s0.1-0.3,0.4-0.3c0.4,0,1.2,0.2,2.2,0.8c0.3,0.2,0.4,0.3,0.4,0.5
		c0,0.2-0.1,0.5-0.2,0.6c-0.1,0.1-0.2,0.3-0.2,0.5c0.5,0,0.9-0.1,1.3-0.1c0.8-0.1,1.2-0.3,1.6-0.5c1.6,0.3,2.5,1,2.6,1.6
		c0,0.4-0.3,0.7-0.9,0.7c-0.9,0-1.7,0-3.2,0c-0.6,0-1.3,0.1-2.1,0.1c-0.2,0.5-0.5,1-0.6,1.3c-0.2,0.3-0.4,0.5-0.6,0.6
		c0.7-0.1,1.4-0.2,1.9-0.2c0.5-0.1,0.8-0.2,1.4-0.5c1.7,0.2,2.4,0.8,2.4,1.5c0,0.4-0.2,0.6-0.9,0.6c-0.4,0-0.8,0.1-1.3,0.1
		c0.1,0,0.3,0.1,0.4,0.2c0.5,0.2,0.8,0.5,0.8,0.8c0,0.2,0,0.3-0.1,0.5c0,0.1-0.1,0.2-0.1,0.5l0.6,0c0.7,0,1.2-0.2,1.6-0.4
		c2,0.3,2.7,1,2.7,1.6c0,0.4-0.3,0.6-0.9,0.6c-1.1,0-2.2,0-4.3,0l-0.2,0c-0.1,0.5-0.2,0.9-0.5,2c0.4,0,0.7-0.2,1.1-0.4
		c1.4,0.4,2,0.8,2.1,1.4c0,0.4-0.3,0.6-0.9,0.7c-0.9,0.1-1.9,0.1-2.5,0.1c-1,0.1-2.5,0.2-4.1,0.3l0,1.4c1.9-0.2,3.5-0.3,4.9-0.4
		c0.7,0,1.2-0.2,1.6-0.4c2,0.3,2.7,0.9,2.7,1.5c0,0.4-0.3,0.7-0.9,0.7c-1.1,0-2.2,0-4.3,0.1c-0.8,0-2.2,0.1-4.1,0.3l0.1,2.3
		c0.1,1.6-0.4,2.7-1,2.7c-0.6,0-1.1-1-1.1-2.6l-0.1-2.2c-2,0.2-4.4,0.5-7,1c-0.3,0-0.4,0-0.6-0.2c-0.8-0.6-1-1-1-1.2
		c0-0.2,0-0.2,0.5-0.3c3.3-0.5,5.9-0.8,8.2-1.1L161.6,72.9z M161.4,67c0-0.6-0.1-1-0.4-1.5c-1.4,0.2-2.6,0.3-4,0.5
		c0.3,0.1,0.5,0.2,0.8,0.3c0.5,0.2,0.7,0.5,0.7,0.8l0,0.7c0.9-0.1,1.9-0.3,2.9-0.4L161.4,67z M161.5,69.1c-0.8,0.1-1.9,0.2-2.8,0.4
		l0.1,2.1l2.8-0.3L161.5,69.1z M166.8,66.9c0-0.5,0.1-0.8,0-0.9c0-0.3-0.1-0.7-0.2-1c-1.3,0.1-2.7,0.3-4.1,0.4
		c0.2,0.1,0.4,0.1,0.6,0.2c0.5,0.2,0.6,0.3,0.6,0.5c0,0.2,0,0.2-0.1,0.4c-0.1,0.2-0.2,0.4-0.2,0.7C164.6,67.1,166.1,66.9,166.8,66.9
		z M163.6,71c1.1-0.1,2-0.2,2.8-0.3l0.2-2.1c-1,0.1-2,0.2-3.1,0.3L163.6,71z"/>
	<path class="st1" d="M189.9,64.1c0-0.7-0.1-1.3-0.2-1.9c-0.2,0-0.3-0.1-0.4-0.2c-0.7-0.7-0.9-1-0.9-1.2c0-0.2,0.1-0.2,0.4-0.2
		c4.6-0.6,8.6-1.1,12.1-1.5c0.8-0.1,0.9-0.1,1.4-0.4c0.2,0,0.8,0.3,1.5,0.7c0.6,0.3,0.9,0.7,1,0.9c0,0.2-0.1,0.4-0.3,0.7
		c-0.2,0.2-0.3,0.4-0.5,0.9c-0.2,0.5-0.3,0.9-0.5,1.3c0.5,0.3,0.8,0.6,0.8,0.9c0,0.5-0.4,0.7-1.1,0.8c-1.8,0.1-3.8,0.3-5.7,0.5
		c0.3,0.1,0.7,0.1,1,0.2c0.5,0.2,0.7,0.4,0.7,0.8c0,0.3,0.1,0.8,0.3,1.3c1.3-0.2,2.5-0.3,3.4-0.5c0.7-0.1,1.1-0.2,1.7-0.5
		c1.6,0.2,2.4,0.8,2.5,1.5c0,0.5-0.4,0.7-1.1,0.7c-1.9,0.1-3.8,0.3-5.7,0.5c0.5,1.2,1.2,2.4,2.2,3.6c1.3,1.6,2.9,3,5,4
		c0.3-0.6,0.6-1.5,0.8-2.2c0.1-0.3,0.2-0.5,0.4-0.5c0.2,0,0.3,0.2,0.4,0.5c0.3,1.1,0.6,3.1,0.6,4.1c0,0.6-0.4,0.9-0.8,0.9
		c-0.3,0-1-0.1-1.4-0.3c-2.9-1.2-5-3.1-6.7-5.3c-1.3-1.6-2.1-3.2-2.8-4.6c-2,0.2-3.9,0.5-5.8,0.8l0.1,5.8c2-0.9,4.2-2.1,5.7-3.2
		c0.1-0.1,0.2-0.1,0.3-0.1c0.2,0,0.4,0.1,0.4,0.3c0,0.1,0,0.2-0.1,0.4c-1.5,1.8-3.7,3.7-6.1,5.3c-0.2,0.2-0.3,0.3-0.5,0.4
		c-0.1,0.1-0.3,0.2-0.5,0.2c-0.2,0-0.5-0.1-0.9-0.7c-0.7-0.8-0.8-1.2-0.8-1.4c0-0.2,0.1-0.3,0.1-0.5c0.2-0.3,0.3-0.5,0.3-1.3
		L189.9,64.1z M192.2,68.7c1.7-0.2,3.4-0.5,5.2-0.7c-0.5-1-0.7-1.5-0.9-1.7c-0.2-0.3-0.3-0.5-0.3-0.6c-1.3,0.2-2.7,0.4-4,0.5
		L192.2,68.7z M192.1,64.4c3.1-0.5,5.8-0.8,8.3-1.1c0.4,0,0.8-0.1,1.1-0.2c0.1-0.8,0.2-1.5,0.3-2.3c-2.9,0.2-6.4,0.6-9.7,1.1
		c0.1,0.1,0.2,0.2,0.2,0.4c0,0.2,0,0.3-0.1,0.5c0,0.2-0.1,0.5-0.1,0.8L192.1,64.4z"/>
	<path class="st1" d="M239.4,77.9c-4.6,0.2-9.2,0.4-13.7,0.9c0,0.8-0.4,1.1-0.9,1.1c-0.7,0-1.3-0.9-1.6-2.6c0.1-0.6,0.3-1-0.1-13.2
		c-0.1-3.4-0.2-4.5-0.5-5.2c-0.1-0.3-0.2-0.5-0.2-0.8c0-0.1,0.2-0.3,0.4-0.3c0.4,0,1,0.2,1.9,0.7c5.6-0.6,10.1-1,14.1-1.3
		c1.3-0.1,1.8-0.3,2.2-0.5c0.7,0.2,1.3,0.5,1.9,1c0.8,0.6,1.1,1,1.1,1.3c0,0.3-0.1,0.4-0.3,0.8c-0.2,0.4-0.3,0.8-0.2,1.8
		c0.1,4.1,0.3,9.5,0.5,14.5c0.1,2.2-0.5,2.8-1.4,2.9c-0.4,0-1-0.5-1.3-1.2L239.4,77.9z M225.6,77c5.3-0.5,10.6-0.8,16-1.1l-0.6-17
		c-3.8,0.1-10.5,0.7-15.8,1.4L225.6,77z M227.4,72.7c2.2-0.5,4.1-1.2,6.4-2c0.1,0,0.2,0,0.2,0c0.2,0,0.4,0.1,0.4,0.2
		c0,0.1-0.1,0.3-0.3,0.4c-1.7,1.2-3,1.9-5.4,3.1c-0.4,0.3-0.7,0.4-0.9,0.4c-0.3,0-0.6-0.2-1.2-0.9c-0.4-0.4-0.5-0.7-0.5-0.9
		c0-0.2,0.1-0.3,0.3-0.3C226.9,72.8,227.2,72.8,227.4,72.7z M228.4,71.7c-0.4,0-0.8-0.3-1-1c-0.2-1.4-0.4-2.7-0.6-3.3
		c-0.1-0.4-0.2-0.6-0.3-0.8c-0.1-0.2-0.1-0.3-0.1-0.4c0-0.1,0.1-0.2,0.3-0.2c0.2,0,0.9,0.2,1.4,0.4c1.1-0.2,2-0.4,2.6-0.5
		c0.2-0.1,0.6-0.2,0.8-0.4c0.3,0,0.6,0.1,1.1,0.4c0.6,0.3,0.7,0.5,0.7,0.7c0,0.1-0.1,0.3-0.2,0.5c-0.1,0.1-0.1,0.3-0.2,0.5
		c-0.2,0.5-0.3,1.2-0.5,1.8c0.3,0.1,0.5,0.3,0.5,0.5c0,0.4-0.2,0.5-0.9,0.5c-0.9,0.1-1.9,0.2-3,0.4
		C229.1,71.3,228.8,71.6,228.4,71.7z M234.5,62.4c0.6-0.1,0.9-0.2,1.3-0.5c1.3,0.1,2.2,0.6,2.2,1.1c0,0.4-0.2,0.5-0.9,0.6
		c-0.9,0.1-1.7,0.2-2.5,0.3c0.5,1.6,0.9,2.8,2,4.7c0.3-0.7,0.8-1.8,1-2.7c0.1-0.5,0.1-0.7,0.1-1.1c0-0.2,0-0.4,0-0.5
		c0-0.2,0.2-0.2,0.3-0.2c0.3,0,0.7,0.2,1.3,0.6c0.6,0.5,0.7,0.7,0.7,1c0,0.1-0.1,0.4-0.3,0.6c-0.1,0.1-0.3,0.3-0.4,0.7
		c-0.4,1.2-1,2.3-1.7,3.3c0.4,0.6,0.9,1.2,1.6,1.8c0.4-0.7,0.6-1.2,0.8-1.7c0.1-0.2,0.2-0.3,0.3-0.3c0.2,0,0.3,0.1,0.4,0.5
		c0,0.4,0.1,0.7,0.1,1.1c0,0.8,0,1.5-0.1,2.1c-0.1,0.7-0.3,1-0.7,1c-0.4,0-0.8-0.1-1.5-0.7c-0.7-0.6-1.3-1.2-2-2.3
		c-1,1.1-2.2,2-3.7,2.7c-0.1,0.1-0.2,0.1-0.3,0.1c-0.2,0-0.3-0.1-0.3-0.3c0-0.1,0.1-0.3,0.2-0.5c1.3-1.1,2.3-2.2,3.1-3.5
		c-1.3-2.1-1.9-3.8-2.8-6.2c-1.6,0.3-3.3,0.6-5,1c-0.2,0-0.3-0.1-0.5-0.3c-0.5-0.6-0.7-0.8-0.7-0.9c0-0.1,0-0.2,0.3-0.2
		c2.1-0.4,4-0.7,5.5-0.9c-0.1-0.5-0.2-0.6-0.3-0.9c-0.2-0.4-0.3-0.7-0.6-1c-0.1-0.1-0.1-0.3-0.1-0.4c0-0.2,0.1-0.3,0.6-0.3
		c0.6,0,1.1,0.1,1.7,0.3c0.4,0.1,0.6,0.3,0.6,0.5c0,0.2,0,0.5,0,0.6c0,0.2,0,0.6,0.1,0.9L234.5,62.4z M228.9,69.7
		c0.7-0.1,1.3-0.2,1.9-0.3c0.2-0.9,0.3-1.6,0.3-2.4c-0.9,0.1-1.5,0.2-2.5,0.4L228.9,69.7z M236.7,60.2c0-0.1,0.1-0.2,0.3-0.2
		c0.3,0,1.3,0.3,2.1,0.8c0.8,0.5,1,0.9,1,1.5c0,0.6-0.4,0.8-0.9,0.8c-0.4,0-0.7-0.3-1-0.7c-0.4-0.6-0.9-1.2-1.3-1.8
		C236.8,60.5,236.7,60.3,236.7,60.2z"/>
	<circle class="st2" cx="181.1" cy="154.3" r="31.3"/>
	<circle class="st1" cx="181.1" cy="154.3" r="7.5"/>
	<polygon class="st1" points="172.5,150.4 175.5,146.6 167.6,143.4 	"/>
	<polygon class="st1" points="171.7,155.3 172.5,150.4 164,151.6 	"/>
	<polygon class="st1" points="173.5,159.8 171.7,155.2 164.9,160.5 	"/>
	<polygon class="st1" points="177.3,162.9 173.5,159.8 170.2,167.8 	"/>
	<polygon class="st1" points="182.1,163.7 177.3,162.9 178.4,171.4 	"/>
	<polygon class="st1" points="186.7,161.9 182.1,163.6 187.4,170.4 	"/>
	<polygon class="st1" points="189.7,158.1 186.7,161.9 194.6,165.2 	"/>
	<polygon class="st1" points="190.5,153.2 189.7,158.1 198.2,156.9 	"/>
	<polygon class="st1" points="188.8,148.7 190.5,153.3 197.3,148 	"/>
	<polygon class="st1" points="185,145.6 188.8,148.6 192,140.7 	"/>
	<polygon class="st1" points="180.2,144.9 185,145.6 183.8,137.1 	"/>
	<polygon class="st1" points="175.6,146.7 180.2,144.9 174.9,138.1 	"/>
	<text transform="matrix(0.617 -9.213782e-03 1.493205e-02 0.9999 114.9942 107.959)" class="st1 st3 st4">REPUBLIC OF CHINA</text>
	<text transform="matrix(0.7482 -1.847837e-02 2.469091e-02 0.9997 149.0212 219.9734)" class="st1 st3 st5">TAIWAN</text>
	<text transform="matrix(0.8938 1.295469e-02 -1.449293e-02 0.9999 139.2708 274.5522)" class="st1 st3 st6">PASSPORT</text>
	<path class="st1" d="M152,236.2c-0.1,0.6-0.5,0.8-1.3,0.7c-0.2,0-0.6,0-1.1-0.1c-0.5,0-1.1,0-1.7,0c-0.6,0-1.2,0-1.7,0
		c-0.6,0-1,0-1.3,0.1c-0.6,0-1.1,0.1-1.5,0.1s-0.7,0.1-1,0.1c-0.3,0.1-0.5,0.1-0.6,0.1c-0.2,0-0.3,0.1-0.4,0.1
		c-0.4,0.2-0.7,0.2-0.9,0c-0.2-0.2-0.3-0.6-0.1-1.1c0-0.2,0.2-0.5,0.4-0.8c0.2-0.3,0.5-0.6,0.8-0.8c0.3-0.2,0.5-0.3,0.8-0.3
		c0.3,0,0.4,0,0.5,0.1c0.1,0.1,0.4,0.2,0.9,0.3c0.5,0.1,1.1,0.1,1.8,0.1c1.1,0,2.1-0.1,3-0.1s1.7,0,2.4,0
		C151.8,234.8,152.2,235.3,152,236.2z M160.4,250.6c-1.1,0.6-2.3,1.1-3.5,1.4c-1.2,0.3-2.5,0.5-3.8,0.7c-0.9,0.1-1.6-0.1-2.2-0.6
		c-0.3,0.6-0.7,0.8-1.2,0.7c-0.3-0.1-0.6-0.2-0.9-0.4c-0.6-0.4-2.2-0.5-4.9-0.2c-0.2,0-0.3,0.1-0.3,0.2c-0.1,0.2-0.3,0.3-0.5,0.3
		c-0.3,0-0.5,0-0.7-0.2c-0.4-0.3-0.5-0.8-0.5-1.5c0.1-0.6,0.1-1.2,0.1-2c0-0.8,0-1.6-0.1-2.5c-0.1-1,0.1-1.7,0.5-2.1
		c0.2-0.2,0.4-0.3,0.6-0.3c0.2,0,0.4,0.1,0.6,0.3c0.1,0.2,0.2,0.2,0.3,0.2c0.3-0.1,0.6-0.2,1-0.2c0.4,0,0.8-0.1,1.1-0.1
		c0.4,0,0.7,0,1.1,0s0.7,0.1,0.9,0.2c0.2,0.1,0.3,0.1,0.5,0.1c0.2,0,0.4,0,0.6,0c0.2,0,0.4,0,0.5,0c0.2,0,0.3-0.1,0.3-0.1
		c0.3-0.3,0.6-0.2,0.9,0.2c0.2,0.3,0.4,0.6,0.4,0.9c0,0.3,0,0.8-0.1,1.4c0,0.2-0.1,0.6-0.1,1.1c0,0.6,0,1.2,0,2
		c1.1,0.1,2.1,0,3.2-0.1c1.1-0.1,2.1-0.3,3.2-0.7c0.3-0.1,0.3-0.2,0-0.4c-0.7-0.3-1.3-0.5-1.7-0.7c-0.5-0.2-0.8-0.3-0.9-0.3
		c-0.2-0.1-0.3-0.3-0.3-0.8c0.1-0.2,0-0.3-0.3-0.2c-0.1,0-0.2,0.1-0.4,0.2c-0.4,0.2-0.7,0.2-0.9,0c-0.2-0.2-0.2-0.5,0-1
		c0.1-0.4,0.4-0.8,0.8-1.1s0.9-0.5,1.3-0.4c0.2,0.1,0.4,0.1,0.5,0.2c0.2,0.1,0.3,0.2,0.5,0.2c0.2,0,0.5,0,0.9,0c0.1,0,0.4,0,0.8,0
		c0.4,0,0.9,0,1.5,0c0.5,0,1.1,0,1.6,0.1c0.6,0,1,0.1,1.3,0.1c0.2,0.1,0.4,0.1,0.6,0c0.1,0,0.3-0.1,0.4-0.2c0.3-0.1,0.5-0.2,0.7-0.1
		c0.2,0.1,0.5,0.3,0.9,0.7c0.3,0.3,0.4,0.5,0.4,0.7c0,0.2-0.1,0.4-0.4,0.7c-0.2,0.2-0.5,0.4-0.7,0.6c-0.2,0.2-0.4,0.4-0.7,0.6
		c-0.3,0.2-0.2,0.4,0.1,0.5c1.2,0.3,2.3,0.5,3.4,0.7c1,0.1,1.9,0.2,2.7,0c0.3-0.1,0.5,0,0.6,0.1c0.1,0.1,0,0.4-0.1,0.7
		c-0.5,1.4-1.2,2.2-2,2.5c-0.8,0.3-1.9,0.1-3.3-0.7c-0.3-0.2-0.8-0.4-1.4-0.7c-0.6-0.3-1.3-0.6-2.1-0.9c-0.2-0.1-0.4-0.1-0.5-0.1
		C160.7,250.4,160.6,250.5,160.4,250.6z M157,230.9c0,0.3,0,0.7,0,1.1c0,0.4-0.1,0.8-0.1,1.2c0,0.2,0,0.3,0,0.4
		c0,0.1,0.1,0.2,0.2,0.3c0.2,0.2,0.3,0.3,0.4,0.4c0.1,0.1,0.2,0.1,0.3,0.1c0.5,0.1,1,0.1,1.4,0.2c0.4,0.1,0.7,0.1,0.9,0.2
		c0.3,0.1,0.6,0.1,0.8,0.1c0.2,0,0.5,0,0.8-0.1c0.5-0.1,0.9,0.1,1.1,0.6c0.2,0.5,0,0.9-0.4,1.1c-0.2,0.1-0.3,0.1-0.3,0.2
		c0,0.1,0,0.1,0.1,0.1c0.6,0,1.3,0,1.9,0c0.7,0,1.3,0,2.1,0c0.7,0,0.9,0.3,0.6,1c0,0.1-0.2,0.2-0.3,0.3c-0.2,0.1-0.4,0.1-0.6,0.1
		c-0.6,0-1.1,0-1.6,0c-0.5,0-1.1,0-1.7,0c-0.2,0-0.3,0.1-0.3,0.4c0,0.2,0.1,0.3,0.3,0.3c0.4,0,0.8,0,1.2,0c0.4,0,0.9,0,1.3,0
		c0.7,0,0.9,0.3,0.6,0.8c-0.1,0.1-0.2,0.2-0.3,0.3c-0.1,0.1-0.3,0.1-0.6,0.1c-0.4,0-0.7,0-1.1,0c-0.4,0-0.7,0-1.1,0
		c-0.1,0-0.2,0-0.2,0.1c0,0.1-0.1,0.2-0.1,0.4c0,0.3,0.1,0.4,0.2,0.4c0.4,0,0.8,0,1.2,0c0.4,0,0.8,0,1.3,0c0.4,0,0.6,0.1,0.7,0.2
		c0.1,0.1,0,0.3-0.1,0.6c-0.1,0.2-0.5,0.3-1,0.3c-0.4,0-0.7,0-1-0.1c-0.3,0-0.7,0-1,0c-0.2,0-0.3,0.1-0.3,0.3c0,0.2,0,0.4,0,0.4
		c0,0.1,0.1,0.1,0.3,0.1c0.6,0,1.2,0,1.9,0c0.6,0,1.3,0,1.9,0c0.4,0,0.6,0.1,0.7,0.3c0.1,0.2,0.1,0.4-0.2,0.7
		c-0.2,0.3-0.5,0.4-1,0.4c-1.5-0.1-3.1-0.1-4.7-0.1c-1.6,0-3.4,0-5.2,0c-0.1,0-0.4,0-0.9,0.1c-0.9,0.2-1.3-0.3-1.2-1.5
		c0-0.6,0.1-1.1,0.1-1.5c0-0.4,0-0.8-0.1-1.1c0-0.3-0.1-0.4-0.2-0.4c-0.1,0-0.2,0-0.4,0.2c-0.3,0.3-0.7,0.4-1.1,0.4
		c-0.4,0-0.8-0.1-1.2-0.3c-0.2-0.1-0.3-0.2-0.4-0.3c-0.1-0.1-0.2-0.2-0.3-0.3c-0.1,0-0.2,0-0.4,0c-0.5,0.1-1,0.1-1.7,0.1
		c-0.7,0-1.4,0-2.2-0.1c-0.6-0.1-1.1,0-1.7,0.1c-0.5,0.1-1,0.2-1.3,0.3c-0.4,0.2-0.6,0.1-0.7-0.3c-0.1-0.3,0.1-0.7,0.4-1.2
		c0.1-0.2,0.2-0.2,0.4-0.3c0.2,0,0.3,0,0.4,0c0.1,0.1,0.3,0.1,0.5,0.1s0.6-0.1,1.1-0.2c0.1,0,0.4-0.1,0.7-0.1c0.4,0,0.8-0.1,1.2-0.1
		c0.5,0,0.9,0,1.4,0s1,0.1,1.4,0.1c0.1,0,0.2,0,0.3,0.1c0.1,0,0.2,0,0.3,0.1c0,0,0.1-0.1,0.2-0.1c0.1,0,0.2-0.1,0.2-0.1
		c0.4-0.1,0.8-0.2,1.2-0.3c0.4-0.2,0.7-0.3,1.1-0.6c0.4-0.2,0.7-0.5,1.1-0.9s0.8-0.8,1.2-1.3c0.2-0.2,0.2-0.3,0.2-0.3
		s-0.1-0.1-0.2-0.2c-0.2-0.1-0.3-0.1-0.4-0.3c-0.1-0.1-0.2-0.4-0.3-0.7c0-0.1-0.1-0.2-0.2-0.3c-0.1-0.1-0.4-0.1-0.8-0.1
		c-0.3,0-0.6,0-1,0.1c-0.4,0.1-0.7,0.1-1,0.2c-0.3,0.1-0.5,0.1-0.7,0.1c-0.2-0.1-0.3-0.2-0.4-0.3c-0.1-0.2-0.1-0.4-0.1-0.6
		c0-0.2,0.2-0.4,0.4-0.6c0.3-0.4,0.6-0.6,0.8-0.7c0.2-0.1,0.5-0.1,0.7,0c0.5,0.2,1,0.2,1.3,0.2c0.4,0,0.6-0.1,0.7-0.2
		c0.1-0.1,0.1-0.3,0.2-0.7c0-0.4,0.2-0.7,0.4-0.8c0.2-0.2,0.5-0.2,0.7-0.2c0.3,0,0.5,0.1,0.7,0.3C156.9,230.2,157,230.5,157,230.9z
		 M151.3,242c0,0.3,0,0.4-0.1,0.5c-0.1,0.1-0.2,0.2-0.5,0.3c-0.2,0.1-0.6,0.1-1,0.2c-0.5,0-1,0.1-1.5,0.1c-0.6,0-1.1,0-1.7,0
		c-0.6,0-1,0-1.4-0.1c-0.2,0-0.5,0-0.8,0c-0.3,0-0.6,0.1-0.9,0.2c-0.4,0.2-0.7,0.1-0.8-0.2c-0.1-0.3,0-0.7,0.4-1.1
		c0.1-0.2,0.4-0.3,0.7-0.2c0.1,0,0.3,0,0.5,0c0.2,0,0.6-0.1,1-0.1c0.3-0.1,0.6-0.1,1.1-0.1c0.5,0,0.9,0,1.5,0c0.5,0,1,0,1.5,0.1
		c0.5,0,0.9,0.1,1.3,0.1c0.3,0.1,0.5,0.1,0.6,0.2C151.2,241.8,151.3,241.9,151.3,242z M149.7,233.4c-0.3,0.1-0.7,0.2-1.2,0.2
		c-0.5,0-0.9,0-1.4,0c-0.5,0-0.9-0.1-1.3-0.2c-0.4-0.1-0.7-0.2-1-0.3c-0.5-0.3-0.8-0.7-0.9-1.1c-0.1-0.4,0-0.9,0.3-1.4
		c0.3-0.6,0.7-1,1.2-1c0.2,0,0.4,0,0.6,0.1c0.2,0.1,0.4,0.3,0.6,0.6c0.5,0.5,0.9,1,1.4,1.3c0.5,0.3,1,0.6,1.7,0.8
		c0.4,0.1,0.5,0.3,0.5,0.5C150.1,233.1,150,233.3,149.7,233.4z M148.7,247.4c0-0.4,0-0.7-0.1-0.9c-0.1-0.2-0.3-0.3-0.6-0.3
		c-0.3-0.1-0.7-0.1-1.3-0.1c-0.5,0-1,0-1.4,0c-0.2,0-0.2,0.1-0.2,0.3c0,0.4,0,0.8-0.1,1.4c0,0.5,0,1.1,0,1.9c0,0.2,0.1,0.3,0.3,0.3
		c0.5-0.1,0.9-0.1,1.4-0.1s0.9,0.1,1.2,0.1c0.2,0.1,0.4-0.1,0.5-0.4C148.5,249.3,148.6,248.6,148.7,247.4z M156.3,238.2
		c-0.2,0-0.4,0.1-0.3,0.3c0,0.3,0.1,0.4,0.3,0.4l3.1,0c0.2,0,0.3-0.1,0.3-0.3c0-0.3-0.1-0.4-0.3-0.4L156.3,238.2z M159.2,240
		c-0.4,0-0.9,0-1.3,0c-0.5,0-1,0-1.5,0c-0.1,0-0.2,0-0.3,0.1c0,0.1-0.1,0.2-0.1,0.4c0,0.2,0,0.3,0.1,0.3c0.1,0.1,0.2,0.1,0.3,0.1
		c0.5,0,0.9,0,1.4,0c0.5,0,0.9,0,1.4,0c0.1,0,0.2,0,0.2-0.1c0.1-0.1,0.1-0.2,0.1-0.4s0-0.3-0.1-0.4C159.5,240,159.3,240,159.2,240z
		 M159.6,242.5c0-0.3-0.1-0.4-0.4-0.4c-0.4,0-0.9,0-1.3,0c-0.5,0-1,0-1.5,0c-0.2,0-0.3,0.1-0.3,0.3c0,0.4,0.1,0.5,0.4,0.5l2.8,0
		C159.4,242.9,159.6,242.8,159.6,242.5z M159.8,236.5c0.1-0.1,0.1-0.2,0.1-0.3c0-0.1-0.1-0.2-0.3-0.2c-0.2-0.1-0.5-0.2-0.9-0.3
		c-0.4-0.1-0.8-0.1-1.2-0.2c-0.1,0-0.2,0-0.3,0.1c-0.1,0.1-0.2,0.3-0.4,0.6c-0.1,0.3-0.2,0.4-0.2,0.5c0,0.1,0.1,0.1,0.2,0.1l2.4,0
		c0.2,0,0.3,0,0.3-0.1C159.6,236.7,159.7,236.6,159.8,236.5z M161.4,247.6c0.3-0.2,0.5-0.4,0.4-0.6c0-0.2-0.2-0.3-0.6-0.3
		c-0.5-0.1-1.1-0.1-1.9-0.1c-0.7,0-1.4,0-2.1,0c-0.2,0-0.3,0.1-0.3,0.2s0.1,0.2,0.3,0.3c0.5,0.2,1,0.3,1.4,0.5
		c0.4,0.1,0.9,0.3,1.3,0.4c0.3,0.1,0.5,0.1,0.6,0.1C160.9,247.9,161.1,247.8,161.4,247.6z M161.5,233.8c-0.1-0.5-0.1-1-0.1-1.5
		c0-0.5,0-1.1,0.2-1.7c0.1-0.4,0.2-0.7,0.4-0.8c0.2-0.1,0.4-0.2,0.7-0.2c0.6,0.1,1,0.4,1.1,1.1c0,0.1,0,0.2,0,0.3c0,0.1,0,0.2,0,0.3
		c0,0.1,0,0.1,0,0.2c0,0,0.1,0,0.3,0c0.1,0,0.2,0,0.4,0c0.2,0,0.4,0,0.7,0c0.2,0,0.5,0,0.7,0c0.2,0,0.4,0,0.6,0
		c0.9,0.1,1.4,0.2,1.7,0.3c0.3,0.1,0.4,0.3,0.3,0.6c-0.1,0.3-0.1,0.5-0.2,0.6c-0.1,0.1-0.2,0.2-0.3,0.3c-0.2,0.1-0.4,0.1-0.6,0.1
		c-0.3,0-0.6,0-1.1,0c-0.4,0-0.8,0-1.2-0.1c-0.3,0-0.7,0-1.1-0.1c0,0-0.1,0-0.1,0.1c0,0.1-0.1,0.2-0.1,0.4c-0.1,0.6-0.4,0.9-0.8,0.9
		C162.1,234.8,161.7,234.5,161.5,233.8z"/>
	<path class="st1" d="M197.5,245.4c0.2,0.3,0.3,0.6,0.3,1c0,0.3-0.2,0.6-0.5,0.9c-0.8,0.7-1.6,1.3-2.5,1.9c-0.9,0.5-2,1-3.1,1.3
		c-0.3,0.1-0.6,0.2-0.9,0.1c-0.3,0-0.5-0.2-0.8-0.5c-0.1-0.1-0.1-0.2-0.1-0.3c0-0.1,0.2-0.2,0.5-0.4c1.3-0.7,2.4-1.4,3.2-2.2
		c0.8-0.7,1.5-1.3,1.9-1.8c0.3-0.4,0.7-0.5,1.1-0.5C197,244.9,197.3,245.1,197.5,245.4z M216.4,233.7c0,0.4-0.1,0.8-0.2,1
		c-0.1,0.3-0.3,0.6-0.5,0.9c-0.5,0.8-1.1,1.4-1.6,1.9c-0.5,0.5-1.1,0.8-1.8,1.1c-0.2,0.1-0.4,0.1-0.7,0c-0.3-0.1-0.6-0.1-0.9-0.3
		c-0.3-0.1-0.6-0.3-0.9-0.5c-0.3-0.2-0.5-0.4-0.7-0.7c-0.1-0.2-0.2-0.4-0.1-0.6c0.1-0.2,0.3-0.2,0.5-0.1c0.5,0.2,1,0.2,1.4,0.2
		c0.4-0.1,0.8-0.2,1.2-0.5c0.5-0.3,0.8-0.7,1-1c0.2-0.3,0.3-0.7,0.2-1.1c-0.1-0.5-0.3-0.8-0.8-0.9c-0.1,0-0.3-0.1-0.5-0.1
		c-0.2,0-0.5-0.1-0.8-0.1c-0.1,0-0.2,0.1-0.3,0.2c-0.2,0.3-0.4,0.6-0.6,0.8c-0.2,0.2-0.3,0.5-0.5,0.7c-0.2,0.2-0.3,0.4-0.5,0.7
		c-0.2,0.2-0.4,0.5-0.6,0.8c-0.4,0.5-0.9,1-1.5,1.5c-0.6,0.4-1.2,0.7-1.8,0.9c-0.5,0.1-1,0.2-1.3,0.2c-0.4,0-0.7,0-1.1-0.2
		c-0.3-0.1-0.4,0-0.4,0.3c0,0.4,0,0.9,0,1.4c0,0.5,0,1,0,1.5c0,1-0.1,1.7-0.4,2.1c-0.3,0.3-0.7,0.5-1.3,0.4
		c-0.5-0.1-0.9-0.1-1.2-0.2s-0.7-0.1-1-0.1c-0.3,0-0.6,0-0.9,0c-0.3,0-0.6,0-1,0.1c-0.1,0-0.3,0-0.4,0.1c-0.1,0-0.2,0.1-0.3,0.1
		c-0.2,0.1-0.5,0.2-0.7,0.1c-0.2,0-0.3-0.1-0.4-0.2c-0.1-0.1-0.2-0.3-0.3-0.5c-0.1-0.3-0.2-0.6-0.2-1c-0.1-0.4-0.1-1-0.1-1.7
		c0-0.2,0-0.6-0.1-1.1c0-0.5-0.1-1.1-0.2-1.8c-0.1-0.6-0.1-1.3-0.2-1.9c-0.1-0.6-0.2-1.1-0.3-1.5c-0.2-0.7-0.1-1.3,0.2-1.9
		c0.3-0.5,0.7-0.9,1.1-1.1c0.3-0.1,0.5-0.1,0.8,0.1c0.1,0.1,0.2,0.1,0.4,0.2c0.1,0.1,0.2,0.1,0.4,0.1c1,0.1,1.8,0.2,2.4,0.2
		c0.6,0,1,0,1.2-0.1c0.3-0.1,0.6-0.2,1-0.2c0.4,0,0.7,0,0.9,0.2c0.6,0.4,0.9,0.7,1,1.2c0.1,0.4,0.1,1.1,0,1.9
		c-0.1,0.3-0.1,0.8-0.2,1.4c0,0.3,0.1,0.4,0.4,0.4c0.6-0.1,1.2-0.4,1.9-0.7c0.6-0.3,1.2-0.7,1.8-1.1c0.4-0.3,0.7-0.6,0.9-0.9
		s0.4-0.6,0.6-1.1c0.1-0.3,0-0.5-0.3-0.5c-0.2,0-0.5,0-0.6,0c-0.2,0-0.3,0-0.4,0c-0.5,0.1-0.9,0.2-1.3,0.1c-0.4,0-0.6-0.2-0.7-0.4
		c-0.1-0.2-0.1-0.4,0-0.6c0.1-0.2,0.3-0.5,0.7-0.9c0.4-0.4,0.9-0.6,1.4-0.7c0.5-0.1,1,0,1.5,0.3c0.1,0.1,0.3,0.1,0.5,0.2
		c0.2,0.1,0.5,0.1,0.8,0.1c0.9,0,1.6,0.1,2.1,0.2c0.5,0.1,1,0.2,1.4,0.3c0.3,0.1,0.6,0.2,0.8,0.2c0.2,0,0.6,0.1,0.9,0.1
		c0.3,0,0.5,0.3,0.8,0.7C216.4,232.7,216.5,233.2,216.4,233.7z M200.3,234.7c0-0.3-0.1-0.5-0.2-0.6c-0.1-0.1-0.4-0.1-0.9-0.2
		c-0.2,0-0.3,0-0.5,0c-0.1,0-0.3,0-0.4,0c-0.2,0-0.3,0-0.5,0c-0.2,0-0.5,0-0.7,0.1c-0.1,0-0.2,0.1-0.3,0.3c0,0.2-0.1,0.3-0.1,0.5
		c0,0.2,0,0.5,0,0.8c0,0.3,0,0.6,0.1,0.9c0,0.2,0.1,0.3,0.3,0.3c0.6,0,1-0.1,1.5-0.1c0.4,0,0.9,0,1.5,0.1c0.2,0,0.3-0.1,0.3-0.3
		L200.3,234.7z M200.3,239c0-0.2-0.1-0.3-0.3-0.3c-0.3,0-0.5-0.1-0.7-0.1c-0.2,0-0.4,0-0.6,0s-0.4,0-0.7,0c-0.2,0-0.5,0-0.8,0.1
		c-0.2,0-0.3,0.2-0.3,0.3c0,0.4,0.1,0.9,0.1,1.3c0,0.4,0.1,0.8,0.1,1.2c0,0.2,0.1,0.3,0.3,0.3c0.5,0,0.9,0.1,1.2,0.1
		c0.2,0,0.5,0,0.7,0c0.7,0,1-0.5,1-1.4c0-0.2,0-0.5,0-0.8C200.3,239.5,200.3,239.3,200.3,239z M203.8,248.1c0.2,0.3,0.2,0.6,0.2,1
		c0,0.3-0.1,0.5-0.3,0.6c-0.2,0.1-0.4,0.1-0.6,0.1c-0.2,0-0.5-0.2-0.8-0.4c-0.1-0.1-0.3-0.2-0.5-0.4c-0.2-0.2-0.4-0.4-0.6-0.5
		c-0.2-0.2-0.4-0.4-0.5-0.5c-0.2-0.2-0.3-0.3-0.3-0.4c-0.4-0.4-0.6-0.7-0.6-0.9c0-0.2,0-0.4,0.2-0.7c0.1-0.2,0.3-0.4,0.6-0.5
		c0.3-0.1,0.5-0.2,0.7-0.1c0.4,0.1,0.6,0.2,0.7,0.3c0.1,0.1,0.3,0.3,0.5,0.6c0.2,0.4,0.5,0.7,0.7,1
		C203.4,247.5,203.6,247.8,203.8,248.1z M216.1,240.4c-0.1,0.4-0.1,0.9-0.1,1.3c0,0.5,0,1.1-0.1,1.8c0,0.5-0.2,0.9-0.5,1.1
		c-0.3,0.2-0.8,0.3-1.5,0.2c-0.5-0.1-1-0.1-1.5-0.2c-0.4,0-0.9-0.1-1.3-0.1s-0.9,0-1.3,0c-0.5,0-1,0-1.6,0.1c-0.2,0-0.3,0-0.5,0.1
		s-0.3,0.1-0.5,0.2c-0.1,0-0.2,0.1-0.4,0.1c-0.1,0-0.3,0-0.5,0c-0.2,0-0.4-0.2-0.7-0.5c-0.3-0.3-0.4-0.7-0.4-1.1c0-0.6,0-1.1,0-1.5
		c0-0.4-0.1-0.9-0.1-1.4c0-0.3,0-0.6,0.2-1c0.2-0.4,0.4-0.6,0.7-0.7c0.2-0.1,0.5-0.1,0.6-0.1c0.2,0,0.3,0,0.5,0.1c0.2,0,0.4,0,0.5,0
		c0.7,0,1.3,0,2,0c0.6,0,1.2,0,1.7,0c0.5,0,0.9,0,1.2,0.1c0.3,0,0.6,0.1,0.7,0.1c0.1,0,0.2,0,0.4-0.1c0.2-0.1,0.4-0.2,0.5-0.3
		c0.2-0.1,0.4-0.1,0.7,0c0.2,0.1,0.5,0.3,0.7,0.5c0.2,0.2,0.3,0.4,0.4,0.7C216.1,239.9,216.1,240.1,216.1,240.4z M210,248.3
		c0.2,0.3,0.2,0.6,0.2,1c0,0.3-0.1,0.5-0.3,0.6c-0.2,0.1-0.4,0.1-0.6,0.1c-0.2,0-0.5-0.2-0.8-0.4c-0.1-0.1-0.3-0.2-0.5-0.4
		c-0.2-0.2-0.4-0.4-0.6-0.5c-0.2-0.2-0.4-0.4-0.5-0.5c-0.2-0.2-0.3-0.3-0.3-0.4c-0.4-0.4-0.6-0.7-0.6-0.9c0-0.2,0-0.4,0.2-0.8
		c0.1-0.2,0.3-0.4,0.6-0.5c0.3-0.1,0.5-0.2,0.7-0.1c0.4,0.1,0.6,0.2,0.7,0.3c0.1,0.1,0.3,0.3,0.5,0.6c0.2,0.4,0.5,0.7,0.7,1
		C209.6,247.7,209.8,248,210,248.3z M213.7,242c0-0.4,0.1-0.6,0-0.6c0-0.1,0-0.2-0.1-0.3c0-0.2-0.1-0.4-0.3-0.5
		c-0.2-0.1-0.5-0.2-0.9-0.3c-0.1,0-0.4,0-0.7,0c-0.3,0-0.7,0-1.1,0c-0.4,0-0.9,0-1.3,0c-0.5,0-0.9,0-1.3,0.1c-0.2,0-0.3,0.1-0.3,0.3
		c0,0.5,0,0.8,0,1c0,0.2,0,0.4,0,0.6c0,0.2,0.1,0.3,0.3,0.3c1.4,0.1,2.5,0.1,3.2,0.1c0.7,0,1.2,0,1.4,0c0.4,0,0.6-0.1,0.7-0.3
		C213.5,242.4,213.6,242.2,213.7,242z M220.2,249.1c-0.2,0.3-0.4,0.6-0.7,0.9c-0.3,0.3-0.6,0.6-0.9,0.8c-0.2,0.1-0.4,0.2-0.7,0.2
		c-0.3,0-0.6,0-1-0.1c-0.4-0.1-0.7-0.2-1.1-0.5c-0.4-0.2-0.7-0.5-1-0.9c-0.4-0.5-0.8-1-1.4-1.6c-0.6-0.6-1.1-1.1-1.6-1.6
		c-0.4-0.4-0.3-0.7,0.2-1c0.2-0.1,0.4-0.1,0.8-0.1c0.4,0.1,0.8,0.2,1.3,0.5c0.4,0.2,0.9,0.4,1.4,0.7s1,0.5,1.5,0.7
		c0.5,0.2,1,0.4,1.5,0.6c0.5,0.2,0.9,0.3,1.3,0.4c0.3,0.1,0.5,0.2,0.5,0.4C220.4,248.7,220.4,248.9,220.2,249.1z"/>
	<path class="st1" d="M194.7,304l0,5.6l-28.9,0.1l0-5.4l9.9-0.1c0.5,2,2.4,3.5,4.6,3.5c2.2,0,4-1.6,4.5-3.6L194.7,304z"/>
	<path class="st1" d="M194.7,295.5l0,6.1l-9.9,0.1c-0.5-2-2.4-3.5-4.6-3.5c-2.2,0-4.1,1.5-4.5,3.6l-9.9,0.1l0-6.3L194.7,295.5z"/>
	<circle class="st1" cx="180.1" cy="303" r="3.9"/>
</g>
</svg>
