<?xml version="1.0" encoding="utf-8"?>
<!-- Generator: Adobe Illustrator 22.0.1, SVG Export Plug-In . SVG Version: 6.00 Build 0)  -->
<svg version="1.1" id="Layer_1" xmlns="http://www.w3.org/2000/svg" xmlns:xlink="http://www.w3.org/1999/xlink" x="0px" y="0px"
	 viewBox="0 0 360 360" style="enable-background:new 0 0 360 360;" xml:space="preserve">
<style type="text/css">
	.st0{fill:#AFA23F;}
	.st1{fill:#FFF4B0;stroke:#FFF4B0;stroke-width:0.5;stroke-miterlimit:10;}
</style>
<path class="st0" d="M53.9,343.3c0,0,3.5-321.3,3.8-323.9c0.2-2.6,229.2-9.7,231.1,0.2c3.2,17,17.4,312.2,9.7,321.7
	C290.8,350.8,53.9,343.3,53.9,343.3z"/>
<g>
	<path class="st1" d="M123.2,67.1l2-0.3c0.6-0.1,1.9-0.3,4-0.6c1.4-0.2,2.4-0.4,3.1-0.4l1.3-0.2l-2.3-2.6c1.1,0,2.3,0.5,3.7,1.4
		c1.1,0.7,1.6,1.6,1.6,2.8c0,0.7-0.2,1.1-0.6,1.1c-0.4,0-0.9-0.4-1.4-1.2c-0.1-0.2-0.3-0.4-0.5-0.7c-2.3,0.3-4.8,0.7-7.5,1.4
		c-2.7,0.6-4.5,1.2-5.4,1.6c-0.3,0.2-0.6,0.3-0.7,0.3c-0.3,0-0.5-0.4-0.5-1.2c0-0.4,0.2-0.7,0.5-0.8c1.7-0.7,3.3-2,4.8-4
		c1.4-1.9,2.1-3.3,2.1-4.3c0-0.2,0-0.4-0.1-0.6l-0.1-0.2c0,0,0-0.1,0-0.1c0-0.1,0.1-0.2,0.2-0.2c0.4,0,0.9,0.3,1.5,0.8
		c0.7,0.5,1,0.9,1,1.2c0,0.1-0.3,0.4-0.8,0.9c-1.1,1.1-2.2,2.2-3.2,3.3C125,65.4,124,66.4,123.2,67.1z M132.8,76.5
		c0.6,0.6,0.9,1,0.9,1.1c0,0.1-0.1,0.2-0.4,0.2l-1.1,0.1l-7.2,0.6c0,0.2,0,0.4,0,0.5c0,0.5-0.2,0.8-0.5,0.8c-0.3,0-0.5-0.3-0.6-0.9
		c-0.5-3.5-1.2-5.5-1.8-6.3c-0.2-0.2-0.3-0.4-0.3-0.5c0-0.1,0.1-0.2,0.3-0.2c0.2,0,0.4,0,0.6,0c0.9,0.1,1.4,0.1,1.5,0.1
		c1.5,0,3.2-0.3,5.2-0.8l2.2-0.6c0.3-0.1,0.6-0.1,0.8-0.1c0.3,0,0.7,0.1,1.1,0.4l0.8,0.5c0.7,0.4,1.1,0.7,1.1,0.9
		c0,0.1-0.1,0.3-0.3,0.5C134,73.5,133.3,74.8,132.8,76.5z M124.3,72.9l0.7,4.6l6.3-0.9c0.5-1.9,0.7-3.3,0.7-4.1
		c0-0.5-0.2-0.7-0.6-0.7c-0.3,0-0.6,0-0.9,0.1L124.3,72.9z"/>
	<path class="st1" d="M148.1,65.3c0.3,0,0.4,0,0.6,0c1.7,0,2.5,0.6,2.5,1.8c0,0.5-0.2,0.7-0.7,0.7C149.9,67.8,149.1,66.9,148.1,65.3
		z M153.2,68.1c0.1,0,0.2,0.1,0.2,0.3c0,0.1,0,0.2-0.1,0.3c0,0.1-0.2,0.4-0.4,1l-0.6,1.5c-1,2.5-1.5,4.4-1.6,5.7
		c0,0.6-0.2,0.9-0.5,0.9c-0.3,0-0.7-0.3-1.2-1c-0.5-0.7-0.7-1.3-0.7-1.7c0-0.1,0.1-0.2,0.2-0.3c0.6-0.3,1.8-2,3.5-5.3
		C152.7,68.6,153,68.1,153.2,68.1z M150.2,60.5l0.8,0c1.7,0,2.5,0.5,2.5,1.6c0,0.5-0.2,0.8-0.6,0.8c-0.3,0-0.8-0.2-1.3-0.7
		C151.1,61.7,150.6,61.1,150.2,60.5z M155.6,64.2c0.3,0.4,0.4,0.7,0.4,1c0,0.5-0.2,1.1-0.6,1.7c-0.4,0.6-0.8,0.9-1.1,0.9
		c-0.4,0-0.6-0.3-0.6-0.9c0-0.3,0.2-0.6,0.5-1C155,65.2,155.5,64.6,155.6,64.2z M161.6,62.3c0.3,0.4,0.4,0.7,0.4,1
		c0,0.1,0,0.2,0,0.3l-0.1,1.9c-0.1,1-0.2,1.6-0.5,1.6c-0.1,0-0.3-0.1-0.5-0.4c-0.2-0.3-0.2-0.5-0.2-0.7c0-0.1,0-0.2,0-0.5
		c0-0.2,0-0.5,0-0.8c0-1,0-1.7-0.1-2.3l-2.2,0.3c0.3,0.3,0.5,0.7,0.5,1.2l0,1.6l-0.1,0.9c-0.1,1-0.3,1.4-0.5,1.4c0,0-0.1,0-0.2-0.1
		l-0.2-0.2c-0.2-0.2-0.3-0.4-0.3-0.7c0-0.1,0-0.3,0.1-0.5c0.1-0.5,0.2-1.4,0.2-2.7c0-0.3,0-0.5-0.1-0.8c-0.5,0.1-1,0.1-1.3,0.1
		c-1.3,0-1.9-0.2-1.9-0.5c0-0.1,0.2-0.2,0.6-0.2c0.8,0,2.5-0.2,5.3-0.8l3.2-0.6c0.6-0.1,1.1-0.2,1.7-0.4c0.4-0.1,0.7-0.1,0.9-0.1
		c0.7,0,1.1,0.2,1.1,0.7c0,0.4-0.7,0.6-2.1,0.8c-0.4,0-1,0.1-1.9,0.3L161.6,62.3z M162.8,69.5c0.3,0.4,0.4,0.6,0.4,0.7
		c0,0.2-0.2,0.3-0.6,0.3c-1.2,0.1-2.9,0.4-5,0.8c0,0.2,0,0.4,0,0.5c0,0.6-0.2,1.1-0.5,1.6l1.2-0.2c2-0.4,3.6-0.7,4.9-1
		c0.3-0.1,0.4-0.1,0.5-0.1c0.3,0,0.8,0.2,1.4,0.6s0.9,0.7,0.9,0.9c0,0,0,0.1-0.1,0.2c-0.3,0.4-0.6,1.2-1,2.3
		c-0.4,1.3-0.9,2.3-1.5,3.2c-0.6,0.8-1.1,1.3-1.6,1.3c-0.4,0-1.1-0.7-2-2l-0.4-0.6c-0.1-0.1-0.1-0.1-0.1-0.2c0-0.1,0.1-0.1,0.2-0.1
		c0.1,0,0.3,0,0.4,0.1c0.6,0.3,1.2,0.4,1.8,0.4c0.4,0,0.8-0.5,1.2-1.4c0.4-0.9,0.6-1.8,0.6-2.6c0-0.6-0.2-0.9-0.7-0.9
		c-1.1,0-2.4,0.2-3.8,0.6c-1.4,0.4-2.3,0.8-2.9,1.3c-0.2,0.2-0.3,0.3-0.4,0.3c-0.2,0-0.3-0.1-0.5-0.4l-0.3-0.5
		c0-0.1-0.1-0.2-0.1-0.2c0-0.1,0.1-0.2,0.2-0.3l0.5-0.3c0.6-0.4,0.9-0.9,0.9-1.5c0-0.6-0.1-1.1-0.4-1.5c0-0.1-0.1-0.1-0.1-0.1
		c0-0.1,0.1-0.2,0.3-0.2c0.2,0,0.4,0,0.6,0.1c0.2,0.1,0.4,0.1,0.6,0.1c0.2,0,0.5,0,0.9-0.1l1.4-0.2c1.3-0.2,2-0.5,2.1-0.8l0.3-0.9
		l0.1-0.2l-0.5-0.2l-0.7,0.1c-0.3,0.1-1.1,0.2-2.2,0.4c-0.7,0.1-1.2,0.3-1.7,0.4c-0.2,0.1-0.4,0.1-0.6,0.1c-0.2,0-0.5-0.1-0.9-0.3
		s-0.5-0.3-0.5-0.4c0-0.1,0.2-0.1,0.5-0.1c0.8,0,2-0.1,3.4-0.4s2.5-0.5,3.1-0.8c0.3-0.1,0.5-0.2,0.6-0.2c0.3,0,0.7,0.1,1.1,0.4
		c0.4,0.3,0.7,0.5,0.7,0.6c0,0.1-0.1,0.2-0.2,0.3l-0.6,0.4C163.6,68.9,163.2,69.2,162.8,69.5z M158.6,58c2.1,0,3.2,0.6,3.2,1.8
		c0,0.5-0.3,0.8-0.8,0.8C160.1,60.6,159.3,59.7,158.6,58z M163.4,64.1c0.3,0,0.6,0,0.8,0c0.8,0,1.5,0.2,2.1,0.6s0.9,0.9,0.9,1.4
		c0,0.4-0.2,0.6-0.5,0.6C166,66.6,164.9,65.8,163.4,64.1z"/>
	<path class="st1" d="M192.6,63.1c0.5,0.3,0.7,0.6,0.7,0.9c0,0.2-0.2,0.3-0.7,0.4l-1.3,0.1l-0.9,0.1c-0.3,0-0.8,0.1-1.3,0.1
		l-1.8,0.2c-1.2,0.1-2,0.3-2.5,0.4c-0.1,0.2-0.1,0.4-0.1,0.5c-0.4,1.7-0.8,3-1,3.8c1.9-0.1,3.7-0.4,5.5-0.8c0.1-0.6,0.1-1.2,0.1-1.6
		c0-0.4-0.1-0.7-0.2-1c-0.1-0.3-0.2-0.5-0.2-0.7c0-0.2,0.1-0.3,0.4-0.3c0.1,0,0.2,0,0.3,0.1c0.4,0.1,0.7,0.3,0.9,0.3
		c0.8,0.3,1.1,0.5,1.1,0.8c0,0.2-0.1,0.5-0.4,0.9c-0.2,0.3-0.5,0.8-0.7,1.5l1.6-0.3c2.6-0.5,4.2-0.8,4.7-0.8c0.6,0,1.2,0.1,1.7,0.4
		c0.5,0.2,0.8,0.5,0.8,0.8c0,0.4-0.4,0.6-1.1,0.6c-0.3,0-0.6,0-1.2,0c-0.5,0-1,0-1.5,0c-1.4,0-3.1,0.1-5.1,0.4
		c-0.5,1.8-0.9,3-1.3,3.6c2.3-0.4,3.6-0.6,4-0.8c0.5-0.2,0.8-0.3,0.9-0.3c0.4,0,1,0.2,1.6,0.6c0.7,0.4,1,0.8,1,1
		c0,0.2-0.3,0.5-0.9,0.8c-0.8,0.4-1.2,1.1-1.4,2c0.5,0.5,0.8,0.9,0.8,1.2c0,0.2-0.9,0.4-2.6,0.4c-1.1,0-2.8,0.1-5.1,0.2
		c0,0.8-0.2,1.2-0.5,1.2c-0.3,0-0.5-0.5-0.6-1.5c-0.2-1.5-0.6-2.6-1.1-3.6c-0.3-0.4-0.4-0.7-0.4-1c0-0.2,0.1-0.2,0.3-0.2
		c0.2,0,0.5,0,0.8,0.1c0.3,0.1,0.8,0.1,1.5,0.1c0.4,0,0.7,0,1-0.1c0.4-1,0.7-2.2,1-3.6c-0.2,0-0.4,0.1-0.4,0.1l-1.7,0.3
		c-0.3,0-0.7,0.1-1.3,0.2c-0.4,0.1-0.7,0.1-0.9,0.1c-0.3,0-0.7-0.1-1.2-0.3c-0.5,1.7-1.3,3.5-2.6,5.2c-1.3,1.7-2.6,2.9-3.7,3.3
		l-0.4,0.1l0.2-0.5c0.1-0.1,0.4-0.5,1-1.1c1.4-1.3,2.7-3.4,3.9-6.3c1.2-2.9,1.7-5.4,1.7-7.6c0-1.2-0.1-2-0.4-2.6
		c0-0.1-0.1-0.1-0.1-0.2c0-0.2,0.1-0.3,0.3-0.3c0.2,0,0.5,0.1,0.8,0.3c0.5,0.3,1,0.4,1.7,0.4c0.3,0,0.6,0,1-0.1
		c1.9-0.4,3-0.6,3.3-0.6c0.6-0.1,0.9-0.2,1.1-0.2l0.9-0.4c0.2-0.1,0.4-0.1,0.6-0.1c0.4,0,0.9,0.2,1.4,0.6c0.6,0.4,0.9,0.7,0.9,1
		c0,0.2-0.1,0.3-0.4,0.4C193.8,61.9,193.1,62.4,192.6,63.1z M184.9,64.4l0.8-0.1c1.4-0.2,2.3-0.3,2.9-0.4l2-0.4
		c0.1,0,0.3-0.1,0.7-0.1c0.1-0.3,0.1-0.5,0.2-0.7c0.1-0.5,0.2-0.7,0.2-0.7c0.1-0.3,0.1-0.5,0.1-0.5c0-0.1,0.1-0.2,0.1-0.3
		c0-0.2-0.1-0.3-0.3-0.3c-0.1,0-0.1,0-0.2,0c-0.2,0-0.5,0.1-0.9,0.1c-0.6,0-1.4,0.2-2.6,0.3c-1,0.2-1.9,0.3-2.5,0.3
		C185.3,62.4,185.1,63.3,184.9,64.4z M186.3,74.1c0,0.4,0.1,0.6,0.1,0.8l0.2,0.9l0.1,1c0,0.1,0.1,0.3,0.1,0.7c1-0.1,1.8-0.2,2.3-0.3
		l2.2-0.2c0.1,0,0.5-0.1,1.2-0.2c0.2-0.6,0.3-1.2,0.4-1.5l0.2-1c0-0.1,0-0.3,0-0.4c0-0.3-0.2-0.5-0.5-0.5c-0.2,0-0.6,0-1.1,0.1
		c-0.2,0-0.8,0.1-1.9,0.2l-2,0.2c-0.2,0-0.4,0-0.8,0L186.3,74.1z"/>
	<path class="st1" d="M219.5,63.4c0.6,0.3,1,0.6,1,0.9c0,0.2-0.3,0.3-1,0.4c-0.6,0.1-1,0.1-1.2,0.2l-1.3,0.4c-0.2,0-0.5,0.1-0.9,0.2
		c1.3,0.2,2,0.5,2,1c0,0.6,0.1,1.3,0.3,2.2c0.3-0.1,0.5-0.2,0.6-0.3l1.5-0.6l0.6-0.2c0.4-0.1,0.8-0.2,1.2-0.2c0.8,0,1.2,0.2,1.3,0.6
		c0,0.3-0.7,0.6-2.2,1l-1.8,0.4c-0.1,0-0.4,0.1-0.8,0.2c0.7,1.8,1.9,3.5,3.5,5.1c1.6,1.6,3,2.4,4.1,2.4c0.3,0,0.6-0.3,0.8-0.8
		l0.5-1.5l0.3-1c0.1-0.4,0.2-0.6,0.3-0.6c0.1,0,0.1,0.2,0.1,0.6l0.1,2.1c0,1,0.1,2,0.4,3c0,0.1,0,0.1,0,0.1c0,0.2-0.2,0.4-0.5,0.4
		c-1.9,0-3.9-1-6.1-2.9s-3.7-4.2-4.6-6.7c-0.4,0.1-0.8,0.2-1,0.3c-1.3,0.4-2.2,0.6-2.8,0.6c-0.3,0-0.6-0.1-1-0.2
		c-0.4-0.1-0.6-0.2-0.6-0.3c0,0,0.1-0.1,0.3-0.1c0.5-0.1,0.9-0.2,1.1-0.2l1.5-0.4l1.4-0.3c0.1,0,0.4-0.1,0.8-0.2
		c-0.5-1.6-0.9-2.8-1.5-3.4c-0.5,0.1-0.8,0.2-0.9,0.2l-1.2,0.2c-0.7,0.1-1.1,0.2-1.3,0.2c-0.1,0-0.2,0-0.5,0l0,2.3
		c0,2.9-0.1,5.3-0.3,7.1c0.3-0.1,0.4-0.2,0.5-0.2L215,74c0.6-0.3,0.9-0.4,1-0.5c0.2-0.2,0.5-0.3,0.7-0.3c0.1,0,0.2,0,0.2,0.1
		c0,0.2-0.5,0.7-1.6,1.4l-2.1,1.5l-1.1,0.9c-0.6,0.5-1.1,0.9-1.3,1.3c-0.2,0.2-0.3,0.4-0.5,0.4c-0.2,0-0.5-0.2-0.8-0.5
		s-0.5-0.7-0.5-0.9c0-0.2,0.1-0.5,0.4-0.8c0.6-0.5,0.9-1.2,1.1-2.1c0.1-0.9,0.2-2.6,0.2-5.3c0-2.5-0.1-4.2-0.2-5.1
		c-0.1-0.9-0.4-1.6-0.8-2.2c-0.1-0.2-0.2-0.3-0.2-0.5c0-0.2,0.1-0.3,0.4-0.3c0.2,0,0.5,0,0.8,0.1l0.6,0.1c0.2,0,0.4,0.1,0.6,0.1
		c1.7,0,3.8-0.7,6.4-2c0.3-0.2,0.6-0.2,0.8-0.2c0.5,0,1.1,0.2,1.8,0.5c0.7,0.4,1.1,0.6,1.1,0.9c0,0.1-0.2,0.3-0.5,0.4
		C220.6,61.7,219.9,62.4,219.5,63.4z M211.8,62.4l0,0.8l0,1.5l0,0.8c0.3-0.1,0.4-0.1,0.5-0.1l1.5-0.3c2.2-0.5,3.6-0.9,4.3-1.4
		c0.2-0.7,0.3-1.2,0.4-1.4c0.1-0.4,0.1-0.7,0.1-0.8c0-0.1,0-0.1,0-0.2c0-0.2-0.1-0.2-0.3-0.2c-0.2,0-0.3,0-0.5,0.1
		c-0.2,0.1-0.6,0.2-1.5,0.4l-2.5,0.6l-0.8,0.2c-0.4,0.1-0.7,0.1-0.8,0.1C212.2,62.4,212.1,62.4,211.8,62.4z"/>
	<path class="st1" d="M81.6,99.5c-0.4,0.1-0.7,0.1-0.8,0.2l-1.4,0.3c-0.5,0.1-0.9,0.2-1.3,0.3l-1,0.3c-0.2,0.1-0.4,0.1-0.6,0.1
		c-0.3,0-0.6-0.1-1-0.3c-0.4-0.2-0.6-0.4-0.6-0.5c0-0.2,0.4-0.3,1.1-0.3c0.5,0,1.7-0.1,3.5-0.4c1.4-0.2,2.3-0.4,2.8-0.4l0-2.1l0-3
		c-0.3,0-0.5,0.1-0.7,0.1c-0.6,0.1-1.1,0.2-1.6,0.2c-1.4,0-2.1-0.2-2.1-0.6c0-0.2,0.3-0.3,0.9-0.3c0.3,0,0.8-0.1,1.5-0.2l1.1-0.2
		c0.1,0,0.4-0.1,0.8-0.1c0-2-0.2-3.2-0.6-3.7l-0.4-0.5c0-0.1-0.1-0.1-0.1-0.1c0-0.2,0.2-0.3,0.5-0.3c0.4,0,0.9,0.1,1.4,0.4
		c0.5,0.3,0.8,0.5,0.8,0.8c0,0.1,0,0.2-0.1,0.3l-0.2,0.5c-0.2,0.6-0.3,1.4-0.4,2.5c1.6-0.4,2.7-0.6,3.3-0.6c0.8,0,1.3,0.2,1.3,0.7
		c0,0.2-0.3,0.4-0.9,0.5c-0.8,0.1-1.6,0.3-2.2,0.4L84,93.3l-0.7,0.1l0,2.3l-0.1,2.8l0.8-0.1c1-0.2,1.8-0.3,2.1-0.4
		c1.6-0.4,2.7-0.5,3.1-0.5c1.3,0,1.9,0.4,1.9,1.1c0,0.3-0.2,0.4-0.5,0.4c-0.2,0-0.5,0-0.8,0c-0.7,0-1.1,0-1.4,0
		c-1,0-2.4,0.1-4.3,0.3c-0.2,0-0.5,0.1-0.8,0.1c1.3,1.4,3,2.8,5,4c1.1,0.7,3.1,1.4,5.9,2c0.6,0.1,0.9,0.2,0.9,0.4
		c0,0.1-0.3,0.3-0.9,0.4l-1.2,0.2c-0.8,0.1-1.7,0.2-2.5,0.2c-0.8,0-2.3-1.2-4.7-3.7L84,101c-0.4-0.4-0.6-0.7-0.8-0.9v7.3l0,1
		l-0.1,1.1c-0.1,0.7-0.2,1-0.4,1c-0.3,0-0.5-0.2-0.7-0.6c-0.2-0.4-0.4-0.8-0.4-1.3c0-0.2,0-0.3,0-0.5l0.2-1.1
		c0.3-1.3,0.4-3.2,0.4-5.7l0-1.1c-1.7,3.1-3.6,5.2-5.8,6.2l-1.7,0.8c-0.2,0.1-0.4,0.2-0.6,0.2c-0.2,0-0.3,0-0.3-0.1
		c0-0.1,0.2-0.3,0.7-0.5C77.6,104.9,80,102.5,81.6,99.5z M78.1,95.5c1.6,0.1,2.4,0.7,2.4,1.9c0,0.4-0.2,0.6-0.5,0.6
		C79.4,97.9,78.8,97.1,78.1,95.5z M86.7,93.8c0.3,0,0.7,0.1,1.1,0.3c0.4,0.2,0.6,0.5,0.6,0.7c0,0.1-0.2,0.3-0.7,0.6
		c-0.2,0.1-0.4,0.3-0.7,0.5c-0.5,0.4-0.8,0.6-0.9,0.7c-0.5,0.3-0.8,0.5-0.8,0.6c-0.3,0.2-0.5,0.3-0.7,0.3c-0.1,0-0.1,0-0.1-0.1l0,0
		l0.1-0.2c1-1,1.6-2,1.7-3.1C86.3,93.9,86.4,93.8,86.7,93.8z"/>
	<path class="st1" d="M108.2,99.2c0.6,0.5,0.9,1.1,0.9,2c0,5.3-0.3,7.9-1,7.9c-0.1,0-0.3-0.2-0.4-0.7c-0.2-0.5-0.2-0.9-0.2-1.3
		c0-0.2,0-0.4,0.1-0.7l0.3-1.4c0-0.1,0.1-0.5,0.2-1.3l0-0.2c0.1-0.6,0.1-1.3,0.1-2.2c0-0.7,0-1.3-0.1-1.9c-1.5,1.8-2.9,3.1-4.3,3.9
		l-0.8,0.4c-0.2,0.1-0.4,0.2-0.6,0.2c-0.1,0-0.2,0-0.2-0.1c0-0.1,0.7-0.7,2-1.9c1.1-1,2.2-2.1,3.3-3.5c1-1.4,1.6-2.4,1.6-3L109,95
		c0-0.3,0.1-0.5,0.3-0.5c0.2,0,0.5,0.2,1,0.7c0.5,0.5,0.7,0.8,0.7,1c0,0.2-0.3,0.5-0.8,1C109.7,97.8,109,98.4,108.2,99.2z
		 M109.5,89.2c0.2,0,0.5,0.2,1,0.6c0.5,0.4,0.7,0.7,0.7,0.9c0,0.2-0.5,0.8-1.6,1.7s-1.9,1.6-2.6,2l-1.9,1.1
		c-0.2,0.1-0.4,0.2-0.6,0.2c-0.2,0-0.3,0-0.3-0.2c0-0.1,0.1-0.1,0.2-0.2c0.2-0.1,0.4-0.2,0.6-0.4l0.8-0.7c2.1-1.9,3.2-3.2,3.2-3.9
		C109.1,89.6,109.2,89.2,109.5,89.2z M116.4,104.4v-3.9l-0.5,0.1c-0.8,0.2-1.5,0.3-2,0.3c-0.4,0-0.8,0-1-0.1l-0.5-0.2
		c-0.2-0.1-0.4-0.2-0.4-0.2c0-0.1,0.2-0.2,0.6-0.2c0.3,0,0.8-0.1,1.7-0.3c0.4-0.1,1.1-0.2,1.9-0.3l0-0.3c0-1.3-0.1-2.4-0.4-3.4
		c-0.2,0.1-0.3,0.1-0.4,0.1c-0.7,0.2-1.2,0.3-1.5,0.3c-0.3,0-0.7-0.1-1.2-0.2c-0.5-0.1-0.7-0.2-0.7-0.3c0-0.1,0.4-0.2,1.2-0.3
		c0.6-0.1,2.4-0.5,5.4-1.4c0.7-0.2,1.4-0.3,1.9-0.3c0.3,0,0.6,0.1,0.9,0.2c0.3,0.1,0.5,0.3,0.5,0.4c0,0.2-0.3,0.3-0.8,0.4l-1.7,0.4
		l-0.8,0.2l-1.2,0.3c-0.1,0-0.3,0.1-0.7,0.1c0.7,0.4,1.1,0.8,1.1,1.2c0,0,0,0.1-0.1,0.4l-0.1,0.6l-0.1,0.7c0,0.1,0,0.4-0.1,0.7
		l0.5-0.2c0.8-0.3,1.5-0.4,2-0.4c0.8,0,1.2,0.2,1.2,0.7c0,0.2-0.2,0.4-0.7,0.4c-0.1,0-0.4,0-0.9,0.1l-1.6,0.3
		c-0.1,0-0.3,0.1-0.5,0.1v4c0.5-0.1,0.8-0.1,0.9-0.2l2.6-0.5c0.4-0.1,0.9-0.1,1.3-0.1c0.7,0,1.3,0.1,1.7,0.4
		c0.5,0.2,0.7,0.5,0.7,0.9c0,0.5-0.3,0.7-0.8,0.7c-0.2,0-0.5,0-0.7-0.1c-0.9-0.2-1.9-0.3-2.9-0.3c-2.7,0-5.4,0.4-8,1.1
		c-0.5,0.1-0.8,0.2-1.1,0.2c-0.3,0-0.6-0.1-1-0.3c-0.4-0.2-0.6-0.4-0.6-0.5c0-0.2,0.4-0.4,1.2-0.4l2.5-0.3l1.4-0.2
		c0.2,0,0.5-0.1,1-0.2L116.4,104.4z M114.9,89.2c0.4,0,0.7-0.1,1-0.1c1.9,0,2.8,0.7,2.8,2c0,0.6-0.2,0.9-0.6,0.9
		c-0.4,0-0.9-0.3-1.6-0.9C115.8,90.5,115.3,89.8,114.9,89.2z"/>
	<path class="st1" d="M141.3,98c-0.7,0.2-1.4,0.3-2.1,0.6c-1,0.3-1.7,0.5-2,0.5c-0.3,0-0.8-0.1-1.4-0.3s-0.8-0.4-0.8-0.5
		c0-0.2,0.4-0.3,1.2-0.3c0.2,0,0.6-0.1,1.2-0.2c0.3-0.1,0.6-0.1,0.9-0.2l2-0.3c0.1,0,0.5-0.1,1.2-0.3l0-1.1l0-2.4
		c0-1.9-0.2-3.1-0.7-3.6l-0.5-0.5c-0.1-0.1-0.1-0.1-0.1-0.2c0-0.2,0.2-0.4,0.5-0.4c0.6,0,1.2,0.1,1.8,0.4c0.6,0.3,1,0.6,1,0.8
		c0,0.1,0,0.2-0.1,0.4c-0.2,0.6-0.4,2.3-0.6,5.1c0,0.2,0,0.6-0.1,1.1c0.7-0.2,2-0.5,4.1-1c0.9-0.2,1.5-0.3,1.9-0.3
		c0.5,0,1,0.1,1.4,0.4c0.4,0.3,0.6,0.6,0.6,0.9c0,0.3-0.3,0.4-0.8,0.4l-1.6,0c-1.3,0-3.1,0.2-5.6,0.6c0,0.6-0.1,1.1-0.2,1.7
		c1.5,2.5,3.1,4.3,5,5.6c1.8,1.3,4.1,2.2,6.9,2.8c0.5,0.1,0.7,0.2,0.7,0.4c0,0.2-0.2,0.3-0.7,0.3c-0.1,0-0.4,0-0.9,0.1
		c-1.4,0.2-2.8,0.3-4.1,0.3c-0.7,0-1.4-0.3-2-1c-1.6-1.9-3.4-4.3-5.2-7.2c-0.6,2.2-1.5,3.9-2.7,5.1c-0.7,0.7-1.6,1.3-2.7,1.8
		c-1.1,0.5-1.9,0.8-2.6,0.8c-0.3,0-0.4-0.1-0.4-0.2c0-0.1,0.3-0.2,1-0.5C138.8,106.1,140.9,102.9,141.3,98z"/>
	<path class="st1" d="M165.4,93.1l0.3,13.1l0,0.8l0,1c0,0.9-0.2,1.4-0.6,1.4c-0.2,0-0.5-0.3-0.7-0.9s-0.4-1.1-0.4-1.6
		c0-0.2,0-0.5,0.1-0.8l0.2-0.9c0.2-0.8,0.3-2.1,0.3-3.8c0-3.3-0.1-5.5-0.2-6.5s-0.4-1.8-0.8-2.4c-0.1-0.1-0.1-0.1-0.1-0.2
		c0-0.2,0.2-0.3,0.5-0.3c0.1,0,0.3,0,0.4,0.1c0.4,0.1,0.8,0.2,1.1,0.2c0.5,0,1.1-0.2,1.7-0.6c0.8-0.5,1.4-0.8,1.7-0.8
		c0.3,0,0.7,0.1,1.1,0.4c0.4,0.2,0.6,0.4,0.6,0.6c0,0.1-0.2,0.4-0.5,0.6c-1.4,1.2-2.1,2.1-2.1,2.6c0,0.1,0,0.3,0.1,0.6l0.2,0.8
		l0.8,2c0.1,0.4,0.2,0.8,0.2,1.2c0,0.8-0.2,1.1-0.5,1.2c-0.1,0-0.4-0.1-0.8-0.4c-0.1-0.1-0.3-0.2-0.8-0.5c-0.3-0.2-0.5-0.3-0.7-0.5
		c-0.2-0.1-0.3-0.3-0.5-0.3c-0.2-0.1-0.3-0.2-0.3-0.2c0-0.1,0.2-0.2,0.5-0.2l0.8,0c0.1,0,0.2,0,0.2,0c0.2-0.1,0.3-0.2,0.3-0.3
		c0-0.4-0.1-0.9-0.3-1.5c-0.2-0.5-0.2-1-0.2-1.4c0-0.5,0.2-0.9,0.5-1.4c0.2-0.3,0.3-0.6,0.3-0.9c0-0.2-0.1-0.3-0.2-0.3
		c0,0-0.1,0-0.1,0c-0.1,0-0.3,0.1-0.6,0.2c-0.1,0-0.3,0.1-0.7,0.2C166,93,165.7,93.1,165.4,93.1z M175,98.8v-3.1
		c-0.7,0.2-1.3,0.3-1.9,0.3c-0.4,0-0.8-0.1-1.2-0.2c-0.4-0.1-0.6-0.3-0.6-0.4c0-0.2,0.3-0.3,0.8-0.3c0.5,0,1.2-0.2,2.1-0.4l0.8-0.2
		V94l0-1.7c-0.1-1-0.3-2-0.8-2.9c-0.1-0.1-0.1-0.2-0.1-0.3c0-0.3,0.2-0.4,0.5-0.4c0.5,0,1,0.2,1.5,0.5c0.5,0.3,0.8,0.7,0.8,1
		c0,0.1,0,0.2-0.1,0.3c-0.3,1-0.4,2.2-0.5,3.6c0.4-0.1,0.9-0.2,1.6-0.4c0.6-0.2,1.2-0.3,1.6-0.3c0.6,0,0.8,0.2,0.8,0.5
		c0,0.5-1.3,1-4,1.5l0,1.8l0,1.3l0.8-0.2c2.4-0.5,3.9-0.8,4.7-0.8c1.2,0,1.7,0.4,1.7,1.1c0,0.2-0.2,0.4-0.5,0.4l-1.8,0l-0.5,0
		c-0.8,0-2.3,0.1-4.5,0.4l0,2.5l0,3.5c0.4-0.1,0.8-0.1,1-0.1c0.6-0.1,0.9-0.1,1-0.1l0.9-0.1c0.1,0,0.4-0.1,0.8-0.1
		c0-1.6-0.2-2.7-0.6-3.4c-0.1-0.1-0.1-0.2-0.1-0.2c0-0.2,0.2-0.3,0.5-0.3c0.3,0,0.8,0.1,1.3,0.4c0.5,0.3,0.7,0.6,0.7,0.8
		c0,0.1,0,0.3-0.1,0.5c-0.2,0.7-0.3,1.5-0.3,2.4l0,2c0,0.1,0,0.2-0.1,0.4c-0.1,0.7-0.4,1.1-0.8,1.1c-0.4,0-0.6-0.4-0.6-1.3
		c0-0.1,0-0.5,0-1c0-0.3,0-0.5,0-0.7l-0.5,0.1l-1.6,0.2c-3.1,0.4-5,0.9-5.8,1.5l-0.7,0.5c-0.1,0.1-0.3,0.2-0.4,0.2
		c-0.2,0-0.4-0.2-0.6-0.5c-0.2-0.3-0.4-0.6-0.4-0.8c0-0.2,0.1-0.4,0.2-0.5l0.3-0.3c0.3-0.3,0.4-0.8,0.4-1.3c0-0.9-0.2-1.7-0.5-2.3
		c0-0.1,0-0.1,0-0.1c0-0.2,0.2-0.3,0.5-0.3c1,0,1.5,0.5,1.5,1.5c0,0.6-0.2,1.5-0.5,2.4c0.3,0,0.6-0.1,0.7-0.1l0.8-0.1
		c0.1,0,0.4-0.1,1-0.1c0.2,0,0.5-0.1,0.8-0.1v-5.9c-0.8,0.2-1.4,0.3-2,0.5c-1,0.3-1.7,0.4-1.9,0.4c-0.3,0-0.6-0.1-0.9-0.3
		c-0.3-0.2-0.5-0.3-0.5-0.5s0.3-0.2,0.9-0.3c0.1,0,0.4,0,0.8-0.1l1.3-0.2l1.4-0.3C174.3,98.9,174.6,98.9,175,98.8z"/>
	<path class="st1" d="M195.9,104.6c0-0.8-0.2-1.9-0.6-3.1c-0.1-0.4-0.2-0.7-0.2-0.9c0-0.4,0.2-1.1,0.5-2.2c0-0.1,0.1-0.2,0.1-0.4
		c-1.2,0.5-2.1,0.7-2.7,0.7c-0.2,0-0.4-0.1-0.7-0.2c-0.3-0.1-0.4-0.2-0.4-0.3c0-0.1,0.1-0.1,0.4-0.2l0.8-0.2c0.5-0.1,1-0.3,1.6-0.7
		l0.6-0.4c0.2-0.1,0.4-0.2,0.5-0.2c0.3,0,0.6,0.1,1.1,0.4c0.5,0.3,0.7,0.5,0.7,0.7c0,0.1-0.1,0.3-0.4,0.5c-0.8,0.7-1.2,1.4-1.2,2.1
		c0,0.1,0.1,0.4,0.2,0.7l0.3,0.8c0.2,0.6,0.3,1.1,0.3,1.5c0,0.2,0,0.5-0.1,1.1c0.4,0.1,0.6,0.2,0.7,0.2l2.2,0.6l2.7,0.8
		c2.2,0.7,4.5,1,7,1c0.1,0,0.8,0,2-0.1l1.8-0.1l0.4,0l0.6,0.2l-0.1,0.1c-0.1,0.1-0.5,0.3-1.2,0.6l-1.7,0.6c-1.4,0.5-2.5,0.8-3.2,0.8
		c-0.8,0-1.9-0.3-3.2-0.9c-4.5-2-7.4-3-8.6-3c-0.5,0-1.1,0.2-1.7,0.5c-0.7,0.4-1.1,0.6-1.2,0.6c-0.2,0-0.5-0.1-0.9-0.3
		s-0.5-0.4-0.5-0.5c0-0.2,0.3-0.3,0.8-0.4c0,0,0.3-0.1,0.7-0.2C194.3,104.8,195.2,104.7,195.9,104.6z M194,91.3
		c0.3,0,0.6-0.1,0.8-0.1c1.9,0,2.9,0.7,2.9,2c0,0.5-0.2,0.8-0.5,0.8c-0.3,0-0.8-0.3-1.5-0.9C195,92.6,194.5,92,194,91.3z
		 M205.1,95.3v2.2c0.2-0.1,0.4-0.1,0.5-0.1c0.5-0.2,0.9-0.2,1.1-0.2c0.6,0,0.8,0.1,0.8,0.4c0,0.2-0.6,0.4-1.9,0.7
		c-0.1,0-0.3,0.1-0.5,0.1v2c0.2-0.1,0.3-0.1,0.4-0.1l0.8-0.2c0.3-0.1,0.5-0.1,0.7-0.1c0.5,0,0.7,0.2,0.7,0.5c0,0.2-0.2,0.3-0.5,0.4
		l-0.7,0.1l-1.1,0.3c0,0-0.1,0-0.3,0.1l0,1.2c0,1.8-0.2,2.7-0.6,2.7c-0.3,0-0.4-0.5-0.4-1.5l0-1.2l0-1.1c-0.5,0.1-0.8,0.2-1.1,0.2
		c-0.7,0-1-0.1-1-0.3c0-0.1,0.3-0.2,0.8-0.3c0.1,0,0.4-0.1,0.7-0.2c0.1,0,0.3-0.1,0.6-0.2v-2c-0.5,0.1-0.9,0.2-1.3,0.2
		c-0.5,0-0.7-0.1-0.7-0.3c0-0.1,0.3-0.3,0.8-0.4c0.1,0,0.3-0.1,0.6-0.2c0.1,0,0.3-0.1,0.6-0.1l0-1.1l0-1.1c-0.3,0.1-0.7,0.1-1.2,0.2
		l-0.6,0.1c-0.3,0-0.5,0.1-0.7,0.1h-0.2c0.1,0.9,0.1,1.7,0.1,2.4v1.4c0,3.4-0.2,5-0.7,5c-0.2,0-0.4-0.2-0.6-0.5
		c-0.2-0.3-0.3-0.6-0.3-0.9c0-0.1,0-0.3,0.1-0.5c0.4-1.1,0.5-2.5,0.5-4.1c0-1.6-0.2-2.6-0.6-3.2c-0.1-0.1-0.1-0.2-0.1-0.3
		c0-0.2,0.1-0.3,0.3-0.3c0.1,0,0.2,0,0.4,0.1c0.3,0.1,0.5,0.2,0.7,0.2c0.2,0,0.4,0,0.6-0.1l1-0.2l2-0.4c0.9-0.2,1.8-0.4,2.6-0.7
		c0.3-0.1,0.5-0.1,0.6-0.1s0.3,0,0.4,0.1l0.6,0.3c0.6,0.3,1,0.5,1,0.8c0,0.1,0,0.2-0.1,0.3c-0.3,0.4-0.4,0.8-0.4,1.2
		c0,0.2,0,0.5,0,0.9l0.2,2.5l0.2,2.2c0,0.2,0,0.5,0,0.7c0,0.8-0.1,1.6-0.4,2.3s-0.6,1.1-1,1.1c-0.1,0-0.2-0.1-0.3-0.2l-0.7-1.1
		l-0.5-0.7c-0.2-0.3-0.4-0.5-0.5-0.6c-0.1-0.1-0.2-0.1-0.2-0.2c0-0.1,0.1-0.2,0.3-0.2c0.1,0,0.3,0,0.5,0.1l0.6,0.1l0.4,0.1l0.2-0.3
		c0-0.2,0.1-0.4,0.1-0.6v-1.7l-0.1-1.9c-0.1-1.8-0.2-2.9-0.3-3.4s-0.3-0.7-0.6-0.7c-0.1,0-0.2,0-0.3,0l-0.6,0.1l-0.9,0.2
		C205.5,95.3,205.3,95.3,205.1,95.3z M205.6,93.2c0,0.1,0,0.2,0,0.2c0,0.3,0.1,0.4,0.1,0.4c0,0.3-0.2,0.5-0.5,0.5
		c-0.2,0-0.7-0.4-1.5-1.2l-0.2-0.2l-0.4-0.4c-0.1-0.1-0.1-0.1-0.1-0.2c0-0.1,0.1-0.2,0.4-0.2c0.9,0,1.5,0.2,2,0.6
		c0.6-0.7,1-1.2,1.2-1.6c0.3-0.5,0.6-0.8,0.7-1c0.1-0.1,0.2-0.2,0.2-0.2c0-0.2-0.1-0.2-0.4-0.2c-0.3,0-0.6,0.1-0.9,0.2
		c-0.2,0.1-0.5,0.2-1.1,0.4c-0.4,0.1-0.7,0.3-1,0.4c-0.9,0.4-1.5,0.6-1.7,0.6c-1,0-1.7-0.3-2-1l0-0.1l0.4-0.2l0.5,0.1
		c0.2,0,0.4,0.1,0.8,0.1c0.9,0,2-0.2,3.2-0.6l1.4-0.4c0.6-0.2,0.9-0.3,1.1-0.3c0.3,0,0.8,0.2,1.5,0.6c0.6,0.4,1,0.7,1,1
		c0,0.2-0.2,0.3-0.6,0.4c-0.9,0.3-1.9,0.8-2.9,1.6l-0.6,0.5C205.9,93,205.8,93.1,205.6,93.2z"/>
	<path class="st1" d="M227.5,97.9c0.7,0.5,1,1.2,1,2.1c0,0.3,0,0.6-0.1,1.1l-0.1,1.4l-0.2,2.8c-0.1,2.3-0.5,3.4-0.9,3.4
		c-0.2,0-0.4-0.2-0.6-0.7c-0.2-0.5-0.3-0.9-0.3-1.3c0-0.2,0.1-0.4,0.2-0.8c0.5-1.5,0.7-3.3,0.7-5.4c0-0.8-0.1-1.6-0.2-2.2l-0.7,0.7
		c-1.7,1.7-3,2.7-3.8,3.1l-0.9,0.4c-0.2,0.1-0.4,0.1-0.5,0.1c-0.1,0-0.2,0-0.2-0.1c0,0,0.1-0.1,0.2-0.2c0.1,0,0.2-0.1,0.3-0.3
		c0.1,0,0.3-0.2,0.7-0.6c1.5-1.2,2.8-2.5,4.1-4s1.9-2.7,2.1-3.4c0.1-0.6,0.2-0.9,0.4-0.9s0.5,0.2,0.9,0.7c0.4,0.5,0.7,0.8,0.7,1
		c0,0.1-0.2,0.4-0.7,0.9l-0.8,0.8l-1.1,1C227.8,97.6,227.7,97.7,227.5,97.9z M228.9,88.1c0.3-0.1,0.7,0.1,1.2,0.6
		c0.5,0.4,0.8,0.8,0.8,1.1c0,0.1-0.2,0.4-0.7,0.7c0,0-0.3,0.3-0.8,0.7l-1.5,1.3l-1.4,1.3c-0.4,0.3-0.8,0.6-1.2,0.8l-0.7,0.3
		c-0.2,0.1-0.3,0.1-0.5,0.1s-0.2,0-0.2-0.1c0,0,0.1-0.1,0.2-0.2c1-0.7,2-1.7,3-3c1-1.3,1.5-2.2,1.5-2.7l0-0.5c0-0.1,0-0.2,0.1-0.2
		C228.8,88.2,228.8,88.2,228.9,88.1z M237.1,96.9c1,0.6,1.5,1,1.5,1.2c0,0.1,0,0.2-0.1,0.4c-0.1,0.3-0.1,0.7-0.1,1l0,0.4v2.5l0,4.3
		l-0.2,1.6c-0.1,0.5-0.3,1-0.6,1.4c-0.3,0.5-0.6,0.7-0.9,0.7c-0.2,0-0.4-0.2-0.8-0.7c-0.8-1-1.4-1.8-2-2.3c-0.1-0.1-0.2-0.2-0.2-0.2
		c0-0.1,0.1-0.2,0.3-0.2c0.1,0,0.3,0,0.5,0.1c0.1,0,0.3,0.1,0.6,0.2c0.4,0.1,0.7,0.1,0.9,0.2c0.1,0,0.2,0.1,0.3,0.1
		c0.3,0,0.4-0.2,0.5-0.7l0.1-1c0-0.4,0-1.5,0-3.1c0-2.7-0.2-4.6-0.6-5.7l-0.6,0.1c-1,0.2-1.7,0.4-2.1,0.5l-1.3,0.3
		c-0.3,0.1-0.5,0.1-0.7,0.1c-0.3,0-0.7-0.1-1.1-0.3c-0.4-0.2-0.6-0.3-0.6-0.4c0-0.1,0.3-0.2,1-0.2c0.6,0,1.4-0.2,2.4-0.4l2.3-0.5
		c0.7-0.1,1.4-0.3,2.2-0.5l2.8-0.7c0.6-0.2,1.2-0.2,1.7-0.2c0.5,0,1,0.1,1.5,0.4c0.5,0.3,0.7,0.5,0.7,0.8c0,0.4-0.5,0.5-1.4,0.5
		C241.4,96.5,239.3,96.6,237.1,96.9z M239.5,90.6c0.8,0,1.2,0.3,1.2,0.6c0,0.3-0.7,0.6-2.2,1s-2.7,0.6-3.6,0.6
		c-1.2,0-1.9-0.2-1.8-0.5c0-0.1,0.1-0.1,0.4-0.2c1.1-0.3,2.5-0.7,4.1-1.2C238.4,90.7,239,90.6,239.5,90.6z"/>
	<path class="st1" d="M256.8,105c0.4-0.3,0.7-0.7,1.1-1.2c0.6-0.6,1-1.1,1.4-1.4c0.2-0.2,0.4-0.3,0.4-0.4c0.1-0.1,0.2-0.1,0.2-0.1
		c0.1,0,0.2,0.1,0.2,0.2c0,0.1-0.1,0.3-0.2,0.5c0,0.1-0.2,0.3-0.5,0.7c-0.2,0.3-0.5,0.7-0.8,1.2c-1.2,1.6-1.9,2.7-2.1,3.1
		c-0.2,0.5-0.4,0.8-0.7,0.8c-0.2,0-0.5-0.2-0.8-0.7s-0.5-0.8-0.5-1.2c0-0.2,0.1-0.4,0.2-0.6l0.6-0.8l0.3-0.8
		c0.1-0.4,0.2-0.7,0.2-0.9V97c-0.3,0.1-0.4,0.2-0.5,0.3l-0.9,0.5c-0.8,0.5-1.5,0.7-1.9,0.7c-0.4,0-0.7-0.1-1.1-0.3s-0.6-0.4-0.6-0.6
		c0-0.2,0.2-0.3,0.7-0.2l0.2,0c0.2,0,0.5,0,0.8-0.1c1.3-0.2,2.2-0.7,2.8-1.4l0.4-0.5c0.2-0.2,0.4-0.3,0.6-0.3c0.4,0,0.8,0.1,1.3,0.3
		c0.5,0.2,0.7,0.4,0.7,0.6c0,0.1-0.1,0.2-0.2,0.4l-0.4,0.5c-0.5,0.5-0.7,2.6-0.7,6.1C256.9,103.4,256.9,104.1,256.8,105z
		 M254.6,89.6c0.5,0,0.9-0.1,1.2-0.1c2,0,3,0.7,3,2c0,0.5-0.2,0.7-0.7,0.7s-1-0.3-1.7-0.8C255.8,90.9,255.1,90.3,254.6,89.6z
		 M262.1,104.8c0-2.2-0.1-3.8-0.2-4.8s-0.4-1.8-0.9-2.3c-0.1-0.1-0.1-0.2-0.1-0.2c0-0.2,0.2-0.3,0.5-0.3c0.5,0,1,0.2,1.4,0.5
		c0.4,0.4,0.6,0.8,0.6,1.2c0,0.1,0,0.3-0.1,0.7c-0.1,0.3-0.1,0.7-0.1,1.3c0,0.1,0,0.5-0.1,1.3l-0.1,1.6l0,1c1-0.2,2-0.3,2.7-0.5
		l0-1.7l0-3l0-2.2c0-1.5-0.1-2.4-0.2-2.8l-0.2-0.7c0-0.1-0.1-0.3-0.1-0.5c-0.8,0.2-1.5,0.2-2,0.2c-0.5,0-1-0.1-1.4-0.2
		c-0.5-0.2-0.7-0.3-0.7-0.5c0-0.1,0.4-0.2,1.1-0.3c1.1-0.1,2.6-0.4,4.5-1l2.2-0.6c0.3-0.1,0.7-0.1,0.9-0.1c1,0,1.4,0.2,1.4,0.7
		c0,0.5-1,0.9-2.9,1.2l-1.6,0.3l-0.7,0.1c0.8,0.4,1.2,0.8,1.2,1.2c0,0.1,0,0.4-0.1,0.8c0,0.3-0.1,0.6-0.1,0.9l0,1
		c0,0.2,0,0.5-0.1,0.9l0.5-0.1c0.4-0.1,0.7-0.2,0.8-0.2l1-0.3c0.3-0.1,0.7-0.2,1-0.2c0.7,0,1,0.2,1,0.7c0,0.7-1,1-3,1
		c-0.3,0-0.8,0-1.3-0.1l0,1.9l-0.1,2.2l0,1.5c0.4-0.1,0.7-0.1,0.9-0.1l2.1-0.4c0.7-0.1,1.3-0.2,2-0.2c0.7,0,1.3,0.1,1.7,0.4
		s0.7,0.7,0.7,1.1c0,0.3-0.3,0.4-0.9,0.4c-0.3,0-0.7,0-1.2-0.1c-1.1-0.1-2.1-0.2-3-0.2c-2.5,0-4.7,0.3-6.7,0.8l-1.2,0.3
		c-0.3,0.1-0.6,0.1-0.8,0.1c-0.3,0-0.7-0.1-1.1-0.4c-0.4-0.2-0.6-0.5-0.6-0.6c0-0.2,0.2-0.3,0.6-0.3c0,0,0.4,0,0.9,0l0.9,0
		C261.5,104.8,261.7,104.8,262.1,104.8z"/>
</g>
<g>
	<path class="st1" d="M187.7,271.1c1.1-0.4,2-0.8,2.9-1.1c0.4,0.7,0.6,1.3,1,1.7c0.5,0.5,1.1,1.2,1.8,1.3c3.2,0.6,5.7,2.2,7.1,5.3
		c0.2,0.4,0.8,0.6,1.2,0.8c0.5,0.2,1,0.2,2,0.4c-2.1,0.5-3.5-0.2-4.3-1.6c-0.4-0.7-1-1.4-1.5-2.1c-1.1-1.3-2.7-1.9-4.2-2.1
		c-1.5-0.2-2.3-1-2.8-2.1c-0.4-0.9-0.8-1.1-1.6-0.5c-1,0.7-1.7,0.5-2.6-0.4c-2.7-2.7-6.3-3-9.5-0.8c-0.7,0.5-1.4,1-2.1,1.5
		c-0.9,0.7-1.9,0.8-3,0c-0.5,2.7-3.1,2.4-4.8,3.3c-1.9,1-3.6,2.1-4.5,4.1c-0.4,0.9-1,1.3-1.9,1.1c0.9-1.2,1.8-2.4,2.7-3.6
		c1.4-1.9,3.4-2.9,5.6-3.2c1.1-0.1,1.7-0.6,2-1.5c0.4-1,1.1-1.3,1.9-0.9c0.9,0.4,1.5,0,2.2-0.4c1.4-0.9,2.9-1.9,4.5-2.4
		c2.6-0.8,4.9,0.4,6.9,2C187.2,270.3,187.5,270.8,187.7,271.1z"/>
	<path class="st1" d="M220.9,281.2c2.6-0.5,5.3-0.9,7.8,0.6c2.4,1.4,3.6,3.7,4.4,6.5c1.8-2.8,3.2-5.6,7.1-4.6
		c3.2,0.9,5.5,2.6,6.2,5.9c1.1,0.1,2.1,0.1,3.1,0.3c1.9,0.3,3.2,1.6,3.8,3.4c0.3,0.9,0.8,1.2,1.7,1.3c1.8,0.2,3.3,0.9,4.4,2.3
		c0.3,0.4,0.4,0.8,0.6,1.3c-0.1,0.1-0.2,0.1-0.3,0.2c-0.7-0.6-1.4-1.3-2.2-1.9c-1.9-1-4.4-0.9-5.5-3.7c-0.8-2.2-2.8-2.7-5-2.4
		c-0.9,0.1-1.1-0.3-1.4-1c-1-3.1-3.6-4.4-6.4-5.1c-1.4-0.4-4.4,1.6-5,3.1c-0.1,0.3-0.3,0.7-0.5,1c-0.4,0.8-0.9,0.6-1.3,0
		c-0.3-0.5-0.4-1.1-0.7-1.7c-1.2-3-3.4-4.7-6.5-5.1C224,281.2,222.4,281.3,220.9,281.2z"/>
	<path class="st1" d="M127.7,285.5c-0.4-0.6-0.7-1.2-1.2-1.7c-2-1.9-5.5-1.3-6.9,1.1c-0.1,0.1-0.1,0.3-0.2,0.4
		c-0.7,2.2-2.1,3-4.5,2.8c-2.8-0.2-5,1.2-6.6,3.5c-0.4,0.5-0.5,1.2-0.9,1.9c-2.6,0.1-5.1,1-7,3.4c1.6,0.8,3,1.6,4.4,2.4
		c2.1,1.1,2.6-1.3,3.9-2.1c-0.4,2.2-1.6,3.2-3.4,2.9c-1.5-0.3-3.1-0.6-4-2.1c-0.3-0.5-1.2-0.7-2-1.1c0.6-0.7,1.1-1.5,1.9-2
		c1.5-0.9,2.9-2,4.8-1.9c0.4,0,1-0.4,1.2-0.8c1.3-2.9,3.6-4.3,6.7-4.6c1-0.1,2,0,2.9-0.1c0.4,0,0.8-0.4,1-0.7
		c0.9-1.2,1.7-2.6,2.7-3.6c1.2-1.3,3-1.4,4.6-0.8C126.6,282.8,127.6,283.9,127.7,285.5z"/>
	<path class="st1" d="M142.6,280.6c0.9-2.1,1.7-4.1,3.7-5.4c2.2-1.4,4.5-1.6,6.8-0.6c2.7,1.2,3,1.1,4.6-1.3c0.2,2.3-2,2.9-3.9,2.1
		c-1.4-0.6-2.8-1-4.4-0.9c-3.5,0.3-5,2.9-6.1,5.6c-0.5,1.2-1.2,1.2-1.8,0.9c-3.4-1.2-6.1,0.3-8.4,2.5c-1.8,1.6-3.2,3.6-4.7,5.5
		c-1.4,1.7-2.5,2.3-4,1.8c-0.4-0.2-0.7-0.6-1.2-1c1.1,0.2,2,0.7,2.7,0.5c0.8-0.2,1.5-0.9,2.1-1.6c1.5-1.8,2.8-3.8,4.5-5.4
		c2.4-2.4,5.4-3.8,9-2.8C141.8,280.6,142.2,280.6,142.6,280.6z"/>
	<path class="st1" d="M240.7,304.4c-0.5-0.2-0.8-0.2-0.9-0.4c-1.1-1.4-2-1.5-3.4-0.5c-1.9,1.3-2.7,3.3-3.1,5.5
		c-0.7,3.5-4.5,6.5-8,7.2c-2.8,0.6-4.8-0.5-6.9-1.6c-0.3-0.2-0.5-0.6-0.7-1c0.4,0.1,0.8,0,1.1,0.2c3.1,2.4,6.4,2.2,9.7,0.5
		c2.5-1.3,4-3.3,4.5-6.1c0.5-2.6,1.5-4.9,4.1-6C238.5,301.7,239.9,302.4,240.7,304.4z"/>
	<path class="st1" d="M217.1,287c1.8-1,3.4-2.2,5.3-2.8c2.8-0.9,6.2,1,7.3,3.9c1.2,3,3,5.3,5.9,6.6c2.9,1.3,4.8,0.6,6.3-2.2
		c0.1-0.2,0.3-0.3,0.5-0.6c-0.7,3.4-3.8,4.9-6.6,3.4c-0.9-0.5-2-0.7-2.7-1.3c-1-0.9-1.9-2-2.7-3.2c-0.7-1-1-2.1-1.7-3.1
		c-2.2-3.4-5.9-4.2-9.2-1.7c-0.7,0.5-1.4,1-2.1,1.6C217.4,287.4,217.2,287.2,217.1,287z"/>
	<path class="st1" d="M235.6,298.6c-0.8-0.6-1.6-1.3-2.4-1.9c-0.6-0.4-1.2-0.8-1.9-1.2c-0.6,1.3-3.4,3.5-5.5,2.9
		c-2.1-0.6-4.9-1.9-4.4-4.5c0.7,2.2,2.1,3.3,4.2,3.8c1.9,0.5,3.3-0.5,4.4-1.7c1-1.1,1.5-1.3,2.8-0.3c3.2,2.3,10,1.9,11.6-3.1
		c0-0.1,0.1-0.1,0.3-0.3c0.1,0.4,0.3,0.8,0.4,1.1c0,0,0,0,0,0c-0.6,0.7-1.2,1.4-1.8,2c-1.6,1.6-3.5,2.6-5.9,2.4
		C236.9,297.9,236.2,298.4,235.6,298.6C235.6,298.6,235.6,298.6,235.6,298.6z"/>
	<path class="st1" d="M121.1,300.6c0.3-1.2,1.2-1.7,2.7-1.4c2.5,0.5,3.6,2.4,4.7,4.4c0.9,1.6,1.9,3.3,3.2,4.5
		c2.3,2.1,5.2,3.2,8.4,2.7c0.6-0.1,1.2-0.5,1.8-0.7c0.5-0.2,1-0.5,1.5-0.7c0.1,0.2,0.2,0.3,0.3,0.5c-0.4,0.2-0.9,0.4-1.3,0.7
		c-1.2,1-2.6,1.1-4.1,0.9c-1.3-0.1-2.5-0.5-3.7-0.9c-1.3-0.5-2.7-1-3.8-1.8c-0.8-0.5-1.2-1.6-1.7-2.4c-0.7-1.3-1.2-2.8-2.1-3.9
		c-0.9-1.2-1.8-2.9-3.8-2.6C122.5,299.9,121.7,300.4,121.1,300.6z"/>
	<path class="st1" d="M206.5,299c0.3,0.2,0.7,0.6,1,0.6c3.7,0.9,5.9,3.4,7.4,6.6c2,4.2,5,6.1,9.4,5.8c2.5-0.2,4.1-1.7,5.4-3.6
		c0.2-0.3,0.4-0.6,0.8-1.1c-0.3,1.6-1.9,3.6-3.3,4.4c-3.1,1.6-6,1.5-8.8-0.6c-1-0.7-2.1-1.3-2.8-2.3c-0.8-1-1-2.4-1.6-3.4
		c-1.5-2.5-3.4-4.6-6.4-5.4c-0.5-0.1-0.8-0.5-1.2-0.8C206.4,299.1,206.5,299,206.5,299z"/>
	<path class="st1" d="M133.9,306c3.4,3.4,8.2,2.8,11.5-1.4c2.4-3,5.4-5.1,9.1-6.1c0.1,0,0.2,0,0.5,0.1c-1.5,0.7-3,1.2-4.2,2.1
		c-1.9,1.4-3.6,3-5.4,4.6c-1.3,1.2-2.6,2.3-4.1,3.2c-1.9,1-6.2-0.1-7.3-1.9C133.9,306.5,133.9,306.3,133.9,306z"/>
	<path class="st1" d="M208.2,296.6c0.7-0.1,1.4-0.1,2-0.3c2.9-0.5,4.8-2.3,6.5-4.5c1.5-1.9,3.1-3.8,5.4-4.8c2.3-0.9,4.4,0.1,5.1,2.8
		c-0.4-0.3-0.7-0.4-0.8-0.7c-0.8-1.8-2.3-2.2-4.1-1.5c-3.1,1.2-4.6,4-6.7,6.3c-1.7,1.9-3.9,2.8-6.3,3.3c-0.4,0.1-0.8-0.1-1.2-0.2
		C208.2,296.8,208.2,296.7,208.2,296.6z"/>
	<path class="st1" d="M143.3,313.5c0.1,0.2,0.3,0.5,0.4,0.7c1.4,3.4,4.2,4.8,7.9,3.9c1-0.2,2-0.6,3.1-0.6c1.7-0.1,3.2,1.5,3.1,3.4
		c-1.3-3.1-3.4-2.7-5.7-2c-4,1.1-7.5-0.9-8.8-4.4c-0.1-0.3-0.1-0.6-0.2-1C143.1,313.6,143.2,313.6,143.3,313.5z"/>
	<path class="st1" d="M227.6,307.5c-1.8,4.4-6.6,3.1-8.6,0.6c-1.3-1.5-2-3.5-3-5.3c-1.4-2.3-3.7-3.8-6.1-4.9
		c0.1-0.1,0.2-0.3,0.3-0.4c1.2,0.8,2.8,1.3,3.7,2.3c2,2.3,3.7,4.7,5.3,7.2c1.3,2.1,3.9,3.4,6.2,2.5
		C226,309.2,226.6,308.3,227.6,307.5z"/>
	<path class="st1" d="M135.3,288.8c1.2-3,4.7-3.5,7-1c1.7,1.8,3.2,3.9,5,5.7c2.1,2.2,4.8,2.9,7.7,2c-0.6,1-1,1.1-2.5,1
		c-3.6-0.3-5.9-2.6-8-5.2c-1.1-1.3-2.2-2.8-3.5-3.8c-1.7-1.3-3.8-0.9-5.1,0.8C135.8,288.4,135.6,288.5,135.3,288.8z"/>
	<path class="st1" d="M221,280.6c-0.4,0-0.6,0-0.8,0c0-0.2,0.1-0.3,0.1-0.5c-0.6-2.5-3.5-4.9-6.2-4.9c-1.5,0-3,0.3-4.5,0.2
		c-1.4-0.1-2.8-0.4-4.1-0.9c-1.1-0.4-0.9-1.4-0.9-2.2c0.6,0.7,1.1,1.5,1.8,1.9c0.8,0.4,1.8,0.5,2.8,0.6c1.1,0,2.2-0.2,3.3-0.3
		C216.8,274.4,219.6,276.4,221,280.6z"/>
	<path class="st1" d="M178.8,295.7c-3.1-0.9-6.2-1.7-9.3-2.6c0,0.1,0,0.2,0,0.3c-0.3-0.3-0.6-0.6-1-0.7c-2.4-0.8-4.9-1.6-7.3-2.4
		c-0.3-0.1-0.5-0.2-0.8-0.4c0.1-0.1,0.1-0.3,0.2-0.4c6.1,2,12.2,3.9,18.3,5.9C178.9,295.5,178.9,295.6,178.8,295.7z"/>
	<path class="st1" d="M166.7,316.6c3.9-5.3,7.8-10.5,11.7-15.8c0.1,0.1,0.3,0.2,0.4,0.3c-2,2.7-3.9,5.4-6,8.1
		c-2,2.5-3.5,5.4-5.7,7.8C167,316.9,166.9,316.8,166.7,316.6z"/>
	<path class="st1" d="M131.3,292c-2.9,2.3-5.7,4.4-9.7,2.3c0.4,0,0.5-0.1,0.7-0.1c2.9,1.1,5.3,0.1,7.6-1.7c1.6-1.3,1.6-1.3,2.6,0.5
		c1.5,3,4.6,3.7,7,1.6c0.4-0.3,0.6-0.8,1.1-1.5c-0.5,1.8-2.2,3.2-3.6,3.2C134,296.5,132.6,294.5,131.3,292z"/>
	<path class="st1" d="M182.5,295.9c6.3-2.2,12.6-4.4,18.8-6.6c0.1,0,0.2,0.1,0.6,0.3C195.4,292,189.2,294.6,182.5,295.9z"/>
	<path class="st1" d="M242.8,304.3c-0.3-0.6-0.6-1.2-0.9-1.8c-0.8-1.5-1.9-2.3-3.7-2c-1.6,0.3-3.2,0.7-4.2,2.2
		c-0.8,1.1-1.5,2.2-2.4,3.2c-0.6,0.8-1,0.5-1.2-0.1c0.5-0.5,1-0.8,1.2-1.2c1-1.8,2.4-3.2,4.3-4.2
		C239.4,298.8,243.1,300.7,242.8,304.3z"/>
	<path class="st1" d="M159.7,274.5c0.2,0.7,0.4,0.9,0.4,1.1c0,0.1-0.3,0.1-0.4,0.3c-0.2,0.1-0.4,0.3-0.4,0.5
		c-0.5,2.3-3.3,3.2-5.6,2.3c-3.1-1.2-6-0.1-7.7,2.9c-0.3,0.5-0.7,1-1.1,1.4c0.5-2,1.6-3.5,3.3-4.5c1.6-1,3.3-1.3,5.2-0.6
		c1,0.4,2.2,0.4,3.2,0.3c1.3-0.1,2-0.9,2.4-2.2C159.1,275.6,159.3,275.3,159.7,274.5z"/>
	<path class="st1" d="M152.4,297.3c-1,0.7-2,1.6-3.1,2c-2.7,1-4.1,3.4-6.3,5c-1.5,1.1-3,1.9-4.8,1.7c-1.3-0.2-2.2-0.9-2.6-2.4
		c2.9,2.6,4.4,2.6,7.3,0.1c2.7-2.3,5.1-5.1,8.6-6.4c0.3-0.1,0.6-0.2,0.9-0.3C152.4,297.1,152.4,297.2,152.4,297.3z"/>
	<path class="st1" d="M119.1,300.3c1.4-3,5.2-4.1,7.5-2.1c1.8,1.5,3.2,3.5,4.7,5.3c0.6,0.7,1,1.5,1.7,2.6c-0.5-0.4-0.9-0.6-1.2-0.9
		c-1.1-1.6-2.1-3.2-3.2-4.7c-2.1-3.1-6-3.4-8.7-0.8C119.8,299.8,119.6,299.9,119.1,300.3z"/>
	<path class="st1" d="M205.9,278.1c-0.9,1.4-2.5,1.3-3.6,0c-0.6-0.7-1-1.5-1.4-2.4c-1.1-2.2,0.4-4.9,2.8-5.1c0.4,0,0.9,0.3,1.7,0.5
		c-2.4,0.5-4.9,2.2-4.6,3c0.4,1.2,1.1,2.3,1.8,3.3C203.5,278.5,204.5,279,205.9,278.1z"/>
	<path class="st1" d="M245.4,305.3c0.1,4.4-2.6,5.6-6.6,5.8c-1.4,0.1-3.1-1.6-3-3.1c1.4,2.2,3.2,2.8,5.6,2.1
		C243.9,309.4,244.7,307.5,245.4,305.3z"/>
	<path class="st1" d="M180.6,305.4c0.5,0.7,0.9,1.4,1.5,2c3.8,3.2,7.7,6.4,11.6,9.6c0.1,0.1,0.3,0.2,0.5,0.3
		c-0.1,0.1-0.2,0.3-0.3,0.4c-0.8-0.5-1.6-1-2.3-1.6c-1.7-1.3-3.2-2.8-5-4c-2-1.3-3.4-3.3-5.3-4.7c-0.5-0.4-0.7-1.3-1-2
		C180.5,305.4,180.5,305.4,180.6,305.4z"/>
	<path class="st1" d="M209.9,282.5c0.7,0.2,1.4,0.3,2,0.6c1,0.5,0.7,1.2,0.3,2.1c-0.4,1.2-1.9,1.1-2.2,2.2c0,0.1-0.4,0.1-0.5,0.1
		c-1.8-0.8-3.6-1.7-5.4-2.6c0.1-0.1,0.1-0.3,0.2-0.4c0.3,0.1,0.5,0.3,0.9,0.5c-0.2-0.5-0.3-1-0.3-1.2c1.1,0.8,2.2,2,3.5,2.6
		c1.8,0.9,2.6-1.1,3.8-1.8c-0.2-1.9-1.9-0.3-2.7-1.2c0.5,0,0.8,0,1.1,0.1C210.4,283.1,210.2,282.8,209.9,282.5L209.9,282.5z"/>
	<path class="st1" d="M186.2,318.4c-0.5,3.5-3.1,5-5,4.9c-4-0.2-5.8-1.6-6-4.6c1.2,2.6,3,4.2,5.8,4
		C183.8,322.7,185.2,320.8,186.2,318.4z"/>
	<path class="st1" d="M116.7,304.5c-1.2,1.7-2.9,1.3-4.5,1.1c-2.1-0.2-3.8-0.6-4.8-4.6C109.4,305.3,112.8,305.6,116.7,304.5z"/>
	<path class="st1" d="M207,319.5c1.3,0.3,2.5,0.8,3.8,0.9c3,0.3,4.8-1.4,6.2-3.8c0.2-0.4,0.7-0.7,1.2-0.9c-0.3,0.4-0.6,0.7-0.8,1.1
		C215.1,321.6,210.4,322.5,207,319.5z"/>
	<path class="st1" d="M173.8,276.7c-4.6-0.5-5.7,4-8.6,5.6c0-1,0.1-1.2,1.4-2.2c0.9-0.7,1.7-1.6,2.5-2.5
		C170.1,276.1,172.5,275.5,173.8,276.7z"/>
	<path class="st1" d="M238.8,291.1c-1.2-1.7-1.2-1.7-3.2-0.7c-0.1-1.5,1.8-1.9,3-0.5c0.4,0.4,0.5,1.1,0.6,1.7c0,0.2-0.6,0.4-0.8,0.7
		c-0.2,0.2-0.3,0.6-0.4,0.9c-2.6-0.2-3.8-1.1-4.1-2.9c0.8,0.6,1.5,1.3,2.3,1.9C237.4,293,238,291.8,238.8,291.1z"/>
	<path class="st1" d="M193.5,279.9c0.2-1.6-0.8-2.8-2.4-2.8c-0.8,0-1.7,0-2.5-0.1c1.3-1.2,4.5-0.5,5.1,1.1c0.4,0.9,0.9,1.1,1.7,1.1
		c2.1,0,3,0.8,3.4,3.1C197.8,279.5,195.8,279.2,193.5,279.9L193.5,279.9z"/>
	<path class="st1" d="M162.3,288.8c0.8-0.2,1.7-0.3,2.7-0.5c0-0.1,0-0.2,0-0.3c-0.6,0-1.2,0-1.9,0c-0.6,0-1.4,0.5-1.5-0.5
		c2.1-0.1,4-0.3,5.9-0.4c0,0.1,0,0.1,0.1,0.2c-0.5,0.3-0.9,0.5-1.4,0.8c0,0.1,0,0.2,0,0.3c0.9,0,1.8,0,2.7,0c0,0.1,0,0.3,0,0.4
		C166.6,288.8,164.4,288.8,162.3,288.8z"/>
	<path class="st1" d="M132.1,287.5c-1.4,2.5-3.4,4.3-6,5.3c-1.7,0.7-3.9-0.2-4.3-2.5c0.1,0.1,0.3,0.1,0.3,0.2
		c1.7,2.2,3.8,2.4,5.9,0.6c1-0.9,2-1.9,3-2.8C131.3,288,131.7,287.8,132.1,287.5C132.1,287.5,132.1,287.5,132.1,287.5z"/>
	<path class="st1" d="M152.8,315.1c-3.4,1.8-6.2,0.3-7.1-4.2c0.9,1.9,1.7,4.1,4.1,4.3c2.5,0.2,3.8-1.5,4.7-3.8c0.1,1.8-1,2.7-2,3.6
		c0,0,0,0.2,0,0.2C152.5,315.2,152.7,315.1,152.8,315.1L152.8,315.1z"/>
	<path class="st1" d="M207,281.2c0.2-2.1,2.5-3.2,4.2-3.3c2.9-0.1,4.5,1.7,6,4.2c-0.5-0.2-1-0.2-1-0.3c-1.3-4-6.9-4.4-8.6-1.1
		C207.5,280.9,207.3,281,207,281.2z"/>
	<path class="st1" d="M149.2,308.2c0.9-2.2,2.6-3.2,4.6-2.8c2.2,0.4,3.9,2.5,3.9,5c-0.6-2-1.7-3.7-3.7-4.4
		C151.8,305.2,150.7,307.2,149.2,308.2z"/>
	<path class="st1" d="M155.6,300.7c-3.4,1.8-7.2,3.3-8.5,7.9C146.7,305.4,150.9,301.4,155.6,300.7z"/>
	<path class="st1" d="M207,293.4c1.5-1.2,3-2.2,4.2-3.4c1.2-1.2,2.1-2.7,3.4-4c-0.2,0.5-0.3,1.1-0.6,1.5c-1.4,2.4-3.4,4.2-5.8,5.6
		C207.8,293.2,207.4,293.3,207,293.4z"/>
	<path class="st1" d="M132.1,287.5c2.7-3.8,7.7-6,12.3-1.7c-0.4-0.2-0.8-0.3-1.1-0.6c-3.3-2.3-7.3-1.1-9.5,1.1
		C133.3,286.8,132.7,287.1,132.1,287.5C132.1,287.5,132.1,287.5,132.1,287.5z"/>
	<path class="st1" d="M125.5,304.9c-0.2,1.4-1.1,2.1-2.3,2.6c-1.7,0.7-3.2,0.3-4.3-0.9c-0.8-0.8-1.3-1.9-2-2.9
		c0.1-0.1,0.3-0.2,0.4-0.3c0.3,0.4,0.5,0.7,0.8,1.1c0.8,1.2,1.7,2.4,3.2,2.6c1.5,0.2,2.6-0.3,3.4-1.6
		C124.9,305.3,125.3,305.1,125.5,304.9L125.5,304.9z"/>
	<path class="st1" d="M145.4,287c2.1,4.4,5.2,7.1,10.2,7.2c-2.1,0.6-4-0.1-5.7-1.1C147.4,291.5,145.3,288.6,145.4,287z"/>
	<path class="st1" d="M175.6,275.8c-0.5-0.1-1.1-0.2-1.7-0.2c0-0.2-0.1-0.4-0.1-0.5c1.2-0.5,2.4-1.2,3.7-1.4c1.2-0.3,2-0.5,2.3-1.9
		c0.1-0.7,0.6-1.3,1-2c0.1,0.3,0.3,0.6,0.2,0.8c-0.4,1-0.8,2-1.3,3c-0.2,0.3-0.8,0.5-1.3,0.6c-0.9,0.3-1.8,0.5-2.7,0.8
		C175.6,274.9,175.7,275.3,175.6,275.8z"/>
	<path class="st1" d="M152.8,315.1c2.3-1.1,5.1-0.1,6.5,2.3c0.6,1.1,0.6,1.7,0.1,2c-0.4-0.8-0.7-1.8-1.2-2.5
		c-0.9-1.1-2.2-1.3-3.6-1.4C153.9,315.4,153.3,315.2,152.8,315.1C152.8,315.1,152.8,315.1,152.8,315.1z"/>
	<path class="st1" d="M163.4,284.3c0.1,0.2,0.3,0.5,0.3,0.6c-2.3,1.9-4.4,4.3-7.9,2.6c0.3,0,0.5-0.1,0.8,0c1.9,0.3,3.6,0.3,4.8-1.6
		C161.9,285.2,162.7,284.8,163.4,284.3C163.4,284.3,163.4,284.3,163.4,284.3z"/>
	<path class="st1" d="M117.7,291.5c-4.8-0.5-6.6,0.3-7.4,3.2c-0.4-0.9,0.1-2.2,1.1-2.9C113.5,290.2,116,290,117.7,291.5z"/>
	<path class="st1" d="M174.6,277.4c0,0,0.3-0.1,0.7-0.3c0.5,1,0.9,1.9,1.5,3.2c0.7-2.1,1.3-3.8,2-5.4c0.1,0,0.3,0.1,0.4,0.1
		c-0.1,0.5-0.2,0.9-0.4,1.4c-0.4,1.2-0.7,2.3-1.2,3.5c-0.1,0.4-0.6,0.6-0.9,0.9c-0.3-0.3-0.6-0.6-0.8-1
		C175.4,278.9,175,278.2,174.6,277.4z"/>
	<path class="st1" d="M235.6,307.4c-0.1,0-0.3,0.1-0.9,0.1c0.2-0.8,0.4-1.4,0.5-2.1c0.3-0.9,1.1-1,1.6-0.6c1.2,0.9,2.1,0.5,3.1-0.2
		c0.2-0.1,0.4-0.1,0.6,0c-1,0.8-1.7,2-3.3,1.4c-0.5-0.2-1.4-0.5-1.7,0.5C235.6,306.8,235.6,307.1,235.6,307.4z"/>
	<path class="st1" d="M252.5,295.2c0.3,1.7-0.8,2.4-1.7,3.1c-1,0.7-2,0.2-3.8-2c0.4,0,0.8-0.1,1,0c2,1.9,2.9,1.7,4.1-0.7
		C252.2,295.5,252.3,295.4,252.5,295.2z"/>
	<path class="st1" d="M243.3,291.5c-0.7-1-1.3-2.2-2.2-3.1c-1.1-1.1-2.5-1.5-4.1-0.8c0.8-1,1.7-1.1,2.8-0.7
		C242.1,287.7,243.4,289.5,243.3,291.5z"/>
	<path class="st1" d="M164.3,317.8c0.6-1.3,1.2-2.6,1.7-3.9c0.1,0,0.2,0.1,0.3,0.1c-0.4,1.1-0.7,2.2-1.2,3.3c-0.2,0.4-0.4,1-0.7,1.1
		c-0.4,0.1-1.1-0.2-1.2-0.6c-0.5-1.2-0.9-2.5-1.3-3.8c0.1,0,0.2-0.1,0.4-0.1c0.5,1.3,1,2.6,1.5,3.9
		C164,317.8,164.2,317.8,164.3,317.8z"/>
	<path class="st1" d="M155.1,286.6c-1,0.2-2.1,0.6-3.1,0.6c-1.5-0.1-2-0.9-2.5-2.9c0.9,1.6,1.8,2.7,3.6,2.3c1.2-0.3,2.1-0.8,2.5-2
		c0.4-1.2,0.4-1.1,1.3-0.9C156.3,284.7,155.7,285.7,155.1,286.6z"/>
	<path class="st1" d="M246,305.8c3.6,1.6,5.1-1.1,7-3.1C251.4,306.6,248.1,308.2,246,305.8z"/>
	<path class="st1" d="M208.2,316.4c3.1,1.6,5,0.4,6.2-2.2c0.3-0.6,0.6-1.1,1-1.6c-0.8,2-1,4.5-3.7,4.9
		C210.4,317.8,209,317.6,208.2,316.4z"/>
	<path class="st1" d="M157.3,271.5c0.7-1.1,1.5-0.6,2.4-0.2c1.8,0.9,2.6,2.4,2.7,4.4C162.3,275.6,157.3,271.5,157.3,271.5z"/>
	<path class="st1" d="M152.6,281.6c-1.2-0.6-2.2-2.1-3.6-0.7c-0.9,1-1.7,2-2.4,2.8c-0.2-1.5,1.2-3.5,3-4
		C151,279.4,152.1,280.1,152.6,281.6z"/>
	<path class="st1" d="M223,294.8c2.7,0.7,4.8-0.1,6.4-2.3C228.8,295.5,225.7,296.6,223,294.8z"/>
	<path class="st1" d="M213.5,309.5c-0.9-3.4-3.1-5.7-6.3-7.4C210.4,302.4,213.3,305.8,213.5,309.5z"/>
	<path class="st1" d="M201.6,305.4c0.1,2.3-1.6,3.3-3.3,3.6c-2.1,0.4-3.1-1.7-4.1-3.3c0.5,0.5,1,1,1.6,1.5c1.9,1.9,4.2,1.5,5.4-1
		C201.3,305.9,201.4,305.6,201.6,305.4z"/>
	<path class="st1" d="M147.6,286.3c1.6,2.9,3.8,5,7.4,5.3c-0.4,0-0.8,0.2-1.2,0.1C149.2,290.5,149.2,290.1,147.6,286.3z"/>
	<path class="st1" d="M252.8,300.4c2.4,0.2,4.3-0.6,5.9-2.5c0,1.5-0.6,2.2-2.6,2.8C255,301.1,253.8,301.5,252.8,300.4z"/>
	<path class="st1" d="M166,319.4c3,1.2,5.7,2.2,8.3-0.6C173.5,321.4,168.6,322.3,166,319.4z"/>
	<path class="st1" d="M202.8,287.5c-1.1-1.5-2-2.8-2.8-4c0.2,0,0.6-0.1,0.8-0.2c0.3,0.5,0.7,0.8,0.8,1.2c0.7,2.5,2.3,3.2,4.9,2.2
		C205.6,287.8,205.6,287.8,202.8,287.5z"/>
	<path class="st1" d="M215.6,298.1c2,2.5,4.6,4.4,6.7,3.4c-0.3,1.1-0.3,1.1-2,0.8C218.4,301.9,216,299.9,215.6,298.1z"/>
	<path class="st1" d="M182.1,297.8c2.8,0.7,5.4,1.4,7.9,2C189.1,300.5,183.8,299.3,182.1,297.8z"/>
	<path class="st1" d="M170.5,287.2c-1.4,0.6-2.4,0.2-3.3-0.9c-0.2-0.2-0.6-0.4-0.8-0.6c-0.5-0.4-0.9-0.9-1.3-1.4
		c0.1-0.1,0.3-0.3,0.4-0.4c0.5,0.5,1.1,0.9,1.6,1.4c0.9,0.9,1.9,1.4,3.1,1.3C170.3,286.9,170.4,287,170.5,287.2z"/>
	<path class="st1" d="M249.7,295.9c1.3-1.5,1.1-2.5-0.5-3c-1.1-0.4-2.3-0.4-3.4-0.5c1-1.4,4.8-0.1,5.3,1.3
		C251.3,294.5,251.1,295.4,249.7,295.9z"/>
	<path class="st1" d="M235.6,298.6c-1.1,0.7-2.2,1.5-3.4,2.1c-0.3,0.2-0.9,0.3-1.2,0.2c-0.9-0.6-1.8-1.3-2.7-2
		c0.1-0.1,0.1-0.2,0.2-0.3c0.9,0.6,1.9,1.2,2.9,1.9c0.8-0.5,1.6-1.1,2.5-1.5C234.5,298.8,235.1,298.8,235.6,298.6
		C235.6,298.6,235.6,298.6,235.6,298.6z"/>
	<path class="st1" d="M119.3,293.2c-3-0.2-5.7-0.4-7.2,2.4C112.4,293.1,116.9,291.4,119.3,293.2z"/>
	<path class="st1" d="M161.6,318.6c-0.4-0.2-0.7-0.3-1.1-0.4c0.9-3-2.1-3.2-3.2-4.7C159.5,313.5,160.9,315,161.6,318.6z"/>
	<path class="st1" d="M166.2,312.4c0.6-1.5,1-2.6,1.4-3.7c0.1,0.1,0.3,0.1,0.4,0.2c-0.4,1.2-0.8,2.4-1.3,3.6
		c-1.6,0.2-2.5-0.8-2.2-2.6c0.3,0.4,0.5,0.7,0.8,1.1C165.6,311.4,165.8,311.8,166.2,312.4z"/>
	<path class="st1" d="M186.4,280.2c0.4-0.6,0.7-1.1,1.1-1.7c0.2,0.1,0.3,0.2,0.3,0.2c-0.4,0.7-0.9,1.4-1.4,2.1
		c-0.4-0.8-0.8-1.5-1.1-2.3c-0.4-1.1-0.7-2.2-1.1-3.2c0.2-0.1,0.3-0.1,0.5-0.2C185.2,276.8,185.8,278.4,186.4,280.2z"/>
	<path class="st1" d="M161.4,277.4c-0.2,2.1-3.5,3.6-5.5,2.5C158.1,279.8,160.1,279.4,161.4,277.4z"/>
	<path class="st1" d="M198.3,283c0,1.5-1.2,2.3-2.1,3.1c-1.7,1.5-2.5,1.5-4,0.4C195.8,287.5,196.3,284.5,198.3,283z"/>
	<path class="st1" d="M227.7,306.6c-0.2-0.1-0.4-0.3-0.5-0.4c-1.4-1.4-2.2-1.6-4-0.7c-0.3,0.2-0.8,0.1-1.2,0.2c0-0.1,0-0.3-0.1-0.4
		c1.1-0.3,2.2-0.9,3.4-0.9C226.5,304.3,227.5,305.2,227.7,306.6z"/>
	<path class="st1" d="M181,314.4c0.9,3.4,1.4,5,5,2.6c-0.7,0.6-1.4,1.7-2,1.6C181.5,318.4,180.9,317.4,181,314.4z"/>
	<path class="st1" d="M166.6,298.4c0,0.2,0,0.6,0,0.8c-1.9,1.3-3.9,1.2-6,0.3c0.6,0,1.3,0,1.9,0c0.8,0,1.5,0.1,2.3-0.1
		C165.4,299.2,165.9,298.7,166.6,298.4z"/>
	<path class="st1" d="M189,275.2c-0.9,0.3-1.3,0.5-1.8,0.6c0.1-0.2,0.1-0.3,0.2-0.5c-0.5-0.4-1-0.9-1.6-1c-1.4-0.1-2-0.5-2.1-1.8
		C185.3,273.4,186.9,274.2,189,275.2z"/>
	<path class="st1" d="M220.7,293.9c-0.5,0.4-0.9,0.9-1.4,1.2c-1.6,1-3.2,2-4.8,3c1.3-2.4,4.1-2.9,6-4.5
		C220.6,293.7,220.7,293.8,220.7,293.9z"/>
	<path class="st1" d="M176.6,288.9c1.7,2.3,3.2,4.4,4.7,6.4C180.5,295.3,177,290.9,176.6,288.9z"/>
	<path class="st1" d="M175.5,316.6c1.5,1.5,3,2.9,5.2,1c0.1,0.1,0.2,0.3,0.2,0.4c-0.6,0.4-1,1.1-1.7,1.3
		C178.2,319.6,176.1,318.2,175.5,316.6z"/>
	<path class="st1" d="M209.9,282.4c-0.2,0-0.5,0.1-0.8,0.2c0.4-1.3,1-2.3,2.5-2.3c1.5,0,3,1.3,3.3,3.2c-0.6-0.7-1-1.2-1.5-1.6
		c-0.6-0.4-1.3-0.9-2-0.9C210.6,280.9,210,281.6,209.9,282.4C209.9,282.5,209.9,282.4,209.9,282.4z"/>
	<path class="st1" d="M211.6,309.9c-1.1-3.4-3.6-2.1-6-1.6c1.2-1.1,3.4-1.6,4.6-1C211.3,307.8,211.7,308.5,211.6,309.9z"/>
	<path class="st1" d="M220.1,291.7c0.4,0,0.8-0.2,1.1-0.1c3,1,3,1,5.1-0.8c-0.2,1.1-1.6,2.3-2.6,2.1c-1.2-0.2-2.3-0.5-3.5-0.8
		C220.2,292,220.2,291.8,220.1,291.7z"/>
	<path class="st1" d="M173.8,282.6c-1.4,1.6-1.6,1.6-2.7,0.3c-0.5-0.6-1.1-1.1-1.6-1.8c-0.3-0.4-0.3-0.9-0.2-1.5
		c0.5,0.7,0.9,1.4,1.4,2.1C171.5,282.7,172.3,283.8,173.8,282.6z"/>
	<path class="st1" d="M124.3,305c-2.6,0.5-4.2-0.6-4.6-3C120.6,303.8,122.2,304.7,124.3,305z"/>
	<path class="st1" d="M225.7,302.9c0.8-1.3,2-1,3-0.7c1.3,0.4,1.7,1.6,2.1,2.8C229.4,303.6,228.3,301.6,225.7,302.9z"/>
	<path class="st1" d="M166.3,303.8c0.6,0.6,1.2,1.3,2,2.2c0.5-1.2,0.9-2.2,1.3-3.2c0.1,0,0.2,0.1,0.3,0.1c-0.3,1-0.5,2-0.9,3
		c-0.1,0.3-1,0.5-1.2,0.3c-0.7-0.6-1.2-1.4-1.8-2.1C166.1,304,166.2,303.9,166.3,303.8z"/>
	<path class="st1" d="M199.9,309.3c3.5,0.6,5.1-1.7,6.4-4.3C205.8,308.3,202.5,310.5,199.9,309.3z"/>
	<path class="st1" d="M109.8,299.9c1.3,2.1,3.3,2.9,5.6,3.3C113,303.8,110.9,302.6,109.8,299.9z"/>
	<path class="st1" d="M172.2,278.8c0.4,0.6,0.9,1.1,1.3,1.7c0.8,0.9,1,2.6,3,1.5c0,0.2,0,0.3,0,0.5c-0.4,0.2-0.8,0.6-1.1,0.5
		c-0.7-0.3-1.5-0.6-2-1.2c-0.6-0.8-1-1.8-1.4-2.7C172.1,278.9,172.1,278.9,172.2,278.8z"/>
	<path class="st1" d="M195.9,296.4c1.9-0.2,3.5-0.4,5-0.4c1.1,0,1.8-0.4,2.1-1.5c0.2,1-0.1,1.8-1.1,1.9c-1.6,0.2-3.2,0.3-4.8,0.4
		C196.7,296.8,196.4,296.6,195.9,296.4z"/>
	<path class="st1" d="M163.4,309.9c-0.6,1.1-1.1,2.2-1.8,3.6c-0.9-0.3-1.8-0.6-2.7-1c0.1-0.2,0.1-0.3,0.2-0.5c0.6,0.3,1.3,0.6,2.1,1
		c0.6-1.1,1.2-2.2,1.8-3.4C163,309.7,163.2,309.8,163.4,309.9z"/>
	<path class="st1" d="M245.2,293.6c0.9-0.1,1.9-0.2,2.8-0.3c0.5,0,1.1,0.2,1.9,0.4C248.3,294.7,246,294.5,245.2,293.6
		C245.3,293.6,245.2,293.6,245.2,293.6z"/>
	<path class="st1" d="M125.5,304.9c-0.3-0.8-0.5-1.6-0.9-2.2c-0.2-0.3-1.1-0.5-1.4-0.3c-1,0.8-1.3,0.1-1.7-0.4
		c0.6-0.1,1.2-0.2,1.7-0.3c1.2-0.3,1.9,0.5,2.4,1.3C126,303.6,126.8,304.5,125.5,304.9C125.5,304.9,125.5,304.9,125.5,304.9z"/>
	<path class="st1" d="M203.3,275.2c1.5,0.6,2.7,2.4,4.5,0.8C206.8,278,206.3,277.9,203.3,275.2z"/>
	<path class="st1" d="M196.2,287c1.8,0,3.6,0,5.6,0c-1.9,1-3.7,0.5-5.5,0.4C196.3,287.2,196.2,287.1,196.2,287z"/>
	<path class="st1" d="M197.9,311.7c-0.1,1.3-1,1.8-2.1,1.9c-0.3,0-0.8-0.9-1.1-1.4c-0.3-0.7-0.4-1.4-0.3-2.2
		c0.4,1.1,0.8,2.1,1.2,3.5C196.5,312.8,197.2,312.3,197.9,311.7z"/>
	<path class="st1" d="M245.7,301.2c-1.3-1.2-2.5-2.3-3.8-3.5c0.1-0.1,0.3-0.3,0.4-0.4c1.3,1.2,2.5,2.3,3.8,3.5
		C245.9,300.9,245.8,301.1,245.7,301.2z"/>
	<path class="st1" d="M196.7,301.1c1.6,0.2,3.4,0.3,5,0.5C200.7,302.9,198.3,302.7,196.7,301.1z"/>
	<path class="st1" d="M209.2,313.5c1.5,1.6,1.5,1.6,3.7-1.1c-0.1,1.4-1.3,3.1-2.2,3C209.6,315.4,209.3,314.6,209.2,313.5z"/>
	<path class="st1" d="M212.9,292.2c0.1-0.2,0.2-0.5,0.4-0.7c1.3-1.1,2.3-2.4,2.7-4.1c0-0.2,0.2-0.4,0.4-0.5
		C216,289.2,215.5,291.3,212.9,292.2L212.9,292.2z"/>
	<path class="st1" d="M165.6,301.6c-1,1.6-2.4,1.5-3.6,1.3c-0.7-0.1-1.2-0.9-1.7-1.7C161.8,303.6,163.7,302.2,165.6,301.6z"/>
	<path class="st1" d="M188.8,319.2c1.8,2,3.9,1.4,6.1,0.6C193.3,321.7,190.1,321.3,188.8,319.2z"/>
	<path class="st1" d="M212.9,292.1c-0.1,0.3,0,0.8-0.2,0.8c-1.4,0.7-2.8,1.3-4.3,1.9c-0.2,0.1-0.6-0.1-0.8-0.1
		C209.4,293.9,211.2,293.1,212.9,292.1C212.9,292.2,212.9,292.1,212.9,292.1z"/>
	<path class="st1" d="M159.1,307.6c-1.6-0.7-1.9-2.3-2.7-3.6c-0.2-0.3-0.3-0.7-0.4-1.2c0.2,0.1,0.5,0.1,0.5,0.2
		c0.9,1.4,1.8,2.7,2.7,4.1C159.3,307.2,159.2,307.4,159.1,307.6L159.1,307.6z"/>
	<path class="st1" d="M159,296c-1.9-0.5-3.4-2.5-3.4-4.2C156.6,293.1,157.9,294.6,159,296z"/>
	<path class="st1" d="M159.1,293.4c0.9,2.4,2.8,2.9,5.1,2.5C161.5,297.2,159.3,295.8,159.1,293.4z"/>
	<path class="st1" d="M186.3,315.2c1.5,2.6,2.3,2.9,4.2,1.6c-0.6,1.3-0.9,1.4-2.4,1.2C186.9,317.8,186.5,317.3,186.3,315.2z"/>
	<path class="st1" d="M117.2,299.5c-0.4,0.8-0.8,1.6-1.9,1.2c-1.6-0.4-2.3-1.1-2.4-2.4C115.2,300.6,115.3,300.6,117.2,299.5z"/>
	<path class="st1" d="M162.4,282.4c0.4,0.1,0.8,0.3,1.1,0.4c0.5,0.2,1,0.3,1.6,0.6c-0.1,0.8-1,0.8-1.8,0.9c0,0,0,0,0,0
		c0-0.2,0.1-0.5,0-0.5c-0.3-0.1-0.7-0.2-1-0.3C162.4,283.1,162.4,282.7,162.4,282.4z"/>
	<path class="st1" d="M159.1,307.6c0.3,0,0.7,0,1,0.1c1,0.2,1.9,0.5,3.1,0.8c0-0.1,0,0.2,0,0.5C161.6,309.1,160.2,308.9,159.1,307.6
		C159.1,307.6,159.1,307.6,159.1,307.6z"/>
	<path class="st1" d="M242.2,305.9c-0.2,1.5-1.8,2.7-3.4,2.6C239.9,307.6,241.1,306.8,242.2,305.9z"/>
	<path class="st1" d="M203.2,313.9c-1.2,1.5-2.3,2.9-3.4,4.2C200,316.1,201.3,314.9,203.2,313.9z"/>
	<path class="st1" d="M170.4,300.9c-1.7,1.6-3.5,2.1-4.4,1.5C167.3,301.9,168.7,301.5,170.4,300.9z"/>
	<path class="st1" d="M157.5,322.2c2-0.1,2.3-1.7,3-3c0.3,1.5-0.6,2.4-1.6,3.2c-0.3,0.3-0.9,0.2-1.3,0.4
		C157.6,322.5,157.6,322.4,157.5,322.2z"/>
	<path class="st1" d="M136.1,299.3c-1,1.1-2.1,2.4-3,3.4C133.1,301.2,134.6,299.5,136.1,299.3z"/>
	<path class="st1" d="M135.8,290.7c1.8,1.3,2.4,1.3,3.8-0.6c0.2-0.3,0.7-0.4,1.2-0.4c-0.5,0.5-0.9,1.2-1.5,1.6
		c-0.6,0.4-1.5,0.6-2.2,0.5C136.6,291.8,136.2,291.1,135.8,290.7z"/>
	<path class="st1" d="M170.2,285.8c-1.1-1.1-2.1-2-3-2.8c0.1-0.1,0.2-0.3,0.4-0.4c0.9,0.8,1.7,1.6,2.6,2.5c0.3-0.3,0.6-0.6,0.9-0.9
		c0.1,0.1,0.2,0.1,0.3,0.2C171,284.8,170.7,285.2,170.2,285.8z"/>
	<path class="st1" d="M168.2,306.9c-1.7,1.7-3.6,1.7-5,0C164.8,308,166.5,307.5,168.2,306.9z"/>
	<path class="st1" d="M134.9,303.2c0.7-2.3,1.8-2.9,3.6-2.4c0.4,0.1,0.8-0.1,1.3,0.1c-0.3,0.2-0.8,0.6-1,0.5c-1.6-0.8-2.4,0-3.2,1.2
		C135.6,302.8,135.3,302.9,134.9,303.2z"/>
	<path class="st1" d="M162.4,282.4c0,0.3,0,0.7,0,1c-0.5-0.1-1-0.2-1.5-0.3c0,0.1,0,0.1,0,0.2c-0.6-0.1-1.3-0.2-1.9-0.3
		c0-0.1,0-0.3,0-0.4C160.1,282.6,161.3,282.5,162.4,282.4z"/>
	<path class="st1" d="M120.7,295.8c-1.1,1.1-2.3,2.1-3.4,3.2c-0.1-0.1-0.2-0.3-0.3-0.4c1.2-1,2.3-2.1,3.5-3.1
		C120.5,295.5,120.6,295.6,120.7,295.8z"/>
	<path class="st1" d="M175,316.7c-0.3,0.5-0.7,1.1-1,1.6c-1.2-0.6-2.7-0.4-3.2-2.3c1.4,0.8,2.6,2.6,4,0.4
		C174.8,316.5,174.9,316.6,175,316.7z"/>
	<path class="st1" d="M185.7,321.9c0.6,0.4,1.1,0.7,1.9,1.2c0.5-0.6,1-1.2,1.4-1.7c0.1,0.1,0.2,0.2,0.3,0.2c-0.5,0.6-1,1.7-1.6,1.8
		c-0.7,0.1-1.5-0.7-2.3-1.1C185.6,322.2,185.7,322.1,185.7,321.9z"/>
	<path class="st1" d="M166.2,304.6c-1.6,1.7-3.8,2.2-4.2,1.3C163.3,305.5,164.7,305.1,166.2,304.6z"/>
	<path class="st1" d="M151.8,311.1c-0.4,1.8-1.4,1.9-2.6,1.6c-1.1-0.2-1.4-1.2-1.6-2.1C149.8,312.8,150,312.8,151.8,311.1z"/>
	<path class="st1" d="M193.5,279.9c-0.8,0.9-1.5,1.9-2.3,2.8c-0.5,0.5-1.1,0.9-2-0.1c2,0.4,2.4-1.2,3.3-2.1
		C192.7,280.2,193.1,280.1,193.5,279.9C193.5,279.9,193.5,279.9,193.5,279.9z"/>
	<path class="st1" d="M203.8,295.5c0.9-1.4,1.8-2.8,2.8-4.2C206.2,293.6,205,295.5,203.8,295.5z"/>
	<path class="st1" d="M191.4,273.5c-0.6,0.3-1.1,0.8-1.7,0.8c-0.3,0-0.7-0.6-1-1c-0.2-0.4-0.3-0.9-0.4-1.2c0.8-0.5,0.6,1.3,1.4,1.7
		c0.5-0.3,0.9-0.5,1.4-0.8C191.2,273.3,191.3,273.4,191.4,273.5z"/>
	<path class="st1" d="M170.5,287.2c-0.1-0.1-0.2-0.3-0.3-0.4c1.2,0,2.3,0,3.6,0C173.1,287.7,171.9,287.9,170.5,287.2z"/>
	<path class="st1" d="M107.8,294.4c0.8,0.8,1.5,1.7,2.3,2.5C109.5,297.8,109.3,297.7,107.8,294.4z"/>
	<path class="st1" d="M202.7,323c0.1,0.2,0.2,0.3,0.3,0.5c0.6-1.2,1.1-2.3,1.7-3.5c0.1,0.1,0.2,0.1,0.3,0.2
		c-0.5,1.1-0.9,2.3-1.4,3.4c-0.1,0.2-0.6,0.4-0.7,0.4c-0.2-0.2-0.4-0.5-0.6-0.8C202.5,323.1,202.6,323,202.7,323z"/>
	<path class="st1" d="M141,300.5c1.2-0.7,2.5-1.5,3.8-2.3C143.9,299.8,142.5,300.6,141,300.5z"/>
	<path class="st1" d="M196.3,304.2c1.3,0.7,2.7,1.3,4,2c-0.1,0.2-0.2,0.3-0.2,0.5c-1.3-0.7-2.6-1.4-4-2.1
		C196.2,304.5,196.2,304.3,196.3,304.2z"/>
	<path class="st1" d="M118.7,289.9c0.7,1.2,1.5,2.6,2.2,3.8C119.7,293.6,118.4,291.5,118.7,289.9z"/>
	<path class="st1" d="M124.9,285.8c-2.2-0.8-2.8,0.8-3.7,2c0-1.2,0.6-2,1.6-2.5c0.6-0.3,1.3-0.2,2-0.2
		C124.8,285.4,124.8,285.6,124.9,285.8z"/>
	<path class="st1" d="M172.9,321.7c0.8,2.6,2.1,0.6,3.2,0.5c0,0.2,0.1,0.3,0.1,0.5c-1,0.4-1.9,0.9-2.9,1.3c-0.3-0.9-0.5-1.5-0.7-2
		C172.7,321.9,172.8,321.8,172.9,321.7z"/>
	<path class="st1" d="M220.6,299c1.2,0.2,2.5,0.3,3.6,0.5C223.7,300.3,221.9,300.2,220.6,299z"/>
	<path class="st1" d="M136.8,293.9c-1.8-0.4-2.4-1.9-3.1-3.4C134.7,291.6,135.7,292.7,136.8,293.9z"/>
	<path class="st1" d="M154.9,282.2c-1.4,2.7-2.1,3.2-3.2,2.9C152.6,284.2,153.6,283.3,154.9,282.2z"/>
	<path class="st1" d="M250.1,303c-0.5,1.2-1.3,1.5-2.2,1.6c-1.1,0.1-1.2,0-1.6-1.2C247.7,304.9,248.7,303.7,250.1,303z"/>
	<path class="st1" d="M152,282.3c-0.7,1.4-2,1.3-3.1,1.6c-0.1-0.1-0.1-0.3-0.2-0.4c0.5-0.2,1-0.3,1.5-0.5
		C150.7,282.7,151.3,282.5,152,282.3z"/>
	<path class="st1" d="M138.6,296.9c1.7,1.1,1.7,1.1,3.2,0.3c0,0.1,0.1,0.2,0.1,0.3c-0.6,0.3-1.3,0.8-1.9,0.7c-0.6,0-1.1-0.6-1.7-1
		C138.5,297.1,138.6,297,138.6,296.9z"/>
	<path class="st1" d="M191.4,284.1c2.1,0.6,2.3-1.9,3.9-2C194.3,284,192.5,285,191.4,284.1z"/>
	<path class="st1" d="M173.9,274.2c-0.2,0.2-0.6,0.7-0.8,0.7c-0.6-0.3-1.2-0.7-1.8-1.1c0.1-0.1,0.1-0.3,0.2-0.4
		C172.2,273.7,172.9,273.9,173.9,274.2z"/>
	<path class="st1" d="M199.6,299.8c-1.3-0.5-2.6-1-3.9-1.5c0-0.1,0.1-0.3,0.1-0.4c1.3,0.5,2.6,0.9,3.9,1.4
		C199.7,299.5,199.6,299.7,199.6,299.8z"/>
	<path class="st1" d="M248.6,299c-0.2,0.5-0.4,0.9-0.5,1.4c0.3,0.6,0.6,1.2,1,1.8C247.2,300.4,247.1,300.2,248.6,299z"/>
	<path class="st1" d="M208.1,312.8c0.8-1,1.6-2,2.5-3c0.1,0.1,0.3,0.2,0.4,0.3c-0.8,1-1.7,2-2.5,3
		C208.3,313,208.2,312.9,208.1,312.8z"/>
	<path class="st1" d="M160,308.8c-0.8,2.4-1.5,3.1-2.3,2.5C158.4,310.5,159.2,309.8,160,308.8z"/>
</g>
</svg>
