<svg id="Layer_1" data-name="Layer 1" xmlns="http://www.w3.org/2000/svg" viewBox="0 0 180 360"><defs><style>.cls-1{fill:#fdd9be;}.cls-2{fill:#191919;}.cls-3{fill:#fff;}.cls-4{fill:#ef3d3a;}</style></defs><title>Artboard 32</title><rect class="cls-1" x="99" y="280" width="12" height="48"/><rect class="cls-1" x="63" y="280" width="12" height="48"/><path class="cls-1" d="M135,124V112h12V100H135V88H123V76H111V88H39v12H27v12H39v36H75v24H99V148h36V124ZM63,100H75v12H63Zm36,36H75V124H99Zm12-24H99V100h12Z"/><path class="cls-2" d="M75,172V160H39v24H51v96h72V184h12V160H99v12Zm0,36V196H87v12H99v12H87V208Z"/><rect class="cls-2" x="99" y="100" width="12" height="12"/><rect class="cls-2" x="63" y="100" width="12" height="12"/><rect class="cls-3" x="75" y="124" width="24" height="12"/><rect class="cls-1" x="123" y="184" width="12" height="84"/><rect class="cls-1" x="39" y="184" width="12" height="84"/><polygon class="cls-4" points="99 340 123 340 123 328 111 328 99 328 99 340"/><polygon class="cls-4" points="51 328 51 340 75 340 75 328 63 328 51 328"/><polygon class="cls-4" points="147 76 147 64 135 64 135 52 123 52 123 40 51 40 51 52 39 52 39 64 27 64 27 76 15 76 15 100 15 112 15 124 15 136 27 136 27 148 39 148 39 136 39 124 39 112 27 112 27 100 39 100 39 88 51 88 111 88 111 76 123 76 123 88 135 88 135 100 147 100 147 112 135 112 135 124 135 136 135 148 147 148 147 136 159 136 159 124 159 112 159 100 159 76 147 76"/><rect class="cls-3" x="75" y="196" width="12" height="12"/><rect class="cls-3" x="87" y="208" width="12" height="12"/></svg>