<svg id="Layer_1" data-name="Layer 1" xmlns="http://www.w3.org/2000/svg" viewBox="0 0 180 360"><defs><style>.cls-1{fill:#fdd9be;}.cls-2{fill:#191919;}.cls-3{fill:#ef3d3a;}.cls-4{fill:#fff;}.cls-5{fill:#25bac7;}</style></defs><title>Artboard 27</title><path class="cls-1" d="M138,81H42v24H30v12H42v36H78v24h24V153h36V117h12V105H138ZM66,105H78v12H66Zm48,36H66V129h48Zm0-24H102V105h12Z"/><rect class="cls-2" x="66" y="105" width="12" height="12"/><polygon class="cls-3" points="138 69 138 57 126 57 126 45 102 45 102 33 78 33 78 45 54 45 54 57 42 57 42 69 30 69 30 81 30 105 42 105 42 81 54 81 126 81 138 81 138 105 150 105 150 81 150 69 138 69"/><rect class="cls-2" x="102" y="105" width="12" height="12"/><polygon class="cls-4" points="66 141 78 141 102 141 114 141 114 129 66 129 66 141"/><polygon class="cls-1" points="54 189 42 189 42 273 54 273 54 249 54 189"/><path class="cls-2" d="M78,177V165H42v24H54v60h72V189h12V165H102v12Zm24,48H78V213h24Zm0-24H78V189h24Z"/><polygon class="cls-1" points="126 249 126 273 138 273 138 189 126 189 126 249"/><polygon class="cls-5" points="54 249 54 273 54 333 78 333 78 261 102 261 102 333 126 333 126 273 126 249 54 249"/><rect class="cls-4" x="78" y="189" width="24" height="12"/><rect class="cls-4" x="78" y="213" width="24" height="12"/><rect class="cls-2" x="102" y="333" width="24" height="12"/><rect class="cls-3" x="126" y="333" width="12" height="12"/><rect class="cls-2" x="54" y="333" width="24" height="12"/><rect class="cls-3" x="42" y="333" width="12" height="12"/></svg>