<svg id="Layer_1" data-name="Layer 1" xmlns="http://www.w3.org/2000/svg" viewBox="0 0 180 360"><defs><style>.cls-1{fill:#fdd9be;}.cls-2{fill:#fbac1e;}.cls-3{fill:#191919;}.cls-4{fill:#fff;}.cls-5{fill:#925122;}.cls-6{fill:#ec6723;}</style></defs><title>Artboard 23</title><rect class="cls-1" x="97" y="290" width="12" height="24"/><rect class="cls-1" x="61" y="290" width="12" height="24"/><path class="cls-1" d="M133,74H121V62H109V74H37V86H25V98H37v36H73v24H97V134h36V98h12V86H133ZM61,86H73V98H61Zm36,36H73V110H97Zm12-24H97V86h12Z"/><polygon class="cls-2" points="73 158 73 146 61 146 49 146 37 146 37 170 49 170 49 230 121 230 121 170 133 170 133 146 121 146 109 146 97 146 97 158 73 158"/><rect class="cls-3" x="97" y="86" width="12" height="12"/><rect class="cls-3" x="61" y="86" width="12" height="12"/><rect class="cls-4" x="73" y="110" width="24" height="12"/><polygon class="cls-1" points="121 230 121 242 121 254 133 254 133 170 121 170 121 230"/><polygon class="cls-1" points="49 230 49 170 37 170 37 254 49 254 49 242 49 230"/><polygon class="cls-5" points="97 326 121 326 121 314 109 314 97 314 97 326"/><polygon class="cls-5" points="49 314 49 326 73 326 73 314 61 314 49 314"/><polygon class="cls-5" points="133 50 133 38 121 38 121 26 49 26 49 38 37 38 37 50 25 50 25 62 25 74 25 86 37 86 37 74 49 74 109 74 109 62 121 62 121 74 133 74 133 86 145 86 145 74 145 62 145 50 133 50"/><polygon class="cls-6" points="121 230 49 230 49 242 49 254 49 290 61 290 73 290 73 254 97 254 97 290 109 290 121 290 121 254 121 242 121 230"/><rect class="cls-5" x="25" y="98" width="12" height="12"/><rect class="cls-5" x="133" y="98" width="12" height="12"/></svg>