<svg id="Layer_1" data-name="Layer 1" xmlns="http://www.w3.org/2000/svg" viewBox="0 0 180 360"><defs><style>.cls-1{fill:#fdd9be;}.cls-2{fill:#191919;}.cls-3{fill:#fff;}.cls-4{fill:#25bac7;}.cls-5{fill:#ef3d3a;}</style></defs><title>Artboard 25</title><path class="cls-1" d="M138,81H126V69H54V81H42v24H30v12H42v36H78v24h24V153h36V117h12V105H138ZM66,93H78v12H66Zm48,36H102v12H78V129H66V117h48Zm0-24H102V93h12Z"/><rect class="cls-2" x="66" y="93" width="12" height="12"/><polygon class="cls-2" points="138 69 138 57 126 57 126 45 54 45 54 57 42 57 42 69 30 69 30 81 30 105 42 105 42 81 54 81 54 69 126 69 126 81 138 81 138 105 150 105 150 81 150 69 138 69"/><rect class="cls-2" x="102" y="93" width="12" height="12"/><polygon class="cls-3" points="78 117 66 117 66 129 78 129 78 141 102 141 102 129 114 129 114 117 102 117 78 117"/><polygon class="cls-1" points="54 189 42 189 42 273 54 273 54 249 54 189"/><path class="cls-4" d="M78,177V165H42v24H54v60h72V189h12V165H102v12Zm36,24H102V189h12Z"/><polygon class="cls-1" points="126 249 126 273 138 273 138 189 126 189 126 249"/><polygon class="cls-5" points="114 249 102 249 78 249 66 249 54 249 54 273 54 333 78 333 78 261 102 261 102 333 126 333 126 273 126 249 114 249"/><polygon class="cls-2" points="42 333 42 345 78 345 78 333 54 333 42 333"/><polygon class="cls-2" points="102 345 138 345 138 333 126 333 102 333 102 345"/><rect class="cls-2" x="102" y="189" width="12" height="12"/></svg>