<svg id="Layer_1" data-name="Layer 1" xmlns="http://www.w3.org/2000/svg" viewBox="0 0 180 360"><defs><style>.cls-1{fill:#fdd9be;}.cls-2{fill:#191919;}.cls-3{fill:#fbac1e;}.cls-4{fill:#ec6723;}.cls-5{fill:#925122;}.cls-6{fill:#fff;}</style></defs><title>Artboard 28</title><path class="cls-1" d="M128.5,64h-72V76h-12V88h12v24h72V88h12V76h-12Zm-48,36h-12V88h12Zm36,0h-12V88h12Z"/><rect class="cls-2" x="68.5" y="88" width="12" height="12"/><path class="cls-3" d="M140.5,64V52h-12V40h-72V52h-12V64h-12v36h12v48h96V100h12V64Zm-36,72h-24V124h24Zm36-48h-12v24h-72V88h-12V76h12V64h72V76h12Z"/><rect class="cls-2" x="104.5" y="88" width="12" height="12"/><rect class="cls-1" x="32.5" y="100" width="12" height="12"/><rect class="cls-1" x="140.5" y="100" width="12" height="12"/><polygon class="cls-1" points="56.5 184 44.5 184 44.5 268 56.5 268 56.5 244 56.5 184"/><polygon class="cls-4" points="116.5 172 116.5 183 68.5 183 68.5 172 68.5 171 68.5 160 56.5 160 44.5 160 44.5 184 56.5 184 56.5 244 68.5 244 80.5 244 104.5 244 116.5 244 128.5 244 128.5 184 140.5 184 140.5 160 128.5 160 116.5 160 116.5 171 116.5 172"/><polygon class="cls-1" points="128.5 244 128.5 268 140.5 268 140.5 184 128.5 184 128.5 244"/><polygon class="cls-2" points="116.5 244 104.5 244 80.5 244 68.5 244 56.5 244 56.5 268 56.5 328 80.5 328 80.5 256 104.5 256 104.5 328 128.5 328 128.5 268 128.5 244 116.5 244"/><polygon class="cls-5" points="44.5 328 44.5 340 80.5 340 80.5 328 56.5 328 44.5 328"/><polygon class="cls-5" points="104.5 340 140.5 340 140.5 328 128.5 328 104.5 328 104.5 340"/><polygon class="cls-1" points="80.5 160 80.5 171 104.5 171 104.5 160 104.5 148 80.5 148 80.5 160"/><polygon class="cls-2" points="80.5 171 80.5 160 68.5 160 68.5 171 68.5 172 68.5 183 116.5 183 116.5 172 116.5 171 116.5 160 104.5 160 104.5 171 80.5 171"/><rect class="cls-6" x="80.5" y="124" width="24" height="12"/></svg>