<svg id="Layer_1" data-name="Layer 1" xmlns="http://www.w3.org/2000/svg" viewBox="0 0 180 360"><defs><style>.cls-1{fill:#fdd9be;}.cls-2{fill:#191919;}.cls-3{fill:#fff;}.cls-4{fill:#ef3d3a;}</style></defs><title>Artboard 24</title><rect class="cls-1" x="102" y="270" width="12" height="48"/><rect class="cls-1" x="66" y="270" width="12" height="48"/><path class="cls-1" d="M138,114V102h12V90H138V78H126V66H114V78H42V90H30v12H42v36H78v24h24V138h36V114ZM66,90H78v12H66Zm36,36H78V114h24Zm12-24H102V90h12Z"/><path class="cls-2" d="M78,162V150H42v24H54v96h72V174h12V150H102v12Zm0,36V186H90v12h12v12H90V198Z"/><rect class="cls-2" x="102" y="90" width="12" height="12"/><rect class="cls-2" x="66" y="90" width="12" height="12"/><rect class="cls-3" x="78" y="114" width="24" height="12"/><rect class="cls-1" x="126" y="174" width="12" height="84"/><rect class="cls-1" x="42" y="174" width="12" height="84"/><polygon class="cls-4" points="102 330 126 330 126 318 114 318 102 318 102 330"/><polygon class="cls-4" points="54 318 54 330 78 330 78 318 66 318 54 318"/><polygon class="cls-4" points="150 66 150 54 138 54 138 42 126 42 126 30 54 30 54 42 42 42 42 54 30 54 30 66 18 66 18 90 18 102 18 114 18 126 30 126 30 138 42 138 42 126 42 114 42 102 30 102 30 90 42 90 42 78 54 78 114 78 114 66 126 66 126 78 138 78 138 90 150 90 150 102 138 102 138 114 138 126 138 138 150 138 150 126 162 126 162 114 162 102 162 90 162 66 150 66"/><rect class="cls-3" x="78" y="186" width="12" height="12"/><rect class="cls-3" x="90" y="198" width="12" height="12"/></svg>