<svg id="Layer_1" data-name="Layer 1" xmlns="http://www.w3.org/2000/svg" viewBox="0 0 180 360"><defs><style>.cls-1{fill:#fdd9be;}.cls-2{fill:#fbac1e;}.cls-3{fill:#191919;}.cls-4{fill:#fff;}.cls-5{fill:#925122;}.cls-6{fill:#ec6723;}</style></defs><title>Artboard 31</title><rect class="cls-1" x="101.5" y="311" width="12" height="24"/><rect class="cls-1" x="65.5" y="311" width="12" height="24"/><path class="cls-1" d="M137.5,95h-12V83h-12V95h-72v12h-12v12h12v36h36v24h24V155h36V119h12V107h-12Zm-72,12h12v12h-12Zm36,36h-24V131h24Zm12-24h-12V107h12Z"/><polygon class="cls-2" points="77.5 179 77.5 167 65.5 167 53.5 167 41.5 167 41.5 191 53.5 191 53.5 251 125.5 251 125.5 191 137.5 191 137.5 167 125.5 167 113.5 167 101.5 167 101.5 179 77.5 179"/><rect class="cls-3" x="101.5" y="107" width="12" height="12"/><rect class="cls-3" x="65.5" y="107" width="12" height="12"/><rect class="cls-4" x="77.5" y="131" width="24" height="12"/><polygon class="cls-1" points="125.5 251 125.5 263 125.5 275 137.5 275 137.5 191 125.5 191 125.5 251"/><polygon class="cls-1" points="53.5 251 53.5 191 41.5 191 41.5 275 53.5 275 53.5 263 53.5 251"/><polygon class="cls-5" points="101.5 347 125.5 347 125.5 335 113.5 335 101.5 335 101.5 347"/><polygon class="cls-5" points="53.5 335 53.5 347 77.5 347 77.5 335 65.5 335 53.5 335"/><polygon class="cls-5" points="137.5 71 137.5 59 125.5 59 125.5 47 53.5 47 53.5 59 41.5 59 41.5 71 29.5 71 29.5 83 29.5 95 29.5 107 41.5 107 41.5 95 53.5 95 113.5 95 113.5 83 125.5 83 125.5 95 137.5 95 137.5 107 149.5 107 149.5 95 149.5 83 149.5 71 137.5 71"/><polygon class="cls-6" points="125.5 251 53.5 251 53.5 263 53.5 275 53.5 311 65.5 311 77.5 311 77.5 275 101.5 275 101.5 311 113.5 311 125.5 311 125.5 275 125.5 263 125.5 251"/><rect class="cls-5" x="29.5" y="119" width="12" height="12"/><rect class="cls-5" x="137.5" y="119" width="12" height="12"/></svg>