<svg id="Layer_1" data-name="Layer 1" xmlns="http://www.w3.org/2000/svg" viewBox="0 0 180 360"><defs><style>.cls-1{fill:#fdd9be;}.cls-2{fill:#191919;}.cls-3{fill:#fbac1e;}.cls-4{fill:#fff;}.cls-5{fill:#25bac7;}</style></defs><title>Artboard 22</title><rect class="cls-1" x="102" y="306" width="12" height="12"/><rect class="cls-1" x="66" y="306" width="12" height="12"/><path class="cls-1" d="M138,78H126V66H114V78H42V90H30v12H42v36H78v24h24V138h36V102h12V90H138ZM66,102V90H78v12Zm36,24H78V114h24Zm12-24H102V90h12Z"/><rect class="cls-2" x="102" y="90" width="12" height="12"/><polygon class="cls-3" points="138 138 102 138 102 150 114 150 126 150 138 150 138 162 150 162 150 102 138 102 138 138"/><polygon class="cls-3" points="54 150 66 150 78 150 78 138 42 138 42 102 30 102 30 162 42 162 42 150 54 150"/><rect class="cls-2" x="66" y="90" width="12" height="12"/><rect class="cls-4" x="78" y="114" width="24" height="12"/><polygon class="cls-5" points="126 150 114 150 102 150 102 162 78 162 78 150 66 150 54 150 42 150 42 162 42 174 54 174 54 234 126 234 126 174 138 174 138 162 138 150 126 150"/><polygon class="cls-1" points="126 234 126 258 138 258 138 174 126 174 126 234"/><polygon class="cls-1" points="54 174 42 174 42 258 54 258 54 234 54 174"/><polygon class="cls-2" points="102 330 126 330 126 318 114 318 102 318 102 330"/><polygon class="cls-2" points="54 318 54 330 78 330 78 318 66 318 54 318"/><polygon class="cls-3" points="138 54 138 42 126 42 126 30 54 30 54 42 42 42 42 54 30 54 30 66 30 78 30 90 42 90 42 78 54 78 114 78 114 66 126 66 126 78 138 78 138 90 150 90 150 78 150 66 150 54 138 54"/><polygon class="cls-2" points="54 234 54 258 66 258 66 306 78 306 78 258 102 258 102 306 114 306 114 258 126 258 126 234 54 234"/></svg>