<svg id="Layer_1" data-name="Layer 1" xmlns="http://www.w3.org/2000/svg" viewBox="0 0 180 360"><defs><style>.cls-1{fill:#fdd9be;}.cls-2{fill:#191919;}.cls-3{fill:#ef3d3a;}.cls-4{fill:#fff;}.cls-5{fill:#25bac7;}</style></defs><title>Artboard 19</title><path class="cls-1" d="M138,79H42v24H30v12H42v36H78v24h24V151h36V115h12V103H138ZM66,103H78v12H66Zm48,36H66V127h48Zm0-24H102V103h12Z"/><rect class="cls-2" x="66" y="103" width="12" height="12"/><polygon class="cls-3" points="138 67 138 55 126 55 126 43 102 43 102 31 78 31 78 43 54 43 54 55 42 55 42 67 30 67 30 79 30 103 42 103 42 79 54 79 126 79 138 79 138 103 150 103 150 79 150 67 138 67"/><rect class="cls-2" x="102" y="103" width="12" height="12"/><polygon class="cls-4" points="66 139 78 139 102 139 114 139 114 127 66 127 66 139"/><polygon class="cls-1" points="54 187 42 187 42 271 54 271 54 247 54 187"/><path class="cls-2" d="M78,175V163H42v24H54v60h72V187h12V163H102v12Zm24,48H78V211h24Zm0-24H78V187h24Z"/><polygon class="cls-1" points="126 247 126 271 138 271 138 187 126 187 126 247"/><polygon class="cls-5" points="54 247 54 271 54 331 78 331 78 259 102 259 102 331 126 331 126 271 126 247 54 247"/><rect class="cls-4" x="78" y="187" width="24" height="12"/><rect class="cls-4" x="78" y="211" width="24" height="12"/><rect class="cls-2" x="102" y="331" width="24" height="12"/><rect class="cls-3" x="126" y="331" width="12" height="12"/><rect class="cls-2" x="54" y="331" width="24" height="12"/><rect class="cls-3" x="42" y="331" width="12" height="12"/></svg>