<svg id="Layer_1" data-name="Layer 1" xmlns="http://www.w3.org/2000/svg" viewBox="0 0 180 360"><defs><style>.cls-1{fill:#fdd9be;}.cls-2{fill:#191919;}.cls-3{fill:#925122;}.cls-4{fill:#fff;}.cls-5{fill:#74913b;}</style></defs><title>Artboard 26</title><polygon class="cls-1" points="78.5 93 102.5 93 126.5 93 138.5 93 138.5 81 126.5 81 54.5 81 42.5 81 42.5 93 54.5 93 78.5 93"/><polygon class="cls-2" points="54.5 117 78.5 117 78.5 105 102.5 105 102.5 117 126.5 117 126.5 105 138.5 105 138.5 93 126.5 93 102.5 93 78.5 93 54.5 93 42.5 93 42.5 105 54.5 105 54.5 117"/><polygon class="cls-3" points="138.5 69 138.5 57 126.5 57 126.5 45 126.5 33 102.5 33 102.5 45 54.5 45 54.5 57 42.5 57 42.5 69 30.5 69 30.5 81 30.5 105 42.5 105 42.5 93 42.5 81 54.5 81 126.5 81 138.5 81 138.5 93 138.5 105 150.5 105 150.5 81 150.5 69 138.5 69"/><rect class="cls-4" x="78.5" y="129" width="24" height="12"/><path class="cls-1" d="M126.5,105v12h-24V105h-24v12h-24V105h-24v12h12v36h36v24h24V153h36V117h12V105h-24Zm-24,36h-24V129h24Z"/><polygon class="cls-1" points="54.5 189 42.5 189 42.5 273 54.5 273 54.5 249 54.5 189"/><path class="cls-5" d="M78.5,177V165h-36v24h12v60h72V189h12V165h-36v12Zm24,48h-24V201h24Z"/><polygon class="cls-1" points="126.5 249 126.5 273 138.5 273 138.5 189 126.5 189 126.5 249"/><polygon class="cls-3" points="54.5 249 54.5 273 54.5 321 78.5 321 78.5 261 102.5 261 102.5 321 126.5 321 126.5 273 126.5 249 54.5 249"/><polygon class="cls-2" points="54.5 333 42.5 333 42.5 345 78.5 345 78.5 333 78.5 321 54.5 321 54.5 333"/><polygon class="cls-2" points="102.5 333 102.5 345 138.5 345 138.5 333 126.5 333 126.5 321 102.5 321 102.5 333"/><rect class="cls-2" x="78.5" y="201" width="24" height="24"/></svg>