<svg id="Layer_1" data-name="Layer 1" xmlns="http://www.w3.org/2000/svg" viewBox="0 0 180 360"><defs><style>.cls-1{fill:#fdd9be;}.cls-2{fill:#191919;}.cls-3{fill:#fff;}.cls-4{fill:#25bac7;}.cls-5{fill:#ef3d3a;}</style></defs><title>Artboard 17</title><path class="cls-1" d="M138.5,72h-12V60h-72V72h-12V96h-12v12h12v36h36v24h24V144h36V108h12V96h-12Zm-72,12h12V96h-12Zm48,36h-12v12h-24V120h-12V108h48Zm0-24h-12V84h12Z"/><rect class="cls-2" x="66.5" y="84" width="12" height="12"/><polygon class="cls-2" points="138.5 60 138.5 48 126.5 48 126.5 36 54.5 36 54.5 48 42.5 48 42.5 60 30.5 60 30.5 72 30.5 96 42.5 96 42.5 72 54.5 72 54.5 60 126.5 60 126.5 72 138.5 72 138.5 96 150.5 96 150.5 72 150.5 60 138.5 60"/><rect class="cls-2" x="102.5" y="84" width="12" height="12"/><polygon class="cls-3" points="78.5 108 66.5 108 66.5 120 78.5 120 78.5 132 102.5 132 102.5 120 114.5 120 114.5 108 102.5 108 78.5 108"/><polygon class="cls-1" points="54.5 180 42.5 180 42.5 264 54.5 264 54.5 240 54.5 180"/><path class="cls-4" d="M78.5,168V156h-36v24h12v60h72V180h12V156h-36v12Zm36,24h-12V180h12Z"/><polygon class="cls-1" points="126.5 240 126.5 264 138.5 264 138.5 180 126.5 180 126.5 240"/><polygon class="cls-5" points="114.5 240 102.5 240 78.5 240 66.5 240 54.5 240 54.5 264 54.5 324 78.5 324 78.5 252 102.5 252 102.5 324 126.5 324 126.5 264 126.5 240 114.5 240"/><polygon class="cls-2" points="42.5 324 42.5 336 78.5 336 78.5 324 54.5 324 42.5 324"/><polygon class="cls-2" points="102.5 336 138.5 336 138.5 324 126.5 324 102.5 324 102.5 336"/><rect class="cls-2" x="102.5" y="180" width="12" height="12"/></svg>