<svg id="Layer_1" data-name="Layer 1" xmlns="http://www.w3.org/2000/svg" viewBox="0 0 180 360"><defs><style>.cls-1{fill:#fdd9be;}.cls-2{fill:#ef3d3a;}.cls-3{fill:#191919;}.cls-4{fill:#fff;}</style></defs><title>Artboard 29</title><rect class="cls-1" x="66" y="279" width="12" height="60"/><rect class="cls-1" x="102" y="279" width="12" height="60"/><path class="cls-2" d="M78,183V171H42v24H54v84h72V195h12V171H102v12Zm24,48v12H90V231H78V207H90v12h12Z"/><rect class="cls-3" x="66" y="111" width="12" height="12"/><rect class="cls-3" x="30" y="123" width="12" height="36"/><rect class="cls-3" x="138" y="123" width="12" height="36"/><polygon class="cls-3" points="138 75 138 63 126 63 126 51 54 51 54 63 42 63 42 75 30 75 30 87 30 99 30 111 42 111 42 99 54 99 54 87 66 87 66 99 78 99 78 111 102 111 102 123 114 123 114 111 126 111 138 111 150 111 150 99 150 87 150 75 138 75"/><rect class="cls-4" x="78" y="135" width="24" height="12"/><path class="cls-1" d="M126,111H114v12H102V111H78v12H66V111H78V99H66V87H54V99H42v12H30v12H42v36H78v24h24V159h36V123h12V111H126Zm-24,36H78V135h24Z"/><rect class="cls-1" x="42" y="195" width="12" height="84"/><rect class="cls-1" x="126" y="195" width="12" height="84"/><polygon class="cls-3" points="54 339 54 351 78 351 78 339 66 339 54 339"/><polygon class="cls-3" points="102 351 126 351 126 339 114 339 102 339 102 351"/><polygon class="cls-3" points="90 207 78 207 78 219 78 231 90 231 90 243 102 243 102 231 102 219 90 219 90 207"/></svg>